<?xml version="1.0" encoding="utf-8" standalone="no"?>
<!DOCTYPE svg PUBLIC "-//W3C//DTD SVG 1.1//EN"
  "http://www.w3.org/Graphics/SVG/1.1/DTD/svg11.dtd">
<svg xmlns:xlink="http://www.w3.org/1999/xlink" width="720pt" height="432pt" viewBox="0 0 720 432" xmlns="http://www.w3.org/2000/svg" version="1.1">
 <metadata>
  <rdf:RDF xmlns:dc="http://purl.org/dc/elements/1.1/" xmlns:cc="http://creativecommons.org/ns#" xmlns:rdf="http://www.w3.org/1999/02/22-rdf-syntax-ns#">
   <cc:Work>
    <dc:type rdf:resource="http://purl.org/dc/dcmitype/StillImage"/>
    <dc:date>2025-04-24T11:39:11.734724</dc:date>
    <dc:format>image/svg+xml</dc:format>
    <dc:creator>
     <cc:Agent>
      <dc:title>Matplotlib v3.10.1, https://matplotlib.org/</dc:title>
     </cc:Agent>
    </dc:creator>
   </cc:Work>
  </rdf:RDF>
 </metadata>
 <defs>
  <style type="text/css">*{stroke-linejoin: round; stroke-linecap: butt}</style>
 </defs>
 <g id="figure_1">
  <g id="patch_1">
   <path d="M 0 432 
L 720 432 
L 720 0 
L 0 0 
z
" style="fill: #ffffff"/>
  </g>
  <g id="axes_1">
   <g id="patch_2">
    <path d="M 90 384.48 
L 648 384.48 
L 648 51.84 
L 90 51.84 
z
" style="fill: #ffffff"/>
   </g>
   <g id="matplotlib.axis_1">
    <g id="xtick_1">
     <g id="line2d_1">
      <path d="M 115.363636 384.48 
L 115.363636 51.84 
" clip-path="url(#p5075ae7284)" style="fill: none; stroke: #b0b0b0; stroke-width: 0.8; stroke-linecap: square"/>
     </g>
     <g id="line2d_2">
      <defs>
       <path id="mc81d885b85" d="M 0 0 
L 0 3.5 
" style="stroke: #000000; stroke-width: 0.8"/>
      </defs>
      <g>
       <use xlink:href="#mc81d885b85" x="115.363636" y="384.48" style="stroke: #000000; stroke-width: 0.8"/>
      </g>
     </g>
     <g id="text_1">
      <!-- 0 -->
      <g transform="translate(112.863636 398.355) scale(0.1 -0.1)">
       <defs>
        <path id="SimHei-30" d="M 225 2537 
Q 250 3200 412 3587 
Q 575 3975 875 4225 
Q 1175 4475 1612 4475 
Q 2050 4475 2375 4112 
Q 2700 3750 2800 3200 
Q 2900 2650 2862 1937 
Q 2825 1225 2612 775 
Q 2400 325 1975 150 
Q 1550 -25 1125 187 
Q 700 400 525 750 
Q 350 1100 275 1487 
Q 200 1875 225 2537 
z
M 750 2687 
Q 675 2000 800 1462 
Q 925 925 1212 700 
Q 1500 475 1800 612 
Q 2100 750 2237 1162 
Q 2375 1575 2375 2062 
Q 2375 2550 2337 2950 
Q 2300 3350 2112 3675 
Q 1925 4000 1612 4012 
Q 1300 4025 1062 3700 
Q 825 3375 750 2687 
z
" transform="scale(0.015625)"/>
       </defs>
       <use xlink:href="#SimHei-30"/>
      </g>
     </g>
    </g>
    <g id="xtick_2">
     <g id="line2d_3">
      <path d="M 178.804448 384.48 
L 178.804448 51.84 
" clip-path="url(#p5075ae7284)" style="fill: none; stroke: #b0b0b0; stroke-width: 0.8; stroke-linecap: square"/>
     </g>
     <g id="line2d_4">
      <g>
       <use xlink:href="#mc81d885b85" x="178.804448" y="384.48" style="stroke: #000000; stroke-width: 0.8"/>
      </g>
     </g>
     <g id="text_2">
      <!-- 250 -->
      <g transform="translate(171.304448 398.355) scale(0.1 -0.1)">
       <defs>
        <path id="SimHei-32" d="M 300 250 
Q 325 625 650 925 
Q 975 1225 1475 1862 
Q 1975 2500 2125 2850 
Q 2275 3200 2237 3450 
Q 2200 3700 2000 3862 
Q 1800 4025 1537 4000 
Q 1275 3975 1037 3800 
Q 800 3625 675 3275 
L 200 3350 
Q 400 3925 712 4187 
Q 1025 4450 1450 4475 
Q 1700 4500 1900 4462 
Q 2100 4425 2312 4287 
Q 2525 4150 2662 3875 
Q 2800 3600 2762 3212 
Q 2725 2825 2375 2287 
Q 2025 1750 1025 600 
L 2825 600 
L 2825 150 
L 300 150 
L 300 250 
z
" transform="scale(0.015625)"/>
        <path id="SimHei-35" d="M 550 1325 
Q 725 650 1150 575 
Q 1575 500 1837 662 
Q 2100 825 2212 1087 
Q 2325 1350 2312 1675 
Q 2300 2000 2137 2225 
Q 1975 2450 1725 2525 
Q 1475 2600 1162 2525 
Q 850 2450 650 2175 
L 225 2225 
Q 275 2375 700 4375 
L 2675 4375 
L 2675 3925 
L 1075 3925 
Q 950 3250 825 2850 
Q 1200 3025 1525 3012 
Q 1850 3000 2150 2862 
Q 2450 2725 2587 2487 
Q 2725 2250 2787 2012 
Q 2850 1775 2837 1500 
Q 2825 1225 2725 937 
Q 2625 650 2425 462 
Q 2225 275 1937 162 
Q 1650 50 1275 75 
Q 900 100 562 350 
Q 225 600 100 1200 
L 550 1325 
z
" transform="scale(0.015625)"/>
       </defs>
       <use xlink:href="#SimHei-32"/>
       <use xlink:href="#SimHei-35" transform="translate(50 0)"/>
       <use xlink:href="#SimHei-30" transform="translate(100 0)"/>
      </g>
     </g>
    </g>
    <g id="xtick_3">
     <g id="line2d_5">
      <path d="M 242.245259 384.48 
L 242.245259 51.84 
" clip-path="url(#p5075ae7284)" style="fill: none; stroke: #b0b0b0; stroke-width: 0.8; stroke-linecap: square"/>
     </g>
     <g id="line2d_6">
      <g>
       <use xlink:href="#mc81d885b85" x="242.245259" y="384.48" style="stroke: #000000; stroke-width: 0.8"/>
      </g>
     </g>
     <g id="text_3">
      <!-- 500 -->
      <g transform="translate(234.745259 398.355) scale(0.1 -0.1)">
       <use xlink:href="#SimHei-35"/>
       <use xlink:href="#SimHei-30" transform="translate(50 0)"/>
       <use xlink:href="#SimHei-30" transform="translate(100 0)"/>
      </g>
     </g>
    </g>
    <g id="xtick_4">
     <g id="line2d_7">
      <path d="M 305.68607 384.48 
L 305.68607 51.84 
" clip-path="url(#p5075ae7284)" style="fill: none; stroke: #b0b0b0; stroke-width: 0.8; stroke-linecap: square"/>
     </g>
     <g id="line2d_8">
      <g>
       <use xlink:href="#mc81d885b85" x="305.68607" y="384.48" style="stroke: #000000; stroke-width: 0.8"/>
      </g>
     </g>
     <g id="text_4">
      <!-- 750 -->
      <g transform="translate(298.18607 398.355) scale(0.1 -0.1)">
       <defs>
        <path id="SimHei-37" d="M 850 150 
Q 1300 2050 2425 3925 
L 275 3925 
L 275 4375 
L 2950 4375 
L 2950 3950 
Q 1775 2050 1400 150 
L 850 150 
z
" transform="scale(0.015625)"/>
       </defs>
       <use xlink:href="#SimHei-37"/>
       <use xlink:href="#SimHei-35" transform="translate(50 0)"/>
       <use xlink:href="#SimHei-30" transform="translate(100 0)"/>
      </g>
     </g>
    </g>
    <g id="xtick_5">
     <g id="line2d_9">
      <path d="M 369.126882 384.48 
L 369.126882 51.84 
" clip-path="url(#p5075ae7284)" style="fill: none; stroke: #b0b0b0; stroke-width: 0.8; stroke-linecap: square"/>
     </g>
     <g id="line2d_10">
      <g>
       <use xlink:href="#mc81d885b85" x="369.126882" y="384.48" style="stroke: #000000; stroke-width: 0.8"/>
      </g>
     </g>
     <g id="text_5">
      <!-- 1000 -->
      <g transform="translate(359.126882 398.355) scale(0.1 -0.1)">
       <defs>
        <path id="SimHei-31" d="M 1400 3600 
Q 1075 3275 575 2975 
L 575 3450 
Q 1200 3875 1600 4450 
L 1900 4450 
L 1900 150 
L 1400 150 
L 1400 3600 
z
" transform="scale(0.015625)"/>
       </defs>
       <use xlink:href="#SimHei-31"/>
       <use xlink:href="#SimHei-30" transform="translate(50 0)"/>
       <use xlink:href="#SimHei-30" transform="translate(100 0)"/>
       <use xlink:href="#SimHei-30" transform="translate(150 0)"/>
      </g>
     </g>
    </g>
    <g id="xtick_6">
     <g id="line2d_11">
      <path d="M 432.567693 384.48 
L 432.567693 51.84 
" clip-path="url(#p5075ae7284)" style="fill: none; stroke: #b0b0b0; stroke-width: 0.8; stroke-linecap: square"/>
     </g>
     <g id="line2d_12">
      <g>
       <use xlink:href="#mc81d885b85" x="432.567693" y="384.48" style="stroke: #000000; stroke-width: 0.8"/>
      </g>
     </g>
     <g id="text_6">
      <!-- 1250 -->
      <g transform="translate(422.567693 398.355) scale(0.1 -0.1)">
       <use xlink:href="#SimHei-31"/>
       <use xlink:href="#SimHei-32" transform="translate(50 0)"/>
       <use xlink:href="#SimHei-35" transform="translate(100 0)"/>
       <use xlink:href="#SimHei-30" transform="translate(150 0)"/>
      </g>
     </g>
    </g>
    <g id="xtick_7">
     <g id="line2d_13">
      <path d="M 496.008504 384.48 
L 496.008504 51.84 
" clip-path="url(#p5075ae7284)" style="fill: none; stroke: #b0b0b0; stroke-width: 0.8; stroke-linecap: square"/>
     </g>
     <g id="line2d_14">
      <g>
       <use xlink:href="#mc81d885b85" x="496.008504" y="384.48" style="stroke: #000000; stroke-width: 0.8"/>
      </g>
     </g>
     <g id="text_7">
      <!-- 1500 -->
      <g transform="translate(486.008504 398.355) scale(0.1 -0.1)">
       <use xlink:href="#SimHei-31"/>
       <use xlink:href="#SimHei-35" transform="translate(50 0)"/>
       <use xlink:href="#SimHei-30" transform="translate(100 0)"/>
       <use xlink:href="#SimHei-30" transform="translate(150 0)"/>
      </g>
     </g>
    </g>
    <g id="xtick_8">
     <g id="line2d_15">
      <path d="M 559.449316 384.48 
L 559.449316 51.84 
" clip-path="url(#p5075ae7284)" style="fill: none; stroke: #b0b0b0; stroke-width: 0.8; stroke-linecap: square"/>
     </g>
     <g id="line2d_16">
      <g>
       <use xlink:href="#mc81d885b85" x="559.449316" y="384.48" style="stroke: #000000; stroke-width: 0.8"/>
      </g>
     </g>
     <g id="text_8">
      <!-- 1750 -->
      <g transform="translate(549.449316 398.355) scale(0.1 -0.1)">
       <use xlink:href="#SimHei-31"/>
       <use xlink:href="#SimHei-37" transform="translate(50 0)"/>
       <use xlink:href="#SimHei-35" transform="translate(100 0)"/>
       <use xlink:href="#SimHei-30" transform="translate(150 0)"/>
      </g>
     </g>
    </g>
    <g id="xtick_9">
     <g id="line2d_17">
      <path d="M 622.890127 384.48 
L 622.890127 51.84 
" clip-path="url(#p5075ae7284)" style="fill: none; stroke: #b0b0b0; stroke-width: 0.8; stroke-linecap: square"/>
     </g>
     <g id="line2d_18">
      <g>
       <use xlink:href="#mc81d885b85" x="622.890127" y="384.48" style="stroke: #000000; stroke-width: 0.8"/>
      </g>
     </g>
     <g id="text_9">
      <!-- 2000 -->
      <g transform="translate(612.890127 398.355) scale(0.1 -0.1)">
       <use xlink:href="#SimHei-32"/>
       <use xlink:href="#SimHei-30" transform="translate(50 0)"/>
       <use xlink:href="#SimHei-30" transform="translate(100 0)"/>
       <use xlink:href="#SimHei-30" transform="translate(150 0)"/>
      </g>
     </g>
    </g>
    <g id="text_10">
     <!-- Iteration -->
     <g transform="translate(346.5 410.48) scale(0.1 -0.1)">
      <defs>
       <path id="SimHei-49" d="M 1850 125 
L 1275 125 
L 1275 4400 
L 1850 4400 
L 1850 125 
z
" transform="scale(0.015625)"/>
       <path id="SimHei-74" d="M 2750 200 
Q 2625 150 2462 112 
Q 2300 75 2025 75 
Q 1575 75 1300 325 
Q 1025 575 1025 1025 
L 1025 2525 
L 175 2525 
L 175 2925 
L 1025 2925 
L 1025 3900 
L 1525 3900 
L 1525 2925 
L 2550 2925 
L 2550 2525 
L 1525 2525 
L 1525 1000 
Q 1525 800 1625 662 
Q 1725 525 2000 525 
Q 2275 525 2450 575 
Q 2625 625 2750 700 
L 2750 200 
z
" transform="scale(0.015625)"/>
       <path id="SimHei-65" d="M 2850 1075 
Q 2800 625 2450 350 
Q 2100 75 1625 75 
Q 1025 75 637 462 
Q 250 850 250 1525 
Q 250 2200 637 2587 
Q 1025 2975 1625 2975 
Q 2150 2975 2487 2637 
Q 2825 2300 2825 1525 
L 800 1525 
Q 800 975 1037 750 
Q 1275 525 1625 525 
Q 1900 525 2075 662 
Q 2250 800 2300 1075 
L 2850 1075 
z
M 2250 1925 
Q 2200 2275 2025 2412 
Q 1850 2550 1575 2550 
Q 1325 2550 1125 2412 
Q 925 2275 825 1925 
L 2250 1925 
z
" transform="scale(0.015625)"/>
       <path id="SimHei-72" d="M 2500 2425 
Q 2025 2500 1700 2287 
Q 1375 2075 1150 1550 
L 1150 125 
L 650 125 
L 650 2925 
L 1150 2925 
L 1150 2200 
Q 1375 2600 1712 2787 
Q 2050 2975 2500 2975 
L 2500 2425 
z
" transform="scale(0.015625)"/>
       <path id="SimHei-61" d="M 2875 125 
L 2275 125 
Q 2225 175 2200 262 
Q 2175 350 2175 475 
Q 2000 275 1750 175 
Q 1500 75 1225 75 
Q 825 75 550 275 
Q 275 475 275 850 
Q 275 1225 525 1450 
Q 775 1675 1300 1750 
Q 1650 1800 1912 1875 
Q 2175 1950 2175 2075 
Q 2175 2225 2062 2375 
Q 1950 2525 1575 2525 
Q 1275 2525 1137 2412 
Q 1000 2300 950 2100 
L 400 2100 
Q 450 2500 762 2737 
Q 1075 2975 1575 2975 
Q 2125 2975 2400 2725 
Q 2675 2475 2675 2025 
L 2675 650 
Q 2675 500 2725 375 
Q 2775 250 2875 125 
z
M 2175 1050 
L 2175 1550 
Q 2025 1500 1887 1462 
Q 1750 1425 1425 1375 
Q 1050 1325 937 1200 
Q 825 1075 825 900 
Q 825 750 937 637 
Q 1050 525 1275 525 
Q 1500 525 1762 650 
Q 2025 775 2175 1050 
z
" transform="scale(0.015625)"/>
       <path id="SimHei-69" d="M 1800 3725 
L 1300 3725 
L 1300 4375 
L 1800 4375 
L 1800 3725 
z
M 1800 125 
L 1300 125 
L 1300 2925 
L 1800 2925 
L 1800 125 
z
" transform="scale(0.015625)"/>
       <path id="SimHei-6f" d="M 2925 1525 
Q 2925 875 2525 475 
Q 2125 75 1575 75 
Q 1025 75 625 475 
Q 225 875 225 1525 
Q 225 2175 625 2575 
Q 1025 2975 1575 2975 
Q 2125 2975 2525 2575 
Q 2925 2175 2925 1525 
z
M 2375 1525 
Q 2375 2025 2125 2275 
Q 1875 2525 1575 2525 
Q 1275 2525 1025 2275 
Q 775 2025 775 1525 
Q 775 1025 1025 775 
Q 1275 525 1575 525 
Q 1875 525 2125 775 
Q 2375 1025 2375 1525 
z
" transform="scale(0.015625)"/>
       <path id="SimHei-6e" d="M 2800 125 
L 2300 125 
L 2300 1925 
Q 2300 2225 2150 2400 
Q 2000 2575 1750 2575 
Q 1425 2575 1137 2237 
Q 850 1900 850 1400 
L 850 125 
L 350 125 
L 350 2925 
L 850 2925 
L 850 2400 
Q 1050 2675 1287 2825 
Q 1525 2975 1900 2975 
Q 2350 2975 2575 2725 
Q 2800 2475 2800 2100 
L 2800 125 
z
" transform="scale(0.015625)"/>
      </defs>
      <use xlink:href="#SimHei-49"/>
      <use xlink:href="#SimHei-74" transform="translate(50 0)"/>
      <use xlink:href="#SimHei-65" transform="translate(100 0)"/>
      <use xlink:href="#SimHei-72" transform="translate(150 0)"/>
      <use xlink:href="#SimHei-61" transform="translate(200 0)"/>
      <use xlink:href="#SimHei-74" transform="translate(250 0)"/>
      <use xlink:href="#SimHei-69" transform="translate(300 0)"/>
      <use xlink:href="#SimHei-6f" transform="translate(350 0)"/>
      <use xlink:href="#SimHei-6e" transform="translate(400 0)"/>
     </g>
    </g>
   </g>
   <g id="matplotlib.axis_2">
    <g id="ytick_1">
     <g id="line2d_19">
      <path d="M 90 377.680029 
L 648 377.680029 
" clip-path="url(#p5075ae7284)" style="fill: none; stroke: #b0b0b0; stroke-width: 0.8; stroke-linecap: square"/>
     </g>
     <g id="line2d_20">
      <defs>
       <path id="m43a3abac97" d="M 0 0 
L -3.5 0 
" style="stroke: #000000; stroke-width: 0.8"/>
      </defs>
      <g>
       <use xlink:href="#m43a3abac97" x="90" y="377.680029" style="stroke: #000000; stroke-width: 0.8"/>
      </g>
     </g>
     <g id="text_11">
      <!-- 0.15 -->
      <g transform="translate(63 381.117529) scale(0.1 -0.1)">
       <defs>
        <path id="SimHei-2e" d="M 1075 125 
L 500 125 
L 500 675 
L 1075 675 
L 1075 125 
z
" transform="scale(0.015625)"/>
       </defs>
       <use xlink:href="#SimHei-30"/>
       <use xlink:href="#SimHei-2e" transform="translate(50 0)"/>
       <use xlink:href="#SimHei-31" transform="translate(100 0)"/>
       <use xlink:href="#SimHei-35" transform="translate(150 0)"/>
      </g>
     </g>
    </g>
    <g id="ytick_2">
     <g id="line2d_21">
      <path d="M 90 330.712418 
L 648 330.712418 
" clip-path="url(#p5075ae7284)" style="fill: none; stroke: #b0b0b0; stroke-width: 0.8; stroke-linecap: square"/>
     </g>
     <g id="line2d_22">
      <g>
       <use xlink:href="#m43a3abac97" x="90" y="330.712418" style="stroke: #000000; stroke-width: 0.8"/>
      </g>
     </g>
     <g id="text_12">
      <!-- 0.20 -->
      <g transform="translate(63 334.149918) scale(0.1 -0.1)">
       <use xlink:href="#SimHei-30"/>
       <use xlink:href="#SimHei-2e" transform="translate(50 0)"/>
       <use xlink:href="#SimHei-32" transform="translate(100 0)"/>
       <use xlink:href="#SimHei-30" transform="translate(150 0)"/>
      </g>
     </g>
    </g>
    <g id="ytick_3">
     <g id="line2d_23">
      <path d="M 90 283.744807 
L 648 283.744807 
" clip-path="url(#p5075ae7284)" style="fill: none; stroke: #b0b0b0; stroke-width: 0.8; stroke-linecap: square"/>
     </g>
     <g id="line2d_24">
      <g>
       <use xlink:href="#m43a3abac97" x="90" y="283.744807" style="stroke: #000000; stroke-width: 0.8"/>
      </g>
     </g>
     <g id="text_13">
      <!-- 0.25 -->
      <g transform="translate(63 287.182307) scale(0.1 -0.1)">
       <use xlink:href="#SimHei-30"/>
       <use xlink:href="#SimHei-2e" transform="translate(50 0)"/>
       <use xlink:href="#SimHei-32" transform="translate(100 0)"/>
       <use xlink:href="#SimHei-35" transform="translate(150 0)"/>
      </g>
     </g>
    </g>
    <g id="ytick_4">
     <g id="line2d_25">
      <path d="M 90 236.777196 
L 648 236.777196 
" clip-path="url(#p5075ae7284)" style="fill: none; stroke: #b0b0b0; stroke-width: 0.8; stroke-linecap: square"/>
     </g>
     <g id="line2d_26">
      <g>
       <use xlink:href="#m43a3abac97" x="90" y="236.777196" style="stroke: #000000; stroke-width: 0.8"/>
      </g>
     </g>
     <g id="text_14">
      <!-- 0.30 -->
      <g transform="translate(63 240.214696) scale(0.1 -0.1)">
       <defs>
        <path id="SimHei-33" d="M 250 1225 
L 700 1300 
Q 800 975 1025 762 
Q 1250 550 1587 562 
Q 1925 575 2125 837 
Q 2325 1100 2300 1437 
Q 2275 1775 2037 1962 
Q 1800 2150 1275 2225 
L 1275 2550 
Q 1800 2600 2037 2825 
Q 2275 3050 2250 3412 
Q 2225 3775 1925 3937 
Q 1625 4100 1287 3975 
Q 950 3850 750 3275 
L 300 3350 
Q 450 3800 712 4100 
Q 975 4400 1425 4450 
Q 1875 4500 2212 4337 
Q 2550 4175 2687 3837 
Q 2825 3500 2725 3100 
Q 2625 2700 2150 2400 
Q 2500 2250 2687 1950 
Q 2875 1650 2812 1162 
Q 2750 675 2375 375 
Q 2000 75 1525 87 
Q 1050 100 700 387 
Q 350 675 250 1225 
z
" transform="scale(0.015625)"/>
       </defs>
       <use xlink:href="#SimHei-30"/>
       <use xlink:href="#SimHei-2e" transform="translate(50 0)"/>
       <use xlink:href="#SimHei-33" transform="translate(100 0)"/>
       <use xlink:href="#SimHei-30" transform="translate(150 0)"/>
      </g>
     </g>
    </g>
    <g id="ytick_5">
     <g id="line2d_27">
      <path d="M 90 189.809585 
L 648 189.809585 
" clip-path="url(#p5075ae7284)" style="fill: none; stroke: #b0b0b0; stroke-width: 0.8; stroke-linecap: square"/>
     </g>
     <g id="line2d_28">
      <g>
       <use xlink:href="#m43a3abac97" x="90" y="189.809585" style="stroke: #000000; stroke-width: 0.8"/>
      </g>
     </g>
     <g id="text_15">
      <!-- 0.35 -->
      <g transform="translate(63 193.247085) scale(0.1 -0.1)">
       <use xlink:href="#SimHei-30"/>
       <use xlink:href="#SimHei-2e" transform="translate(50 0)"/>
       <use xlink:href="#SimHei-33" transform="translate(100 0)"/>
       <use xlink:href="#SimHei-35" transform="translate(150 0)"/>
      </g>
     </g>
    </g>
    <g id="ytick_6">
     <g id="line2d_29">
      <path d="M 90 142.841974 
L 648 142.841974 
" clip-path="url(#p5075ae7284)" style="fill: none; stroke: #b0b0b0; stroke-width: 0.8; stroke-linecap: square"/>
     </g>
     <g id="line2d_30">
      <g>
       <use xlink:href="#m43a3abac97" x="90" y="142.841974" style="stroke: #000000; stroke-width: 0.8"/>
      </g>
     </g>
     <g id="text_16">
      <!-- 0.40 -->
      <g transform="translate(63 146.279474) scale(0.1 -0.1)">
       <defs>
        <path id="SimHei-34" d="M 2000 1100 
L 75 1100 
L 75 1525 
L 2100 4450 
L 2475 4450 
L 2475 1525 
L 3075 1525 
L 3075 1100 
L 2475 1100 
L 2475 150 
L 2000 150 
L 2000 1100 
z
M 2000 1525 
L 2000 3500 
L 600 1525 
L 2000 1525 
z
" transform="scale(0.015625)"/>
       </defs>
       <use xlink:href="#SimHei-30"/>
       <use xlink:href="#SimHei-2e" transform="translate(50 0)"/>
       <use xlink:href="#SimHei-34" transform="translate(100 0)"/>
       <use xlink:href="#SimHei-30" transform="translate(150 0)"/>
      </g>
     </g>
    </g>
    <g id="ytick_7">
     <g id="line2d_31">
      <path d="M 90 95.874363 
L 648 95.874363 
" clip-path="url(#p5075ae7284)" style="fill: none; stroke: #b0b0b0; stroke-width: 0.8; stroke-linecap: square"/>
     </g>
     <g id="line2d_32">
      <g>
       <use xlink:href="#m43a3abac97" x="90" y="95.874363" style="stroke: #000000; stroke-width: 0.8"/>
      </g>
     </g>
     <g id="text_17">
      <!-- 0.45 -->
      <g transform="translate(63 99.311863) scale(0.1 -0.1)">
       <use xlink:href="#SimHei-30"/>
       <use xlink:href="#SimHei-2e" transform="translate(50 0)"/>
       <use xlink:href="#SimHei-34" transform="translate(100 0)"/>
       <use xlink:href="#SimHei-35" transform="translate(150 0)"/>
      </g>
     </g>
    </g>
    <g id="text_18">
     <!-- Loss -->
     <g transform="translate(57.75 228.16) rotate(-90) scale(0.1 -0.1)">
      <defs>
       <path id="SimHei-4c" d="M 2900 125 
L 300 125 
L 300 4400 
L 875 4400 
L 875 600 
L 2900 600 
L 2900 125 
z
" transform="scale(0.015625)"/>
       <path id="SimHei-73" d="M 2750 900 
Q 2750 500 2437 287 
Q 2125 75 1650 75 
Q 1050 75 725 312 
Q 400 550 400 1000 
L 900 1000 
Q 900 700 1112 600 
Q 1325 500 1625 500 
Q 1925 500 2075 612 
Q 2225 725 2225 900 
Q 2225 1025 2100 1150 
Q 1975 1275 1475 1350 
Q 900 1425 687 1637 
Q 475 1850 475 2200 
Q 475 2500 762 2737 
Q 1050 2975 1600 2975 
Q 2100 2975 2387 2750 
Q 2675 2525 2675 2150 
L 2175 2150 
Q 2175 2375 2012 2462 
Q 1850 2550 1600 2550 
Q 1275 2550 1137 2437 
Q 1000 2325 1000 2175 
Q 1000 2000 1125 1900 
Q 1250 1800 1650 1750 
Q 2300 1650 2525 1437 
Q 2750 1225 2750 900 
z
" transform="scale(0.015625)"/>
      </defs>
      <use xlink:href="#SimHei-4c"/>
      <use xlink:href="#SimHei-6f" transform="translate(50 0)"/>
      <use xlink:href="#SimHei-73" transform="translate(100 0)"/>
      <use xlink:href="#SimHei-73" transform="translate(150 0)"/>
     </g>
    </g>
   </g>
   <g id="line2d_33">
    <path d="M 115.363636 66.96 
L 115.6174 125.560677 
L 115.871163 138.677476 
L 116.378689 174.84231 
L 116.886216 191.346292 
L 117.139979 194.542686 
L 117.393742 199.506429 
L 117.647506 201.163172 
L 117.901269 201.141435 
L 118.155032 202.46828 
L 118.662559 207.794796 
L 118.916322 208.272673 
L 119.170085 209.972289 
L 119.423848 210.880754 
L 119.677612 214.894529 
L 119.931375 213.334744 
L 120.185138 214.82416 
L 120.438901 213.236894 
L 120.692665 216.582559 
L 120.946428 216.475108 
L 121.200191 218.236343 
L 121.453954 217.924308 
L 121.707717 220.19177 
L 121.961481 219.52813 
L 122.215244 222.147566 
L 122.469007 221.444576 
L 122.72277 224.041226 
L 123.230297 222.148921 
L 123.737823 223.130952 
L 123.991587 226.122172 
L 124.24535 226.965906 
L 124.499113 225.731036 
L 124.752876 225.065098 
L 125.00664 226.31695 
L 125.260403 225.376782 
L 125.514166 225.284554 
L 125.767929 226.009211 
L 126.021693 227.682083 
L 126.275456 225.84247 
L 126.529219 226.596798 
L 126.782982 226.167426 
L 127.290509 227.654957 
L 127.544272 230.003779 
L 127.798035 227.793543 
L 128.051799 229.447883 
L 128.305562 228.873497 
L 128.559325 227.484261 
L 129.066852 230.4987 
L 129.320615 230.397671 
L 129.574378 228.65231 
L 129.828141 230.002313 
L 130.081905 230.550108 
L 130.335668 229.827481 
L 130.589431 231.049774 
L 130.843194 230.037736 
L 131.096958 230.941947 
L 131.350721 231.255334 
L 131.604484 232.408576 
L 131.858247 231.152605 
L 132.112011 231.139692 
L 132.365774 232.53344 
L 132.619537 232.335684 
L 132.8733 231.96107 
L 133.127064 232.159999 
L 133.380827 230.236588 
L 133.63459 233.283183 
L 133.888353 233.11148 
L 134.142117 234.771352 
L 134.39588 233.725364 
L 134.903406 235.262404 
L 135.157169 233.555196 
L 135.410933 233.202836 
L 135.664696 235.688962 
L 135.918459 236.075873 
L 136.172222 235.716547 
L 136.425986 235.857696 
L 136.679749 234.921523 
L 136.933512 238.085743 
L 137.187275 235.915108 
L 137.694802 237.780688 
L 137.948565 237.250576 
L 138.202328 238.227056 
L 138.456092 237.282266 
L 138.709855 239.277594 
L 138.963618 238.972303 
L 139.217381 239.359431 
L 139.724908 238.392305 
L 139.978671 239.132206 
L 140.232434 239.366817 
L 140.486198 241.143656 
L 140.739961 240.694783 
L 140.993724 239.541552 
L 141.247487 241.529046 
L 141.501251 241.992253 
L 141.755014 241.871711 
L 142.008777 242.202928 
L 142.26254 242.10528 
L 142.516304 241.324147 
L 142.770067 242.894492 
L 143.02383 242.628757 
L 143.277593 242.944151 
L 143.531357 242.781699 
L 143.78512 243.708928 
L 144.038883 245.326995 
L 144.292646 244.288813 
L 144.54641 245.312621 
L 144.800173 244.790196 
L 145.053936 244.568969 
L 145.307699 245.523447 
L 145.561463 243.752016 
L 145.815226 245.755799 
L 146.322752 245.623285 
L 146.576516 245.100187 
L 146.830279 246.089203 
L 147.084042 246.547267 
L 147.337805 246.690839 
L 147.591569 247.690272 
L 147.845332 247.773227 
L 148.099095 247.491042 
L 148.352858 248.002432 
L 148.606621 249.171303 
L 148.860385 248.746725 
L 149.114148 249.795875 
L 149.367911 248.903231 
L 149.621674 249.379243 
L 149.875438 251.119667 
L 150.129201 250.933619 
L 150.382964 252.190072 
L 150.636727 251.680538 
L 150.890491 252.064214 
L 151.144254 253.627456 
L 151.398017 252.95706 
L 151.65178 252.975573 
L 151.905544 254.275464 
L 152.159307 253.885565 
L 152.41307 253.144562 
L 152.666833 255.264169 
L 152.920597 255.188497 
L 153.17436 255.558134 
L 153.428123 257.021626 
L 153.681886 255.788813 
L 153.93565 257.509117 
L 154.189413 256.162964 
L 154.443176 255.75629 
L 154.696939 258.334909 
L 154.950703 258.567218 
L 155.204466 257.036577 
L 155.711992 259.850872 
L 155.965756 259.546124 
L 156.473282 262.402499 
L 156.727045 260.641226 
L 156.980809 263.012025 
L 157.234572 263.268954 
L 157.488335 260.395097 
L 157.742098 262.858565 
L 157.995862 263.207452 
L 158.249625 261.014779 
L 158.503388 262.412493 
L 158.757151 265.75996 
L 159.010915 265.910658 
L 159.264678 265.408493 
L 159.518441 265.97673 
L 159.772204 266.845054 
L 160.279731 267.213824 
L 161.041021 268.432739 
L 161.294784 269.182784 
L 161.548547 268.590705 
L 162.056073 269.770175 
L 162.309837 272.03053 
L 162.5636 271.810291 
L 162.817363 272.55722 
L 163.071126 271.223223 
L 163.32489 271.869393 
L 163.578653 273.003029 
L 163.832416 272.340221 
L 164.086179 274.65362 
L 164.339943 273.676353 
L 164.593706 274.807869 
L 164.847469 274.467581 
L 165.101232 276.469088 
L 165.354996 276.475893 
L 165.608759 278.067867 
L 166.116285 276.885175 
L 166.370049 278.995884 
L 166.623812 279.526951 
L 166.877575 278.610402 
L 167.131338 278.458103 
L 167.385102 278.456143 
L 167.638865 280.379867 
L 167.892628 280.810861 
L 168.146391 278.743932 
L 168.400155 283.015479 
L 168.653918 282.950097 
L 168.907681 280.887227 
L 169.161444 283.457452 
L 169.415208 281.868671 
L 169.668971 284.045136 
L 170.176497 283.302593 
L 170.430261 283.542754 
L 170.684024 284.843015 
L 170.937787 285.022297 
L 171.19155 283.739768 
L 171.445314 285.523473 
L 171.699077 286.118081 
L 171.95284 287.164874 
L 172.206603 287.088001 
L 172.460367 288.370475 
L 172.71413 286.80162 
L 172.967893 286.946762 
L 173.221656 284.54593 
L 173.729183 290.600895 
L 173.982946 287.402353 
L 174.490473 290.252926 
L 174.744236 288.157723 
L 174.997999 290.043805 
L 175.251762 289.433496 
L 175.505525 289.719852 
L 175.759289 292.224001 
L 176.013052 291.980409 
L 176.266815 292.357638 
L 176.774342 290.338911 
L 177.028105 291.641842 
L 177.281868 292.126391 
L 177.535631 292.105224 
L 177.789395 292.251806 
L 178.043158 293.853246 
L 178.296921 292.325788 
L 178.550684 295.032772 
L 178.804448 294.049855 
L 179.058211 294.82551 
L 179.565737 294.405534 
L 179.819501 291.438579 
L 180.073264 295.055457 
L 180.327027 293.121183 
L 180.834554 297.078143 
L 181.088317 297.34099 
L 181.849607 296.178018 
L 182.10337 298.44238 
L 182.357133 296.979262 
L 182.610896 297.60811 
L 182.86466 298.994807 
L 183.118423 297.971766 
L 183.372186 298.962281 
L 183.625949 298.027802 
L 183.879713 297.634845 
L 184.387239 298.747019 
L 184.641002 299.834912 
L 184.894766 298.599263 
L 185.148529 301.916732 
L 185.402292 298.266903 
L 186.163582 301.762837 
L 186.417345 299.740799 
L 186.924872 300.589406 
L 187.178635 299.113222 
L 187.432398 300.760312 
L 187.686161 301.462788 
L 187.939925 301.385434 
L 188.193688 302.69513 
L 188.447451 302.638742 
L 188.701214 302.986657 
L 188.954977 301.657089 
L 189.208741 303.809171 
L 189.462504 303.655322 
L 189.716267 300.049274 
L 189.97003 302.654869 
L 190.223794 303.292843 
L 190.477557 303.496485 
L 190.73132 302.239848 
L 191.238847 305.851989 
L 191.49261 304.503685 
L 191.746373 304.504013 
L 192.000136 306.816539 
L 192.2539 302.94401 
L 192.761426 306.569312 
L 193.015189 304.42175 
L 193.268953 306.063627 
L 193.776479 303.697759 
L 194.284006 305.838258 
L 194.537769 304.611541 
L 194.791532 307.373802 
L 195.045295 307.106366 
L 195.299059 307.032643 
L 195.806585 309.150553 
L 196.060348 305.665513 
L 196.314112 305.99779 
L 196.567875 307.331893 
L 196.821638 310.20318 
L 197.075401 308.894001 
L 197.329165 308.860018 
L 197.582928 309.037198 
L 197.836691 308.530209 
L 198.090454 309.121301 
L 198.597981 310.797877 
L 199.105507 308.875503 
L 199.359271 310.561286 
L 199.613034 313.05512 
L 199.866797 312.284076 
L 200.12056 312.390431 
L 200.374324 311.438298 
L 200.628087 311.856794 
L 200.88185 313.196854 
L 201.135613 311.448385 
L 201.389377 314.478668 
L 201.64314 312.615465 
L 201.896903 314.091834 
L 202.150666 312.55864 
L 202.658193 314.873053 
L 202.911956 312.569443 
L 203.165719 316.120099 
L 203.419482 315.649105 
L 203.673246 313.403777 
L 203.927009 313.508346 
L 204.180772 315.577308 
L 204.434535 316.628459 
L 204.688299 315.041013 
L 204.942062 316.891735 
L 205.195825 317.319214 
L 205.449588 315.226855 
L 205.703352 316.974006 
L 205.957115 314.304629 
L 206.210878 317.791989 
L 206.464641 317.287011 
L 206.718405 318.540026 
L 206.972168 313.627528 
L 207.225931 318.822824 
L 207.479694 319.00662 
L 207.733458 318.709395 
L 207.987221 318.098032 
L 208.240984 318.668745 
L 208.748511 320.372489 
L 209.002274 319.917498 
L 209.256037 319.962118 
L 209.5098 321.18646 
L 210.017327 319.0699 
L 210.27109 322.261958 
L 210.524853 319.292258 
L 210.778617 322.428859 
L 211.03238 322.149507 
L 211.286143 322.44684 
L 211.539906 321.877878 
L 211.79367 323.283645 
L 212.047433 321.714544 
L 212.301196 321.422321 
L 212.554959 322.761698 
L 212.808723 321.586314 
L 213.062486 322.347531 
L 213.316249 322.578304 
L 213.570012 322.999649 
L 214.331302 319.45336 
L 214.585065 321.017964 
L 214.838829 320.847794 
L 215.092592 324.734591 
L 215.346355 321.908204 
L 215.600118 325.103242 
L 215.853881 323.010159 
L 216.107645 323.036861 
L 216.361408 326.456725 
L 216.615171 323.690117 
L 216.868934 326.482473 
L 217.122698 326.595281 
L 217.376461 324.193898 
L 217.630224 326.757257 
L 217.883987 327.325907 
L 218.137751 327.053179 
L 218.391514 326.241254 
L 218.645277 326.466287 
L 218.89904 324.315216 
L 219.152804 326.795456 
L 219.406567 326.20811 
L 219.66033 326.845848 
L 219.914093 321.982946 
L 220.167857 326.463732 
L 220.42162 327.608289 
L 220.675383 330.368663 
L 220.929146 326.695251 
L 221.18291 327.45271 
L 221.436673 327.708219 
L 221.690436 325.865356 
L 221.944199 328.058356 
L 222.197963 327.53491 
L 222.451726 327.333339 
L 222.705489 328.139963 
L 223.213016 327.022505 
L 223.466779 328.416484 
L 223.720542 327.048054 
L 223.974305 331.276677 
L 224.481832 327.626023 
L 224.735595 329.806533 
L 224.989358 329.971007 
L 225.496885 327.905818 
L 225.750648 331.578021 
L 226.004411 328.912615 
L 226.511938 331.515364 
L 226.765701 328.866674 
L 227.019464 329.020491 
L 227.273228 331.479569 
L 227.526991 329.928289 
L 227.780754 331.18204 
L 228.034517 331.560052 
L 228.288281 332.401755 
L 228.542044 329.478753 
L 228.795807 330.022639 
L 229.04957 331.857238 
L 229.303333 332.161956 
L 229.557097 331.793982 
L 229.81086 332.545931 
L 230.064623 332.035973 
L 230.318386 330.706282 
L 230.825913 333.508016 
L 231.079676 333.198589 
L 231.333439 335.351583 
L 231.587203 331.930518 
L 231.840966 334.099929 
L 232.094729 333.084285 
L 232.348492 334.379448 
L 232.602256 332.318348 
L 232.856019 331.342737 
L 233.109782 334.664657 
L 233.363545 332.026917 
L 233.617309 335.001075 
L 233.871072 330.988476 
L 234.124835 331.384663 
L 234.378598 334.495304 
L 234.632362 334.810847 
L 234.886125 333.355245 
L 235.139888 336.692653 
L 235.393651 332.25153 
L 235.647415 333.527489 
L 235.901178 335.451863 
L 236.154941 336.227226 
L 236.408704 334.588904 
L 236.662468 336.913578 
L 237.169994 334.867992 
L 237.677521 336.456509 
L 237.931284 334.27276 
L 238.185047 334.188165 
L 238.43881 334.978542 
L 238.946337 337.294456 
L 239.2001 334.901484 
L 239.453863 336.734088 
L 239.707627 335.782531 
L 239.96139 337.26409 
L 240.215153 337.535845 
L 240.468916 336.379766 
L 240.72268 336.980747 
L 240.976443 336.639577 
L 241.230206 336.888304 
L 241.483969 335.05392 
L 241.737733 335.932703 
L 241.991496 338.403399 
L 242.245259 339.254771 
L 242.499022 338.272946 
L 242.752785 335.081009 
L 243.006549 338.910995 
L 243.260312 335.359908 
L 243.514075 339.205181 
L 243.767838 337.905567 
L 244.021602 339.318302 
L 244.275365 337.539103 
L 244.529128 337.243697 
L 245.036655 337.513377 
L 245.290418 336.448714 
L 245.797944 338.07445 
L 246.051708 337.362608 
L 246.305471 337.901725 
L 246.559234 334.328686 
L 246.812997 339.697196 
L 247.066761 336.738059 
L 247.574287 340.113558 
L 247.82805 340.935689 
L 248.081814 337.95276 
L 248.335577 338.122587 
L 248.58934 341.377198 
L 248.843103 337.354778 
L 249.096867 338.180009 
L 249.35063 339.853242 
L 249.604393 337.591657 
L 249.858156 340.230902 
L 250.11192 339.025627 
L 250.365683 340.285812 
L 251.126973 338.49728 
L 251.634499 339.494364 
L 251.888262 338.087908 
L 252.142026 338.92174 
L 252.395789 340.188321 
L 252.649552 340.420046 
L 252.903315 338.736991 
L 253.410842 340.048704 
L 253.664605 342.029174 
L 253.918368 340.894116 
L 254.172132 340.765966 
L 254.425895 340.249153 
L 254.679658 340.809966 
L 254.933421 339.229032 
L 255.187185 339.911731 
L 255.440948 339.759121 
L 255.694711 342.30265 
L 255.948474 342.059449 
L 256.202237 340.728208 
L 256.456001 340.469628 
L 256.709764 338.836605 
L 256.963527 340.45544 
L 257.21729 342.992573 
L 257.471054 340.617526 
L 257.724817 340.18403 
L 257.97858 340.222227 
L 258.232343 342.201849 
L 258.486107 340.422252 
L 258.73987 339.903215 
L 258.993633 342.420269 
L 259.247396 340.949776 
L 259.50116 341.482542 
L 259.754923 342.836966 
L 260.008686 341.018391 
L 260.262449 342.739439 
L 260.516213 342.917193 
L 260.769976 342.818667 
L 261.023739 343.091602 
L 261.277502 342.611089 
L 261.531266 343.529443 
L 261.785029 341.880839 
L 262.038792 341.828859 
L 262.292555 341.010627 
L 262.546319 343.42727 
L 262.800082 341.405085 
L 263.053845 342.31728 
L 263.307608 342.805947 
L 263.561372 342.353126 
L 263.815135 342.757787 
L 264.068898 340.761501 
L 264.322661 342.303087 
L 264.576425 342.860007 
L 264.830188 344.412209 
L 265.083951 344.430334 
L 265.337714 342.509165 
L 265.591478 343.585538 
L 265.845241 341.035276 
L 266.099004 342.373253 
L 266.352767 344.924067 
L 266.860294 344.185347 
L 267.621584 341.433491 
L 267.875347 344.878782 
L 268.12911 343.917081 
L 268.382873 346.15386 
L 268.636637 343.246563 
L 268.8904 345.260621 
L 269.144163 342.614702 
L 269.397926 346.787512 
L 269.651689 344.435547 
L 269.905453 344.477801 
L 270.412979 342.733205 
L 270.666742 345.798806 
L 270.920506 342.815999 
L 271.174269 341.381682 
L 271.428032 343.004951 
L 271.681795 341.281181 
L 271.935559 346.10459 
L 272.189322 343.896244 
L 272.443085 344.484648 
L 272.696848 345.474964 
L 272.950612 344.692682 
L 273.204375 345.095841 
L 273.458138 346.219263 
L 273.965665 343.510056 
L 274.219428 343.701975 
L 274.473191 345.146859 
L 274.726954 345.878033 
L 274.980718 344.679501 
L 275.234481 345.898487 
L 275.488244 346.051496 
L 275.742007 344.712045 
L 275.995771 346.794888 
L 276.249534 343.216056 
L 276.503297 346.60148 
L 276.75706 348.041963 
L 277.010824 346.199637 
L 277.264587 346.222631 
L 277.51835 346.829879 
L 277.772113 343.691125 
L 278.025877 345.846552 
L 278.533403 347.115548 
L 278.787166 344.42256 
L 279.294693 347.087595 
L 279.548456 344.892341 
L 279.802219 345.33029 
L 280.055983 344.121625 
L 280.309746 343.643468 
L 280.563509 346.601696 
L 280.817272 344.973399 
L 281.071036 345.415372 
L 281.324799 347.941029 
L 281.578562 344.578896 
L 281.832325 346.779446 
L 282.086088 346.699302 
L 282.339852 346.045121 
L 282.847378 345.445457 
L 283.101141 348.040218 
L 283.354905 345.7426 
L 283.608668 345.451068 
L 283.862431 345.334161 
L 284.116194 344.005357 
L 284.369958 345.210366 
L 284.623721 345.577672 
L 284.877484 346.259676 
L 285.131247 347.506224 
L 285.385011 345.704444 
L 285.892537 346.714558 
L 286.1463 344.996134 
L 286.400064 348.201613 
L 286.653827 347.733655 
L 286.90759 347.937718 
L 287.161353 344.337244 
L 287.415117 345.863581 
L 287.66888 344.962995 
L 287.922643 346.78189 
L 288.176406 346.04502 
L 288.43017 347.666709 
L 288.683933 347.516701 
L 288.937696 346.107594 
L 289.445223 346.765657 
L 289.698986 348.535124 
L 290.206512 346.087014 
L 290.460276 347.261827 
L 290.714039 346.375549 
L 290.967802 349.250248 
L 291.221565 347.25944 
L 291.729092 347.58862 
L 292.236618 346.543597 
L 292.490382 347.376135 
L 292.744145 348.651269 
L 293.251671 346.300659 
L 293.505435 346.789719 
L 293.759198 348.474586 
L 294.012961 347.406641 
L 294.266724 347.105958 
L 294.520488 348.557129 
L 295.028014 345.738358 
L 295.281777 346.055937 
L 295.53554 347.739251 
L 295.789304 346.62169 
L 296.043067 349.395974 
L 296.29683 346.754941 
L 296.550593 347.470805 
L 296.804357 346.361727 
L 297.05812 348.457527 
L 297.311883 347.351924 
L 297.565646 348.803608 
L 297.81941 348.769492 
L 298.073173 346.453525 
L 298.580699 348.803563 
L 298.834463 348.831525 
L 299.088226 347.210943 
L 299.341989 347.643112 
L 299.595752 347.384564 
L 299.849516 346.17282 
L 300.103279 347.722008 
L 300.357042 347.933701 
L 300.610805 348.991202 
L 300.864569 348.867538 
L 301.118332 348.137924 
L 301.372095 347.857386 
L 301.625858 348.401143 
L 301.879622 349.672532 
L 302.133385 347.847901 
L 302.387148 350.190205 
L 302.640911 350.430776 
L 302.894675 349.249146 
L 303.148438 349.852382 
L 303.402201 348.830118 
L 303.655964 348.436579 
L 303.909728 347.727292 
L 304.163491 349.757536 
L 304.417254 350.300913 
L 304.671017 350.226885 
L 305.178544 349.463493 
L 305.68607 350.441774 
L 305.939834 351.201314 
L 306.193597 350.705635 
L 306.44736 347.807814 
L 306.701123 350.339713 
L 306.954887 349.183886 
L 307.20865 350.896942 
L 307.462413 350.535189 
L 307.716176 351.018676 
L 307.96994 350.122016 
L 308.223703 350.378359 
L 308.477466 349.46313 
L 308.731229 347.900956 
L 308.984992 350.383663 
L 309.238756 350.635667 
L 309.492519 349.885943 
L 309.746282 352.321824 
L 310.000045 350.171966 
L 310.253809 349.560725 
L 310.507572 350.415707 
L 310.761335 350.178468 
L 311.015098 351.303437 
L 311.268862 351.284215 
L 311.522625 350.039656 
L 311.776388 350.557245 
L 312.030151 348.731852 
L 312.283915 351.045533 
L 312.537678 349.370381 
L 312.791441 352.119145 
L 313.045204 350.502201 
L 313.298968 350.652647 
L 313.552731 351.173193 
L 313.806494 350.517703 
L 314.060257 351.702649 
L 314.314021 350.917196 
L 314.567784 351.923216 
L 315.07531 350.402869 
L 315.329074 351.654847 
L 316.090363 351.962862 
L 316.344127 352.791578 
L 316.59789 350.660326 
L 316.851653 350.49894 
L 317.105416 352.50476 
L 317.35918 351.949986 
L 317.612943 351.987471 
L 317.866706 353.400106 
L 318.120469 352.771073 
L 318.374233 351.459985 
L 318.627996 352.035984 
L 318.881759 350.062439 
L 319.135522 352.142493 
L 319.389286 350.5823 
L 319.643049 352.681855 
L 319.896812 352.808036 
L 320.150575 351.183545 
L 320.404339 353.350361 
L 320.658102 353.63858 
L 320.911865 351.259362 
L 321.419392 353.558056 
L 321.673155 350.047168 
L 321.926918 353.533137 
L 322.180681 352.206909 
L 322.434444 353.083805 
L 322.941971 350.993259 
L 323.195734 352.931216 
L 323.449497 352.705429 
L 323.703261 352.942993 
L 323.957024 353.514371 
L 324.210787 352.710579 
L 324.46455 350.936262 
L 324.718314 353.534091 
L 324.972077 352.347649 
L 325.22584 354.158655 
L 325.479603 353.481346 
L 325.733367 353.493662 
L 325.98713 352.347226 
L 326.240893 352.151911 
L 326.494656 353.04465 
L 326.74842 352.368208 
L 327.002183 352.185682 
L 327.255946 353.788408 
L 327.509709 352.864387 
L 327.763473 353.679994 
L 328.017236 352.275646 
L 328.524762 354.715154 
L 328.778526 353.072301 
L 329.032289 353.704668 
L 329.286052 351.903524 
L 329.793579 352.767726 
L 330.047342 353.521964 
L 330.301105 352.042788 
L 330.554868 353.30702 
L 330.808632 353.575234 
L 331.062395 354.143413 
L 331.316158 354.417809 
L 331.569921 353.355647 
L 331.823685 353.350181 
L 332.077448 353.954567 
L 332.331211 350.30457 
L 332.584974 354.138208 
L 332.838738 352.85609 
L 333.092501 352.962121 
L 333.346264 354.377249 
L 333.600027 353.582353 
L 333.853791 354.8562 
L 334.107554 351.836364 
L 334.361317 354.601911 
L 334.61508 354.961017 
L 334.868844 353.063444 
L 335.122607 353.943922 
L 335.37637 352.707163 
L 335.630133 354.202185 
L 335.883896 353.401792 
L 336.13766 353.535053 
L 336.391423 354.558129 
L 336.645186 354.357085 
L 336.898949 355.114512 
L 337.152713 355.019255 
L 337.406476 353.782421 
L 337.660239 353.691592 
L 337.914002 354.423795 
L 338.167766 353.220471 
L 338.421529 353.667292 
L 338.675292 353.605604 
L 338.929055 353.237767 
L 339.182819 354.3533 
L 339.436582 354.293294 
L 339.690345 355.263484 
L 339.944108 354.673196 
L 340.197872 355.121646 
L 340.451635 353.801874 
L 340.959161 354.501585 
L 341.212925 352.264398 
L 341.466688 354.604495 
L 341.720451 353.877886 
L 341.974214 355.869382 
L 342.227978 353.87916 
L 342.481741 354.749149 
L 342.735504 353.701753 
L 342.989267 354.269486 
L 343.243031 353.916123 
L 343.496794 355.912022 
L 343.750557 354.632656 
L 344.00432 354.588021 
L 344.258084 354.106661 
L 344.511847 354.484973 
L 344.76561 353.726569 
L 345.019373 355.261224 
L 345.5269 353.379258 
L 346.034426 355.119546 
L 346.541953 355.633085 
L 346.795716 356.155008 
L 347.049479 355.729065 
L 347.303243 353.351557 
L 347.557006 354.296465 
L 347.810769 354.660036 
L 348.064532 353.822794 
L 348.318296 354.795832 
L 348.572059 355.178084 
L 348.825822 353.15813 
L 349.079585 355.526898 
L 349.333348 355.196684 
L 349.587112 356.848294 
L 349.840875 354.529155 
L 350.348401 354.046328 
L 350.855928 356.723762 
L 351.363454 354.734096 
L 351.617218 355.94388 
L 351.870981 354.48574 
L 352.124744 354.953077 
L 352.378507 357.014216 
L 352.632271 354.919472 
L 352.886034 355.098697 
L 353.139797 354.565004 
L 353.647324 355.658006 
L 353.901087 355.094394 
L 354.15485 355.311427 
L 354.408613 356.935515 
L 354.662377 356.514286 
L 354.91614 355.137303 
L 355.169903 355.408327 
L 355.423666 357.14546 
L 355.931193 354.198605 
L 356.184956 354.978149 
L 356.438719 356.164656 
L 356.692483 356.380237 
L 356.946246 354.896041 
L 357.200009 356.531347 
L 357.453772 355.141553 
L 357.707536 355.894128 
L 357.961299 355.416256 
L 358.215062 354.686516 
L 358.722589 356.669974 
L 358.976352 356.058735 
L 359.230115 357.705415 
L 359.483878 355.915594 
L 359.737642 356.788404 
L 359.991405 356.461096 
L 360.245168 356.675696 
L 360.498931 356.565953 
L 360.752695 357.509061 
L 361.006458 356.496312 
L 361.260221 356.753722 
L 361.513984 356.621808 
L 361.767748 357.234368 
L 362.021511 356.682495 
L 362.275274 356.791761 
L 362.529037 354.519876 
L 362.7828 357.572698 
L 363.036564 355.600485 
L 363.54409 357.168821 
L 363.797853 356.184123 
L 364.051617 357.09659 
L 364.30538 357.13968 
L 364.559143 354.996452 
L 364.812906 355.938928 
L 365.320433 356.954645 
L 365.574196 355.420677 
L 365.827959 356.708475 
L 366.081723 356.931687 
L 366.589249 357.688346 
L 366.843012 356.633404 
L 367.350539 355.582805 
L 367.604302 357.020098 
L 367.858065 354.637807 
L 368.111829 355.937077 
L 368.365592 356.145234 
L 368.619355 357.77975 
L 368.873118 356.776025 
L 369.126882 356.949085 
L 369.380645 356.976985 
L 369.634408 355.822279 
L 369.888171 357.915574 
L 370.141935 357.073951 
L 370.649461 356.175609 
L 370.903224 357.833844 
L 371.156988 356.426853 
L 371.410751 356.82954 
L 371.664514 356.668011 
L 371.918277 357.219729 
L 372.172041 356.286026 
L 372.425804 357.313491 
L 372.679567 357.682838 
L 372.93333 357.206303 
L 373.187094 357.336802 
L 373.440857 358.861491 
L 373.69462 355.458317 
L 373.948383 356.710408 
L 374.202147 356.455039 
L 374.45591 358.343674 
L 374.709673 358.860545 
L 374.963436 357.702536 
L 375.2172 357.768077 
L 375.470963 358.339847 
L 375.724726 356.805187 
L 375.978489 357.537726 
L 376.232252 357.846546 
L 376.486016 357.650285 
L 376.739779 357.784228 
L 376.993542 356.868015 
L 377.247305 358.077914 
L 377.754832 356.39609 
L 378.008595 357.505015 
L 378.262358 357.997457 
L 378.516122 356.251233 
L 378.769885 357.312597 
L 379.023648 357.144533 
L 379.277411 356.426717 
L 379.531175 356.387871 
L 379.784938 358.505051 
L 380.038701 359.038046 
L 380.292464 357.303155 
L 380.546228 359.532233 
L 380.799991 358.965462 
L 381.053754 357.332321 
L 381.307517 357.237636 
L 381.561281 358.494182 
L 381.815044 356.733587 
L 382.32257 357.577232 
L 382.576334 357.101963 
L 382.830097 358.713274 
L 383.337623 357.265266 
L 383.591387 357.550898 
L 384.098913 359.17674 
L 384.352676 357.935853 
L 384.60644 358.771438 
L 384.860203 357.669585 
L 385.113966 357.777085 
L 385.367729 356.211098 
L 385.621493 357.934946 
L 385.875256 358.441652 
L 386.129019 357.409429 
L 386.382782 358.043637 
L 386.636546 358.239616 
L 386.890309 357.46231 
L 387.397835 359.682813 
L 387.905362 358.735379 
L 388.159125 358.845863 
L 388.412888 359.250163 
L 388.666652 357.764314 
L 388.920415 358.36592 
L 389.174178 358.001815 
L 389.427941 358.066517 
L 389.681704 358.618943 
L 389.935468 357.852418 
L 390.189231 357.890087 
L 390.442994 358.138584 
L 390.696757 359.137903 
L 390.950521 358.109987 
L 391.204284 358.358003 
L 391.458047 357.872524 
L 391.965574 359.000538 
L 392.219337 358.905021 
L 392.4731 358.301611 
L 392.726863 356.903351 
L 393.23439 358.489227 
L 393.488153 358.230596 
L 393.741916 358.593424 
L 394.249443 358.354901 
L 394.503206 360.367888 
L 394.756969 357.687635 
L 395.010733 358.799514 
L 395.264496 358.00398 
L 395.518259 358.246823 
L 395.772022 359.42439 
L 396.025786 358.779227 
L 396.279549 359.373239 
L 396.533312 358.571857 
L 396.787075 358.247353 
L 397.040839 358.574948 
L 397.294602 358.235112 
L 397.548365 358.095719 
L 397.802128 358.885096 
L 398.055892 359.105484 
L 398.309655 359.094938 
L 398.563418 360.223089 
L 399.070945 358.067857 
L 399.324708 359.307976 
L 399.578471 358.869414 
L 399.832234 358.930034 
L 400.339761 358.243745 
L 400.593524 360.929852 
L 400.847287 358.209638 
L 401.101051 357.893363 
L 401.354814 359.438577 
L 401.608577 358.705613 
L 401.86234 360.080539 
L 402.116104 357.906579 
L 402.369867 357.721645 
L 402.877393 360.017242 
L 403.131156 360.210805 
L 403.38492 358.461012 
L 403.638683 358.297395 
L 404.146209 357.315431 
L 404.399973 359.214203 
L 404.653736 359.571807 
L 404.907499 358.776628 
L 405.161262 360.831349 
L 405.415026 358.375188 
L 405.668789 358.364385 
L 405.922552 358.667875 
L 406.176315 358.532191 
L 406.430079 359.313688 
L 406.683842 359.080323 
L 406.937605 359.581753 
L 407.191368 358.725183 
L 407.445132 360.093292 
L 407.698895 359.226039 
L 408.206421 360.008005 
L 408.460185 359.196378 
L 408.713948 360.164046 
L 409.221474 358.539048 
L 409.475238 360.190526 
L 409.729001 358.098474 
L 409.982764 360.308503 
L 410.236527 359.839737 
L 410.490291 358.437547 
L 410.744054 359.550419 
L 410.997817 358.206537 
L 411.25158 358.30701 
L 411.759107 359.730714 
L 412.266633 359.16603 
L 412.520397 360.526511 
L 412.77416 359.629768 
L 413.027923 359.566201 
L 413.281686 357.534469 
L 413.53545 358.279706 
L 413.789213 360.334734 
L 414.042976 360.464663 
L 414.296739 360.046634 
L 414.550503 359.173333 
L 414.804266 358.789396 
L 415.058029 360.306069 
L 415.311792 360.307473 
L 415.565556 358.580575 
L 415.819319 359.968482 
L 416.073082 359.220689 
L 416.326845 358.906494 
L 416.580608 359.548389 
L 416.834372 359.149133 
L 417.088135 359.544727 
L 417.341898 358.327462 
L 417.595661 360.399676 
L 417.849425 359.639357 
L 418.103188 359.350962 
L 418.356951 359.48346 
L 418.610714 360.229761 
L 418.864478 360.27266 
L 419.118241 358.749081 
L 419.372004 358.461011 
L 419.625767 361.791949 
L 419.879531 359.908121 
L 420.133294 361.098601 
L 420.387057 361.754546 
L 420.64082 359.314859 
L 421.148347 360.305959 
L 421.40211 361.145897 
L 421.655873 359.2555 
L 421.909637 360.365821 
L 422.1634 359.599706 
L 422.670926 360.72149 
L 422.92469 359.688101 
L 423.178453 361.146159 
L 423.432216 360.283118 
L 423.685979 360.359984 
L 423.939743 358.901518 
L 424.193506 359.717852 
L 424.447269 359.757793 
L 424.701032 359.600274 
L 424.954796 361.771591 
L 425.208559 360.489155 
L 425.462322 359.986564 
L 425.716085 361.074179 
L 425.969849 359.148936 
L 426.223612 359.553292 
L 426.477375 361.269016 
L 426.731138 360.440221 
L 426.984902 361.440193 
L 427.238665 359.851797 
L 427.492428 360.350893 
L 427.746191 359.351844 
L 427.999955 359.790461 
L 428.253718 359.650239 
L 428.507481 360.670366 
L 428.761244 360.185393 
L 429.015008 360.83305 
L 429.522534 359.966766 
L 429.776297 360.450983 
L 430.03006 360.386339 
L 430.283824 360.171767 
L 430.537587 361.3897 
L 430.79135 359.869033 
L 431.045113 361.183698 
L 431.298877 358.465421 
L 431.55264 360.822964 
L 431.806403 360.504157 
L 432.060166 361.238723 
L 432.31393 360.940224 
L 432.567693 361.671862 
L 432.821456 360.023326 
L 433.075219 361.825941 
L 433.328983 361.850393 
L 433.582746 362.663833 
L 433.836509 361.640371 
L 434.090272 359.925439 
L 434.344036 359.899676 
L 434.597799 360.713326 
L 434.851562 360.078825 
L 435.105325 358.689402 
L 435.359089 359.185757 
L 435.612852 358.971166 
L 435.866615 359.907147 
L 436.120378 360.240005 
L 436.374142 361.016344 
L 436.627905 360.010318 
L 436.881668 361.180428 
L 437.135431 359.984675 
L 437.389195 361.295844 
L 437.642958 359.54434 
L 437.896721 361.176863 
L 438.150484 361.095049 
L 438.404248 360.186076 
L 438.658011 360.837646 
L 438.911774 360.778642 
L 439.165537 360.554761 
L 439.419301 360.944006 
L 439.673064 360.546652 
L 439.926827 360.384634 
L 440.18059 361.342126 
L 440.434354 361.851082 
L 440.94188 360.416469 
L 441.195643 360.413248 
L 441.449407 360.538115 
L 441.70317 362.148055 
L 441.956933 360.951377 
L 442.210696 361.453403 
L 442.46446 361.523385 
L 442.718223 361.852222 
L 443.225749 361.127184 
L 443.733276 360.174263 
L 443.987039 362.115633 
L 444.240802 360.88352 
L 444.494565 361.200032 
L 444.748329 362.574918 
L 445.002092 362.810237 
L 445.255855 360.994666 
L 445.509618 360.461287 
L 445.763382 361.406783 
L 446.017145 361.276039 
L 446.270908 361.336457 
L 446.524671 362.605104 
L 446.778435 361.544321 
L 447.032198 361.371297 
L 447.285961 361.841028 
L 447.539724 359.903328 
L 447.793488 361.378838 
L 448.047251 360.746708 
L 448.301014 362.007636 
L 448.554777 361.39494 
L 448.808541 362.1489 
L 449.062304 359.412836 
L 449.56983 361.681871 
L 449.823594 361.568006 
L 450.077357 361.092809 
L 450.33112 359.594744 
L 450.584883 361.745011 
L 450.838647 362.166898 
L 451.09241 361.043066 
L 451.346173 361.5447 
L 451.599936 362.52546 
L 451.8537 362.019121 
L 452.107463 361.01937 
L 452.361226 361.200196 
L 452.614989 362.62406 
L 452.868753 360.807802 
L 453.376279 361.262774 
L 453.630042 362.584181 
L 454.137569 361.194952 
L 454.645095 362.4964 
L 454.898859 360.619657 
L 455.152622 362.988184 
L 455.406385 361.400831 
L 455.660148 362.362002 
L 455.913912 361.51485 
L 456.167675 362.004974 
L 456.421438 362.011075 
L 456.675201 362.856181 
L 456.928964 363.060282 
L 457.182728 362.266762 
L 457.436491 362.082637 
L 457.690254 360.098494 
L 457.944017 362.276528 
L 458.197781 361.921181 
L 458.451544 361.242396 
L 458.705307 362.899164 
L 458.95907 361.235664 
L 459.212834 363.178921 
L 459.466597 360.921224 
L 459.72036 362.192145 
L 459.974123 361.024011 
L 460.227887 363.554115 
L 460.48165 363.256411 
L 460.735413 361.359861 
L 460.989176 362.612961 
L 461.24294 361.240705 
L 461.496703 362.637583 
L 461.750466 361.468888 
L 462.004229 362.677609 
L 462.257993 360.753257 
L 462.765519 363.109567 
L 463.019282 361.674324 
L 463.273046 363.226928 
L 463.526809 361.69379 
L 463.780572 363.682035 
L 464.034335 363.638676 
L 464.288099 362.885157 
L 464.541862 361.144774 
L 464.795625 360.785857 
L 465.810678 363.642899 
L 466.064441 361.95619 
L 466.318205 363.077361 
L 466.571968 363.080263 
L 467.079494 361.030356 
L 467.333258 360.50611 
L 467.587021 360.936801 
L 467.840784 361.755151 
L 468.094547 364.008299 
L 468.348311 362.164715 
L 468.602074 362.301325 
L 468.855837 361.848411 
L 469.1096 362.209695 
L 469.363363 360.615072 
L 469.617127 361.334968 
L 469.87089 363.144177 
L 470.124653 363.866878 
L 470.378416 362.040208 
L 470.63218 362.337072 
L 470.885943 363.004863 
L 471.139706 362.081006 
L 471.393469 363.078188 
L 471.647233 362.091904 
L 471.900996 363.345072 
L 472.154759 362.247426 
L 472.408522 362.295068 
L 472.662286 361.484923 
L 472.916049 363.064064 
L 473.169812 361.592385 
L 473.677339 363.149259 
L 473.931102 361.114603 
L 474.184865 362.439285 
L 474.438628 362.789629 
L 474.692392 363.350895 
L 474.946155 361.987587 
L 475.199918 363.254434 
L 475.453681 363.36548 
L 475.707445 362.140264 
L 475.961208 362.090343 
L 476.468734 363.328466 
L 476.722498 363.396463 
L 476.976261 362.028035 
L 477.230024 364.249982 
L 477.483787 363.390918 
L 477.737551 364.323124 
L 477.991314 363.65802 
L 478.49884 362.902257 
L 478.752604 361.327261 
L 479.006367 363.244139 
L 479.26013 363.545004 
L 479.513893 362.307677 
L 479.767657 363.786346 
L 480.02142 364.01676 
L 480.275183 364.830702 
L 480.528946 364.189208 
L 481.036473 361.64522 
L 481.290236 362.715907 
L 481.543999 364.92106 
L 481.797763 362.402098 
L 482.051526 362.784116 
L 482.305289 362.563319 
L 482.559052 362.681923 
L 482.812815 363.014332 
L 483.066579 364.479781 
L 483.320342 362.882207 
L 483.574105 362.758829 
L 484.081632 365.162255 
L 484.335395 363.408397 
L 484.589158 363.964106 
L 484.842921 363.04903 
L 485.096685 363.998923 
L 485.604211 362.835813 
L 485.857974 363.481734 
L 486.111738 362.083483 
L 486.365501 364.974718 
L 486.619264 364.582707 
L 486.873027 363.795019 
L 487.126791 361.942152 
L 487.88808 364.436112 
L 488.141844 362.841994 
L 488.395607 363.441776 
L 488.64937 363.349712 
L 488.903133 363.80777 
L 489.156897 362.816259 
L 489.41066 363.731812 
L 489.664423 364.123964 
L 490.17195 362.94345 
L 490.425713 364.545786 
L 490.679476 365.074797 
L 490.933239 363.824342 
L 491.187003 364.406145 
L 491.440766 363.684909 
L 491.694529 363.711225 
L 491.948292 361.138893 
L 492.202056 364.669233 
L 492.455819 364.326968 
L 492.709582 364.359058 
L 492.963345 363.548349 
L 493.217109 362.251101 
L 493.470872 365.944112 
L 493.724635 363.739563 
L 493.978398 364.024144 
L 494.232162 363.050685 
L 494.485925 365.925709 
L 494.993451 363.988293 
L 495.247215 363.547532 
L 495.500978 363.443077 
L 495.754741 364.186099 
L 496.008504 363.596052 
L 496.262267 363.366386 
L 496.516031 364.624317 
L 496.769794 364.304565 
L 497.023557 364.203588 
L 497.27732 364.540729 
L 497.531084 363.826553 
L 497.784847 364.114556 
L 498.03861 363.562449 
L 498.292373 363.999509 
L 498.546137 363.170274 
L 498.7999 364.798405 
L 499.053663 363.642512 
L 499.307426 364.413269 
L 499.56119 364.082184 
L 499.814953 364.614478 
L 500.068716 362.669947 
L 500.322479 364.320082 
L 500.576243 363.856875 
L 500.830006 362.914169 
L 501.083769 366.354733 
L 501.337532 364.736088 
L 501.591296 365.163974 
L 501.845059 363.353226 
L 502.098822 363.972162 
L 502.352585 363.867321 
L 502.606349 362.772189 
L 502.860112 364.495555 
L 503.113875 364.00808 
L 503.367638 364.551303 
L 503.621402 364.626575 
L 503.875165 364.988862 
L 504.128928 363.186916 
L 504.636455 365.734897 
L 504.890218 364.023041 
L 505.143981 364.452883 
L 505.397744 363.450107 
L 505.651508 365.178823 
L 505.905271 364.317857 
L 506.412797 365.135228 
L 506.666561 364.376856 
L 506.920324 364.450349 
L 507.174087 363.912801 
L 507.42785 364.610247 
L 507.681614 363.412309 
L 507.935377 364.701922 
L 508.18914 364.631981 
L 508.442903 365.819841 
L 508.95043 364.393942 
L 509.204193 364.845687 
L 509.457956 364.801131 
L 509.711719 363.759726 
L 509.965483 364.87419 
L 510.219246 364.692617 
L 510.473009 365.025975 
L 510.726772 366.076404 
L 510.980536 364.118346 
L 511.234299 364.055015 
L 511.488062 365.969707 
L 511.741825 365.747588 
L 511.995589 364.420825 
L 512.503115 364.364779 
L 512.756878 365.129897 
L 513.010642 365.021579 
L 513.264405 364.466982 
L 513.518168 365.075376 
L 513.771931 363.690038 
L 514.025695 365.926538 
L 514.533221 364.56855 
L 514.786984 364.648996 
L 515.040748 363.923821 
L 515.294511 365.621279 
L 515.548274 364.779382 
L 515.802037 365.307683 
L 516.055801 364.51257 
L 516.309564 364.860851 
L 516.563327 365.863982 
L 516.81709 364.988793 
L 517.070854 366.319689 
L 517.324617 364.151491 
L 517.57838 365.203213 
L 517.832143 364.817387 
L 518.085907 366.08028 
L 518.33967 364.903273 
L 518.593433 365.446687 
L 518.847196 365.20591 
L 519.10096 363.888295 
L 519.354723 365.279606 
L 519.608486 363.481294 
L 520.116013 366.017818 
L 520.369776 365.679815 
L 520.623539 365.132094 
L 520.877302 365.421371 
L 521.131066 363.444961 
L 521.384829 364.465928 
L 521.638592 363.670183 
L 521.892355 364.20467 
L 522.146119 365.686759 
L 522.399882 364.777159 
L 522.653645 365.081396 
L 522.907408 365.936797 
L 523.161171 364.598192 
L 523.414935 365.432655 
L 523.668698 363.009409 
L 523.922461 364.580891 
L 524.176224 364.454567 
L 524.429988 366.103052 
L 524.683751 365.134434 
L 524.937514 363.659838 
L 525.191277 365.782955 
L 525.445041 365.264865 
L 525.698804 364.083204 
L 525.952567 364.898319 
L 526.20633 364.540526 
L 526.460094 364.570209 
L 526.713857 365.115155 
L 526.96762 364.243329 
L 527.475147 366.296212 
L 527.72891 364.763013 
L 527.982673 364.663983 
L 528.236436 364.360411 
L 528.4902 366.037904 
L 528.743963 364.925685 
L 528.997726 365.844401 
L 529.251489 365.107928 
L 529.505253 363.816511 
L 529.759016 364.878647 
L 530.012779 365.028483 
L 530.266542 364.963539 
L 530.520306 365.17899 
L 530.774069 364.704153 
L 531.027832 365.827353 
L 531.281595 364.784604 
L 531.535359 366.241694 
L 531.789122 366.40282 
L 532.042885 365.147498 
L 532.296648 365.020623 
L 532.550412 366.996473 
L 532.804175 366.695096 
L 533.057938 365.082168 
L 533.311701 365.73847 
L 533.565465 365.655856 
L 533.819228 365.445862 
L 534.072991 365.569868 
L 534.326754 365.45025 
L 534.580518 366.476445 
L 534.834281 366.695762 
L 535.088044 364.873115 
L 535.341807 366.29434 
L 535.595571 366.892693 
L 535.849334 364.929108 
L 536.103097 366.793122 
L 536.35686 365.328483 
L 536.610623 366.243904 
L 536.864387 364.564266 
L 537.11815 364.359403 
L 537.371913 365.67013 
L 537.625676 366.038787 
L 537.87944 365.688055 
L 538.133203 366.636521 
L 538.386966 364.534331 
L 538.894493 366.102891 
L 539.148256 366.031853 
L 539.402019 365.192313 
L 539.909546 366.672385 
L 540.163309 364.984003 
L 540.417072 364.84178 
L 540.670835 365.906215 
L 540.924599 365.282573 
L 541.178362 365.72808 
L 541.432125 366.651815 
L 541.685888 366.056824 
L 541.939652 365.138659 
L 542.193415 365.76014 
L 542.447178 366.847333 
L 542.700941 364.501845 
L 542.954705 366.71569 
L 543.208468 365.841803 
L 543.462231 366.152138 
L 543.715994 365.843121 
L 543.969758 366.385621 
L 544.223521 365.069247 
L 544.477284 364.957481 
L 544.731047 366.149161 
L 544.984811 366.625762 
L 545.492337 365.543452 
L 545.7461 365.29014 
L 545.999864 364.453253 
L 546.253627 364.740592 
L 546.50739 365.283358 
L 546.761153 366.800573 
L 547.014917 364.737292 
L 547.26868 366.942885 
L 547.522443 366.092515 
L 547.776206 364.629398 
L 548.02997 365.464884 
L 548.537496 365.001959 
L 548.791259 365.410473 
L 549.045023 367.055499 
L 549.298786 365.199599 
L 549.552549 365.822966 
L 549.806312 365.875769 
L 550.060075 365.709343 
L 550.567602 367.158219 
L 550.821365 364.967657 
L 551.075128 365.420129 
L 551.328892 365.305418 
L 551.582655 366.580765 
L 551.836418 365.201161 
L 552.090181 365.086087 
L 552.343945 367.949109 
L 552.597708 365.64186 
L 552.851471 366.014794 
L 553.105234 366.139719 
L 553.358998 366.033799 
L 553.612761 364.378317 
L 553.866524 365.835168 
L 554.120287 366.527416 
L 554.374051 366.30636 
L 554.627814 365.776109 
L 554.881577 366.281177 
L 555.13534 367.983794 
L 555.389104 366.227203 
L 555.642867 366.497138 
L 555.89663 366.255158 
L 556.150393 366.727668 
L 556.404157 365.886597 
L 556.65792 367.242304 
L 556.911683 366.135675 
L 557.165446 367.283564 
L 557.41921 366.076164 
L 557.672973 365.515987 
L 558.180499 366.650463 
L 558.434263 365.769727 
L 558.688026 367.679019 
L 559.195552 365.438487 
L 559.449316 366.936131 
L 559.703079 367.365886 
L 559.956842 365.24592 
L 560.210605 365.119576 
L 560.464369 365.59079 
L 560.718132 366.536175 
L 560.971895 366.352523 
L 561.225658 366.763226 
L 561.479422 365.669491 
L 561.733185 366.770886 
L 561.986948 366.646468 
L 562.240711 367.717928 
L 562.494475 366.705176 
L 562.748238 367.248888 
L 563.255764 365.757518 
L 563.509527 365.474778 
L 563.763291 365.010424 
L 564.017054 366.172142 
L 564.270817 366.287008 
L 564.52458 368.000537 
L 565.28587 365.03522 
L 565.793397 368.196488 
L 566.04716 366.546167 
L 566.300923 366.204606 
L 566.554686 365.147432 
L 566.80845 366.736074 
L 567.062213 366.469852 
L 567.315976 367.990203 
L 567.569739 365.628079 
L 567.823503 367.124777 
L 568.077266 367.146604 
L 568.331029 365.091125 
L 568.584792 367.73681 
L 569.092319 365.882298 
L 569.346082 365.648881 
L 569.599845 366.481077 
L 569.853609 366.084869 
L 570.361135 366.465637 
L 570.614898 367.113937 
L 570.868662 366.176067 
L 571.122425 366.30135 
L 571.376188 365.356068 
L 571.883715 367.66127 
L 572.137478 366.323621 
L 572.391241 365.905744 
L 572.645004 366.592424 
L 572.898768 366.181346 
L 573.152531 367.32821 
L 573.660057 366.127513 
L 573.913821 365.755203 
L 574.167584 365.902098 
L 574.421347 366.245566 
L 574.67511 367.562903 
L 574.928874 366.3856 
L 575.182637 367.813485 
L 575.4364 365.601505 
L 575.690163 367.113731 
L 575.943927 366.253633 
L 576.19769 366.934902 
L 576.451453 366.508186 
L 576.705216 366.70944 
L 576.958979 367.238751 
L 577.212743 367.104706 
L 577.466506 366.413985 
L 577.720269 367.151354 
L 577.974032 366.766658 
L 578.227796 367.037693 
L 578.481559 366.967936 
L 578.735322 367.630176 
L 578.989085 365.899331 
L 579.242849 367.286719 
L 579.496612 367.079249 
L 579.750375 365.972813 
L 580.004138 367.165082 
L 580.257902 365.691369 
L 580.511665 365.709431 
L 580.765428 366.356611 
L 581.272955 366.466716 
L 581.526718 367.186039 
L 582.288008 366.721001 
L 582.541771 367.596934 
L 582.795534 365.771743 
L 583.049297 365.437055 
L 583.303061 367.592185 
L 583.556824 366.16675 
L 583.810587 367.652972 
L 584.06435 367.300945 
L 584.318114 366.032736 
L 584.571877 366.506565 
L 584.82564 367.488867 
L 585.079403 366.518921 
L 585.333167 366.60653 
L 585.58693 366.42375 
L 585.840693 367.902402 
L 586.34822 366.326028 
L 586.601983 366.862654 
L 586.855746 367.789256 
L 587.109509 366.626657 
L 587.617036 368.457052 
L 588.124562 366.776998 
L 588.378326 366.427887 
L 588.632089 366.677424 
L 588.885852 367.313583 
L 589.139615 367.319561 
L 589.393379 367.543682 
L 589.647142 366.604876 
L 589.900905 366.440299 
L 590.154668 366.712167 
L 590.408431 366.565232 
L 590.662195 367.404622 
L 591.169721 365.252958 
L 591.423484 367.587231 
L 591.677248 368.466075 
L 591.931011 367.221265 
L 592.184774 367.922914 
L 592.692301 366.593547 
L 592.946064 367.166046 
L 593.45359 367.666698 
L 593.707354 367.249275 
L 593.961117 366.347024 
L 594.21488 366.909537 
L 594.468643 366.264082 
L 594.722407 366.730191 
L 594.97617 367.666764 
L 595.229933 366.486571 
L 595.483696 367.15961 
L 595.73746 367.321309 
L 595.991223 366.859549 
L 596.244986 366.156421 
L 596.498749 367.414133 
L 596.752513 366.226477 
L 597.006276 367.142613 
L 597.260039 366.798427 
L 597.513802 368.793384 
L 597.767566 366.117531 
L 598.021329 367.854027 
L 598.528855 366.354323 
L 598.782619 368.610642 
L 599.290145 366.713245 
L 599.543908 366.331392 
L 599.797672 367.064157 
L 600.051435 368.250987 
L 600.305198 366.929128 
L 600.558961 366.944832 
L 600.812725 368.620014 
L 601.066488 368.446415 
L 601.320251 368.843097 
L 601.574014 367.674761 
L 601.827778 367.376127 
L 602.081541 367.376745 
L 602.335304 367.811157 
L 602.589067 367.405748 
L 602.842831 367.544629 
L 603.096594 368.642308 
L 603.350357 367.884119 
L 603.60412 368.735875 
L 603.857883 366.799003 
L 604.111647 368.054633 
L 604.619173 366.800299 
L 604.872936 367.937931 
L 605.1267 367.708961 
L 605.380463 368.247188 
L 606.141753 367.128812 
L 606.649279 368.674893 
L 606.903042 368.186564 
L 607.410569 367.960808 
L 607.664332 367.760079 
L 608.171859 367.717941 
L 608.425622 367.284935 
L 608.679385 368.961785 
L 608.933148 369.052194 
L 609.186912 366.467053 
L 609.440675 368.010449 
L 609.694438 367.702367 
L 609.948201 368.358775 
L 610.201965 367.915217 
L 610.455728 368.060783 
L 610.709491 366.783098 
L 610.963254 366.595557 
L 611.217018 368.191067 
L 611.470781 368.144989 
L 611.724544 368.865746 
L 611.978307 366.966174 
L 612.232071 367.695224 
L 612.485834 367.589978 
L 612.739597 368.189807 
L 612.99336 368.211984 
L 613.247124 369.36 
L 613.500887 367.778987 
L 613.75465 368.162957 
L 614.008413 368.21748 
L 614.262177 368.530861 
L 614.51594 368.476183 
L 614.769703 368.084285 
L 615.023466 368.122809 
L 615.27723 367.346013 
L 615.530993 367.178082 
L 615.784756 368.907875 
L 616.038519 368.215168 
L 616.292283 368.115287 
L 616.799809 368.611059 
L 617.053572 368.379148 
L 617.307335 367.731211 
L 617.561099 368.590393 
L 617.814862 367.757742 
L 618.068625 368.091738 
L 618.322388 367.467917 
L 618.576152 367.445965 
L 618.829915 368.247212 
L 619.083678 368.199434 
L 619.337441 367.860119 
L 619.591205 368.83339 
L 619.844968 367.937543 
L 620.098731 367.814964 
L 620.352494 368.523111 
L 620.606258 367.736706 
L 620.860021 368.376247 
L 621.113784 367.174119 
L 621.367547 367.240347 
L 621.621311 368.944399 
L 621.875074 366.813824 
L 622.128837 368.321665 
L 622.3826 367.209415 
L 622.636364 367.877892 
L 622.636364 367.877892 
" clip-path="url(#p5075ae7284)" style="fill: none; stroke: #1f77b4; stroke-width: 1.5; stroke-linecap: square"/>
   </g>
   <g id="patch_3">
    <path d="M 90 384.48 
L 90 51.84 
" style="fill: none; stroke: #000000; stroke-width: 0.8; stroke-linejoin: miter; stroke-linecap: square"/>
   </g>
   <g id="patch_4">
    <path d="M 648 384.48 
L 648 51.84 
" style="fill: none; stroke: #000000; stroke-width: 0.8; stroke-linejoin: miter; stroke-linecap: square"/>
   </g>
   <g id="patch_5">
    <path d="M 90 384.48 
L 648 384.48 
" style="fill: none; stroke: #000000; stroke-width: 0.8; stroke-linejoin: miter; stroke-linecap: square"/>
   </g>
   <g id="patch_6">
    <path d="M 90 51.84 
L 648 51.84 
" style="fill: none; stroke: #000000; stroke-width: 0.8; stroke-linejoin: miter; stroke-linecap: square"/>
   </g>
   <g id="text_19">
    <!-- Training Loss Curve -->
    <g transform="translate(312 45.84) scale(0.12 -0.12)">
     <defs>
      <path id="SimHei-54" d="M 2850 3925 
L 1850 3925 
L 1850 125 
L 1275 125 
L 1275 3925 
L 275 3925 
L 275 4400 
L 2850 4400 
L 2850 3925 
z
" transform="scale(0.015625)"/>
      <path id="SimHei-67" d="M 2975 2500 
Q 2800 2550 2637 2562 
Q 2475 2575 2300 2525 
Q 2375 2450 2425 2337 
Q 2475 2225 2475 2000 
Q 2475 1575 2187 1300 
Q 1900 1025 1475 1025 
Q 1375 1025 1212 1062 
Q 1050 1100 950 1150 
Q 875 1100 850 1050 
Q 825 1000 825 925 
Q 825 800 1000 737 
Q 1175 675 1625 675 
Q 2350 675 2612 475 
Q 2875 275 2875 -25 
Q 2875 -425 2487 -612 
Q 2100 -800 1575 -800 
Q 900 -800 575 -625 
Q 250 -450 250 -150 
Q 250 0 375 150 
Q 500 300 700 400 
Q 550 475 462 587 
Q 375 700 375 875 
Q 375 1025 487 1137 
Q 600 1250 750 1325 
Q 625 1450 550 1625 
Q 475 1800 475 2000 
Q 475 2425 762 2700 
Q 1050 2975 1475 2975 
Q 1700 2975 1862 2912 
Q 2025 2850 2150 2725 
Q 2350 2875 2550 2937 
Q 2750 3000 2975 2975 
L 2975 2500 
z
M 1975 2000 
Q 1975 2250 1850 2400 
Q 1725 2550 1475 2550 
Q 1225 2550 1100 2400 
Q 975 2250 975 2000 
Q 975 1750 1100 1600 
Q 1225 1450 1475 1450 
Q 1725 1450 1850 1600 
Q 1975 1750 1975 2000 
z
M 2400 -75 
Q 2400 25 2287 125 
Q 2175 225 1725 225 
Q 1625 225 1450 237 
Q 1275 250 1050 275 
Q 850 200 775 100 
Q 700 0 700 -100 
Q 700 -250 900 -350 
Q 1100 -450 1600 -450 
Q 2025 -450 2212 -337 
Q 2400 -225 2400 -75 
z
" transform="scale(0.015625)"/>
      <path id="SimHei-20" transform="scale(0.015625)"/>
      <path id="SimHei-43" d="M 2975 1825 
Q 2950 875 2575 475 
Q 2200 75 1675 75 
Q 1075 75 650 562 
Q 225 1050 225 2125 
Q 225 3300 637 3875 
Q 1050 4450 1700 4450 
Q 2250 4450 2612 4037 
Q 2975 3625 2950 2875 
L 2400 2875 
Q 2400 3425 2225 3700 
Q 2050 3975 1700 3975 
Q 1300 3975 1062 3562 
Q 825 3150 825 2175 
Q 825 1275 1062 912 
Q 1300 550 1675 550 
Q 1950 550 2175 812 
Q 2400 1075 2400 1825 
L 2975 1825 
z
" transform="scale(0.015625)"/>
      <path id="SimHei-75" d="M 2800 125 
L 2300 125 
L 2300 650 
Q 2100 375 1862 225 
Q 1625 75 1250 75 
Q 800 75 575 325 
Q 350 575 350 950 
L 350 2925 
L 850 2925 
L 850 1125 
Q 850 825 1000 650 
Q 1150 475 1400 475 
Q 1725 475 2012 812 
Q 2300 1150 2300 1650 
L 2300 2925 
L 2800 2925 
L 2800 125 
z
" transform="scale(0.015625)"/>
      <path id="SimHei-76" d="M 2875 2925 
L 1825 75 
L 1275 75 
L 225 2925 
L 750 2925 
L 1525 750 
L 1575 750 
L 2350 2925 
L 2875 2925 
z
" transform="scale(0.015625)"/>
     </defs>
     <use xlink:href="#SimHei-54"/>
     <use xlink:href="#SimHei-72" transform="translate(50 0)"/>
     <use xlink:href="#SimHei-61" transform="translate(100 0)"/>
     <use xlink:href="#SimHei-69" transform="translate(150 0)"/>
     <use xlink:href="#SimHei-6e" transform="translate(200 0)"/>
     <use xlink:href="#SimHei-69" transform="translate(250 0)"/>
     <use xlink:href="#SimHei-6e" transform="translate(300 0)"/>
     <use xlink:href="#SimHei-67" transform="translate(350 0)"/>
     <use xlink:href="#SimHei-20" transform="translate(400 0)"/>
     <use xlink:href="#SimHei-4c" transform="translate(450 0)"/>
     <use xlink:href="#SimHei-6f" transform="translate(500 0)"/>
     <use xlink:href="#SimHei-73" transform="translate(550 0)"/>
     <use xlink:href="#SimHei-73" transform="translate(600 0)"/>
     <use xlink:href="#SimHei-20" transform="translate(650 0)"/>
     <use xlink:href="#SimHei-43" transform="translate(700 0)"/>
     <use xlink:href="#SimHei-75" transform="translate(750 0)"/>
     <use xlink:href="#SimHei-72" transform="translate(800 0)"/>
     <use xlink:href="#SimHei-76" transform="translate(850 0)"/>
     <use xlink:href="#SimHei-65" transform="translate(900 0)"/>
    </g>
   </g>
   <g id="legend_1">
    <g id="patch_7">
     <path d="M 559 73.09 
L 641 73.09 
Q 643 73.09 643 71.09 
L 643 58.84 
Q 643 56.84 641 56.84 
L 559 56.84 
Q 557 56.84 557 58.84 
L 557 71.09 
Q 557 73.09 559 73.09 
z
" style="fill: #ffffff; opacity: 0.8; stroke: #cccccc; stroke-linejoin: miter"/>
    </g>
    <g id="line2d_34">
     <path d="M 561 64.34 
L 571 64.34 
L 581 64.34 
" style="fill: none; stroke: #1f77b4; stroke-width: 1.5; stroke-linecap: square"/>
    </g>
    <g id="text_20">
     <!-- Loss Curve -->
     <g transform="translate(589 67.84) scale(0.1 -0.1)">
      <use xlink:href="#SimHei-4c"/>
      <use xlink:href="#SimHei-6f" transform="translate(50 0)"/>
      <use xlink:href="#SimHei-73" transform="translate(100 0)"/>
      <use xlink:href="#SimHei-73" transform="translate(150 0)"/>
      <use xlink:href="#SimHei-20" transform="translate(200 0)"/>
      <use xlink:href="#SimHei-43" transform="translate(250 0)"/>
      <use xlink:href="#SimHei-75" transform="translate(300 0)"/>
      <use xlink:href="#SimHei-72" transform="translate(350 0)"/>
      <use xlink:href="#SimHei-76" transform="translate(400 0)"/>
      <use xlink:href="#SimHei-65" transform="translate(450 0)"/>
     </g>
    </g>
   </g>
  </g>
 </g>
 <defs>
  <clipPath id="p5075ae7284">
   <rect x="90" y="51.84" width="558" height="332.64"/>
  </clipPath>
 </defs>
</svg>
