<?xml version="1.0" encoding="utf-8" standalone="no"?>
<!DOCTYPE svg PUBLIC "-//W3C//DTD SVG 1.1//EN"
  "http://www.w3.org/Graphics/SVG/1.1/DTD/svg11.dtd">
<svg xmlns:xlink="http://www.w3.org/1999/xlink" width="720pt" height="432pt" viewBox="0 0 720 432" xmlns="http://www.w3.org/2000/svg" version="1.1">
 <metadata>
  <rdf:RDF xmlns:dc="http://purl.org/dc/elements/1.1/" xmlns:cc="http://creativecommons.org/ns#" xmlns:rdf="http://www.w3.org/1999/02/22-rdf-syntax-ns#">
   <cc:Work>
    <dc:type rdf:resource="http://purl.org/dc/dcmitype/StillImage"/>
    <dc:date>2025-04-24T16:12:06.393954</dc:date>
    <dc:format>image/svg+xml</dc:format>
    <dc:creator>
     <cc:Agent>
      <dc:title>Matplotlib v3.10.1, https://matplotlib.org/</dc:title>
     </cc:Agent>
    </dc:creator>
   </cc:Work>
  </rdf:RDF>
 </metadata>
 <defs>
  <style type="text/css">*{stroke-linejoin: round; stroke-linecap: butt}</style>
 </defs>
 <g id="figure_1">
  <g id="patch_1">
   <path d="M 0 432 
L 720 432 
L 720 0 
L 0 0 
z
" style="fill: #ffffff"/>
  </g>
  <g id="axes_1">
   <g id="patch_2">
    <path d="M 90 384.48 
L 648 384.48 
L 648 51.84 
L 90 51.84 
z
" style="fill: #ffffff"/>
   </g>
   <g id="matplotlib.axis_1">
    <g id="xtick_1">
     <g id="line2d_1">
      <path d="M 115.363636 384.48 
L 115.363636 51.84 
" clip-path="url(#pfd1a7dea4b)" style="fill: none; stroke: #b0b0b0; stroke-width: 0.8; stroke-linecap: square"/>
     </g>
     <g id="line2d_2">
      <defs>
       <path id="m4885beb063" d="M 0 0 
L 0 3.5 
" style="stroke: #000000; stroke-width: 0.8"/>
      </defs>
      <g>
       <use xlink:href="#m4885beb063" x="115.363636" y="384.48" style="stroke: #000000; stroke-width: 0.8"/>
      </g>
     </g>
     <g id="text_1">
      <!-- 0 -->
      <g transform="translate(112.863636 398.355) scale(0.1 -0.1)">
       <defs>
        <path id="SimHei-30" d="M 225 2537 
Q 250 3200 412 3587 
Q 575 3975 875 4225 
Q 1175 4475 1612 4475 
Q 2050 4475 2375 4112 
Q 2700 3750 2800 3200 
Q 2900 2650 2862 1937 
Q 2825 1225 2612 775 
Q 2400 325 1975 150 
Q 1550 -25 1125 187 
Q 700 400 525 750 
Q 350 1100 275 1487 
Q 200 1875 225 2537 
z
M 750 2687 
Q 675 2000 800 1462 
Q 925 925 1212 700 
Q 1500 475 1800 612 
Q 2100 750 2237 1162 
Q 2375 1575 2375 2062 
Q 2375 2550 2337 2950 
Q 2300 3350 2112 3675 
Q 1925 4000 1612 4012 
Q 1300 4025 1062 3700 
Q 825 3375 750 2687 
z
" transform="scale(0.015625)"/>
       </defs>
       <use xlink:href="#SimHei-30"/>
      </g>
     </g>
    </g>
    <g id="xtick_2">
     <g id="line2d_3">
      <path d="M 178.804448 384.48 
L 178.804448 51.84 
" clip-path="url(#pfd1a7dea4b)" style="fill: none; stroke: #b0b0b0; stroke-width: 0.8; stroke-linecap: square"/>
     </g>
     <g id="line2d_4">
      <g>
       <use xlink:href="#m4885beb063" x="178.804448" y="384.48" style="stroke: #000000; stroke-width: 0.8"/>
      </g>
     </g>
     <g id="text_2">
      <!-- 250 -->
      <g transform="translate(171.304448 398.355) scale(0.1 -0.1)">
       <defs>
        <path id="SimHei-32" d="M 300 250 
Q 325 625 650 925 
Q 975 1225 1475 1862 
Q 1975 2500 2125 2850 
Q 2275 3200 2237 3450 
Q 2200 3700 2000 3862 
Q 1800 4025 1537 4000 
Q 1275 3975 1037 3800 
Q 800 3625 675 3275 
L 200 3350 
Q 400 3925 712 4187 
Q 1025 4450 1450 4475 
Q 1700 4500 1900 4462 
Q 2100 4425 2312 4287 
Q 2525 4150 2662 3875 
Q 2800 3600 2762 3212 
Q 2725 2825 2375 2287 
Q 2025 1750 1025 600 
L 2825 600 
L 2825 150 
L 300 150 
L 300 250 
z
" transform="scale(0.015625)"/>
        <path id="SimHei-35" d="M 550 1325 
Q 725 650 1150 575 
Q 1575 500 1837 662 
Q 2100 825 2212 1087 
Q 2325 1350 2312 1675 
Q 2300 2000 2137 2225 
Q 1975 2450 1725 2525 
Q 1475 2600 1162 2525 
Q 850 2450 650 2175 
L 225 2225 
Q 275 2375 700 4375 
L 2675 4375 
L 2675 3925 
L 1075 3925 
Q 950 3250 825 2850 
Q 1200 3025 1525 3012 
Q 1850 3000 2150 2862 
Q 2450 2725 2587 2487 
Q 2725 2250 2787 2012 
Q 2850 1775 2837 1500 
Q 2825 1225 2725 937 
Q 2625 650 2425 462 
Q 2225 275 1937 162 
Q 1650 50 1275 75 
Q 900 100 562 350 
Q 225 600 100 1200 
L 550 1325 
z
" transform="scale(0.015625)"/>
       </defs>
       <use xlink:href="#SimHei-32"/>
       <use xlink:href="#SimHei-35" transform="translate(50 0)"/>
       <use xlink:href="#SimHei-30" transform="translate(100 0)"/>
      </g>
     </g>
    </g>
    <g id="xtick_3">
     <g id="line2d_5">
      <path d="M 242.245259 384.48 
L 242.245259 51.84 
" clip-path="url(#pfd1a7dea4b)" style="fill: none; stroke: #b0b0b0; stroke-width: 0.8; stroke-linecap: square"/>
     </g>
     <g id="line2d_6">
      <g>
       <use xlink:href="#m4885beb063" x="242.245259" y="384.48" style="stroke: #000000; stroke-width: 0.8"/>
      </g>
     </g>
     <g id="text_3">
      <!-- 500 -->
      <g transform="translate(234.745259 398.355) scale(0.1 -0.1)">
       <use xlink:href="#SimHei-35"/>
       <use xlink:href="#SimHei-30" transform="translate(50 0)"/>
       <use xlink:href="#SimHei-30" transform="translate(100 0)"/>
      </g>
     </g>
    </g>
    <g id="xtick_4">
     <g id="line2d_7">
      <path d="M 305.68607 384.48 
L 305.68607 51.84 
" clip-path="url(#pfd1a7dea4b)" style="fill: none; stroke: #b0b0b0; stroke-width: 0.8; stroke-linecap: square"/>
     </g>
     <g id="line2d_8">
      <g>
       <use xlink:href="#m4885beb063" x="305.68607" y="384.48" style="stroke: #000000; stroke-width: 0.8"/>
      </g>
     </g>
     <g id="text_4">
      <!-- 750 -->
      <g transform="translate(298.18607 398.355) scale(0.1 -0.1)">
       <defs>
        <path id="SimHei-37" d="M 850 150 
Q 1300 2050 2425 3925 
L 275 3925 
L 275 4375 
L 2950 4375 
L 2950 3950 
Q 1775 2050 1400 150 
L 850 150 
z
" transform="scale(0.015625)"/>
       </defs>
       <use xlink:href="#SimHei-37"/>
       <use xlink:href="#SimHei-35" transform="translate(50 0)"/>
       <use xlink:href="#SimHei-30" transform="translate(100 0)"/>
      </g>
     </g>
    </g>
    <g id="xtick_5">
     <g id="line2d_9">
      <path d="M 369.126882 384.48 
L 369.126882 51.84 
" clip-path="url(#pfd1a7dea4b)" style="fill: none; stroke: #b0b0b0; stroke-width: 0.8; stroke-linecap: square"/>
     </g>
     <g id="line2d_10">
      <g>
       <use xlink:href="#m4885beb063" x="369.126882" y="384.48" style="stroke: #000000; stroke-width: 0.8"/>
      </g>
     </g>
     <g id="text_5">
      <!-- 1000 -->
      <g transform="translate(359.126882 398.355) scale(0.1 -0.1)">
       <defs>
        <path id="SimHei-31" d="M 1400 3600 
Q 1075 3275 575 2975 
L 575 3450 
Q 1200 3875 1600 4450 
L 1900 4450 
L 1900 150 
L 1400 150 
L 1400 3600 
z
" transform="scale(0.015625)"/>
       </defs>
       <use xlink:href="#SimHei-31"/>
       <use xlink:href="#SimHei-30" transform="translate(50 0)"/>
       <use xlink:href="#SimHei-30" transform="translate(100 0)"/>
       <use xlink:href="#SimHei-30" transform="translate(150 0)"/>
      </g>
     </g>
    </g>
    <g id="xtick_6">
     <g id="line2d_11">
      <path d="M 432.567693 384.48 
L 432.567693 51.84 
" clip-path="url(#pfd1a7dea4b)" style="fill: none; stroke: #b0b0b0; stroke-width: 0.8; stroke-linecap: square"/>
     </g>
     <g id="line2d_12">
      <g>
       <use xlink:href="#m4885beb063" x="432.567693" y="384.48" style="stroke: #000000; stroke-width: 0.8"/>
      </g>
     </g>
     <g id="text_6">
      <!-- 1250 -->
      <g transform="translate(422.567693 398.355) scale(0.1 -0.1)">
       <use xlink:href="#SimHei-31"/>
       <use xlink:href="#SimHei-32" transform="translate(50 0)"/>
       <use xlink:href="#SimHei-35" transform="translate(100 0)"/>
       <use xlink:href="#SimHei-30" transform="translate(150 0)"/>
      </g>
     </g>
    </g>
    <g id="xtick_7">
     <g id="line2d_13">
      <path d="M 496.008504 384.48 
L 496.008504 51.84 
" clip-path="url(#pfd1a7dea4b)" style="fill: none; stroke: #b0b0b0; stroke-width: 0.8; stroke-linecap: square"/>
     </g>
     <g id="line2d_14">
      <g>
       <use xlink:href="#m4885beb063" x="496.008504" y="384.48" style="stroke: #000000; stroke-width: 0.8"/>
      </g>
     </g>
     <g id="text_7">
      <!-- 1500 -->
      <g transform="translate(486.008504 398.355) scale(0.1 -0.1)">
       <use xlink:href="#SimHei-31"/>
       <use xlink:href="#SimHei-35" transform="translate(50 0)"/>
       <use xlink:href="#SimHei-30" transform="translate(100 0)"/>
       <use xlink:href="#SimHei-30" transform="translate(150 0)"/>
      </g>
     </g>
    </g>
    <g id="xtick_8">
     <g id="line2d_15">
      <path d="M 559.449316 384.48 
L 559.449316 51.84 
" clip-path="url(#pfd1a7dea4b)" style="fill: none; stroke: #b0b0b0; stroke-width: 0.8; stroke-linecap: square"/>
     </g>
     <g id="line2d_16">
      <g>
       <use xlink:href="#m4885beb063" x="559.449316" y="384.48" style="stroke: #000000; stroke-width: 0.8"/>
      </g>
     </g>
     <g id="text_8">
      <!-- 1750 -->
      <g transform="translate(549.449316 398.355) scale(0.1 -0.1)">
       <use xlink:href="#SimHei-31"/>
       <use xlink:href="#SimHei-37" transform="translate(50 0)"/>
       <use xlink:href="#SimHei-35" transform="translate(100 0)"/>
       <use xlink:href="#SimHei-30" transform="translate(150 0)"/>
      </g>
     </g>
    </g>
    <g id="xtick_9">
     <g id="line2d_17">
      <path d="M 622.890127 384.48 
L 622.890127 51.84 
" clip-path="url(#pfd1a7dea4b)" style="fill: none; stroke: #b0b0b0; stroke-width: 0.8; stroke-linecap: square"/>
     </g>
     <g id="line2d_18">
      <g>
       <use xlink:href="#m4885beb063" x="622.890127" y="384.48" style="stroke: #000000; stroke-width: 0.8"/>
      </g>
     </g>
     <g id="text_9">
      <!-- 2000 -->
      <g transform="translate(612.890127 398.355) scale(0.1 -0.1)">
       <use xlink:href="#SimHei-32"/>
       <use xlink:href="#SimHei-30" transform="translate(50 0)"/>
       <use xlink:href="#SimHei-30" transform="translate(100 0)"/>
       <use xlink:href="#SimHei-30" transform="translate(150 0)"/>
      </g>
     </g>
    </g>
    <g id="text_10">
     <!-- Iteration -->
     <g transform="translate(346.5 410.48) scale(0.1 -0.1)">
      <defs>
       <path id="SimHei-49" d="M 1850 125 
L 1275 125 
L 1275 4400 
L 1850 4400 
L 1850 125 
z
" transform="scale(0.015625)"/>
       <path id="SimHei-74" d="M 2750 200 
Q 2625 150 2462 112 
Q 2300 75 2025 75 
Q 1575 75 1300 325 
Q 1025 575 1025 1025 
L 1025 2525 
L 175 2525 
L 175 2925 
L 1025 2925 
L 1025 3900 
L 1525 3900 
L 1525 2925 
L 2550 2925 
L 2550 2525 
L 1525 2525 
L 1525 1000 
Q 1525 800 1625 662 
Q 1725 525 2000 525 
Q 2275 525 2450 575 
Q 2625 625 2750 700 
L 2750 200 
z
" transform="scale(0.015625)"/>
       <path id="SimHei-65" d="M 2850 1075 
Q 2800 625 2450 350 
Q 2100 75 1625 75 
Q 1025 75 637 462 
Q 250 850 250 1525 
Q 250 2200 637 2587 
Q 1025 2975 1625 2975 
Q 2150 2975 2487 2637 
Q 2825 2300 2825 1525 
L 800 1525 
Q 800 975 1037 750 
Q 1275 525 1625 525 
Q 1900 525 2075 662 
Q 2250 800 2300 1075 
L 2850 1075 
z
M 2250 1925 
Q 2200 2275 2025 2412 
Q 1850 2550 1575 2550 
Q 1325 2550 1125 2412 
Q 925 2275 825 1925 
L 2250 1925 
z
" transform="scale(0.015625)"/>
       <path id="SimHei-72" d="M 2500 2425 
Q 2025 2500 1700 2287 
Q 1375 2075 1150 1550 
L 1150 125 
L 650 125 
L 650 2925 
L 1150 2925 
L 1150 2200 
Q 1375 2600 1712 2787 
Q 2050 2975 2500 2975 
L 2500 2425 
z
" transform="scale(0.015625)"/>
       <path id="SimHei-61" d="M 2875 125 
L 2275 125 
Q 2225 175 2200 262 
Q 2175 350 2175 475 
Q 2000 275 1750 175 
Q 1500 75 1225 75 
Q 825 75 550 275 
Q 275 475 275 850 
Q 275 1225 525 1450 
Q 775 1675 1300 1750 
Q 1650 1800 1912 1875 
Q 2175 1950 2175 2075 
Q 2175 2225 2062 2375 
Q 1950 2525 1575 2525 
Q 1275 2525 1137 2412 
Q 1000 2300 950 2100 
L 400 2100 
Q 450 2500 762 2737 
Q 1075 2975 1575 2975 
Q 2125 2975 2400 2725 
Q 2675 2475 2675 2025 
L 2675 650 
Q 2675 500 2725 375 
Q 2775 250 2875 125 
z
M 2175 1050 
L 2175 1550 
Q 2025 1500 1887 1462 
Q 1750 1425 1425 1375 
Q 1050 1325 937 1200 
Q 825 1075 825 900 
Q 825 750 937 637 
Q 1050 525 1275 525 
Q 1500 525 1762 650 
Q 2025 775 2175 1050 
z
" transform="scale(0.015625)"/>
       <path id="SimHei-69" d="M 1800 3725 
L 1300 3725 
L 1300 4375 
L 1800 4375 
L 1800 3725 
z
M 1800 125 
L 1300 125 
L 1300 2925 
L 1800 2925 
L 1800 125 
z
" transform="scale(0.015625)"/>
       <path id="SimHei-6f" d="M 2925 1525 
Q 2925 875 2525 475 
Q 2125 75 1575 75 
Q 1025 75 625 475 
Q 225 875 225 1525 
Q 225 2175 625 2575 
Q 1025 2975 1575 2975 
Q 2125 2975 2525 2575 
Q 2925 2175 2925 1525 
z
M 2375 1525 
Q 2375 2025 2125 2275 
Q 1875 2525 1575 2525 
Q 1275 2525 1025 2275 
Q 775 2025 775 1525 
Q 775 1025 1025 775 
Q 1275 525 1575 525 
Q 1875 525 2125 775 
Q 2375 1025 2375 1525 
z
" transform="scale(0.015625)"/>
       <path id="SimHei-6e" d="M 2800 125 
L 2300 125 
L 2300 1925 
Q 2300 2225 2150 2400 
Q 2000 2575 1750 2575 
Q 1425 2575 1137 2237 
Q 850 1900 850 1400 
L 850 125 
L 350 125 
L 350 2925 
L 850 2925 
L 850 2400 
Q 1050 2675 1287 2825 
Q 1525 2975 1900 2975 
Q 2350 2975 2575 2725 
Q 2800 2475 2800 2100 
L 2800 125 
z
" transform="scale(0.015625)"/>
      </defs>
      <use xlink:href="#SimHei-49"/>
      <use xlink:href="#SimHei-74" transform="translate(50 0)"/>
      <use xlink:href="#SimHei-65" transform="translate(100 0)"/>
      <use xlink:href="#SimHei-72" transform="translate(150 0)"/>
      <use xlink:href="#SimHei-61" transform="translate(200 0)"/>
      <use xlink:href="#SimHei-74" transform="translate(250 0)"/>
      <use xlink:href="#SimHei-69" transform="translate(300 0)"/>
      <use xlink:href="#SimHei-6f" transform="translate(350 0)"/>
      <use xlink:href="#SimHei-6e" transform="translate(400 0)"/>
     </g>
    </g>
   </g>
   <g id="matplotlib.axis_2">
    <g id="ytick_1">
     <g id="line2d_19">
      <path d="M 90 351.190201 
L 648 351.190201 
" clip-path="url(#pfd1a7dea4b)" style="fill: none; stroke: #b0b0b0; stroke-width: 0.8; stroke-linecap: square"/>
     </g>
     <g id="line2d_20">
      <defs>
       <path id="ma2ed0e69bb" d="M 0 0 
L -3.5 0 
" style="stroke: #000000; stroke-width: 0.8"/>
      </defs>
      <g>
       <use xlink:href="#ma2ed0e69bb" x="90" y="351.190201" style="stroke: #000000; stroke-width: 0.8"/>
      </g>
     </g>
     <g id="text_11">
      <!-- 0.20 -->
      <g transform="translate(63 354.627701) scale(0.1 -0.1)">
       <defs>
        <path id="SimHei-2e" d="M 1075 125 
L 500 125 
L 500 675 
L 1075 675 
L 1075 125 
z
" transform="scale(0.015625)"/>
       </defs>
       <use xlink:href="#SimHei-30"/>
       <use xlink:href="#SimHei-2e" transform="translate(50 0)"/>
       <use xlink:href="#SimHei-32" transform="translate(100 0)"/>
       <use xlink:href="#SimHei-30" transform="translate(150 0)"/>
      </g>
     </g>
    </g>
    <g id="ytick_2">
     <g id="line2d_21">
      <path d="M 90 297.332663 
L 648 297.332663 
" clip-path="url(#pfd1a7dea4b)" style="fill: none; stroke: #b0b0b0; stroke-width: 0.8; stroke-linecap: square"/>
     </g>
     <g id="line2d_22">
      <g>
       <use xlink:href="#ma2ed0e69bb" x="90" y="297.332663" style="stroke: #000000; stroke-width: 0.8"/>
      </g>
     </g>
     <g id="text_12">
      <!-- 0.25 -->
      <g transform="translate(63 300.770163) scale(0.1 -0.1)">
       <use xlink:href="#SimHei-30"/>
       <use xlink:href="#SimHei-2e" transform="translate(50 0)"/>
       <use xlink:href="#SimHei-32" transform="translate(100 0)"/>
       <use xlink:href="#SimHei-35" transform="translate(150 0)"/>
      </g>
     </g>
    </g>
    <g id="ytick_3">
     <g id="line2d_23">
      <path d="M 90 243.475125 
L 648 243.475125 
" clip-path="url(#pfd1a7dea4b)" style="fill: none; stroke: #b0b0b0; stroke-width: 0.8; stroke-linecap: square"/>
     </g>
     <g id="line2d_24">
      <g>
       <use xlink:href="#ma2ed0e69bb" x="90" y="243.475125" style="stroke: #000000; stroke-width: 0.8"/>
      </g>
     </g>
     <g id="text_13">
      <!-- 0.30 -->
      <g transform="translate(63 246.912625) scale(0.1 -0.1)">
       <defs>
        <path id="SimHei-33" d="M 250 1225 
L 700 1300 
Q 800 975 1025 762 
Q 1250 550 1587 562 
Q 1925 575 2125 837 
Q 2325 1100 2300 1437 
Q 2275 1775 2037 1962 
Q 1800 2150 1275 2225 
L 1275 2550 
Q 1800 2600 2037 2825 
Q 2275 3050 2250 3412 
Q 2225 3775 1925 3937 
Q 1625 4100 1287 3975 
Q 950 3850 750 3275 
L 300 3350 
Q 450 3800 712 4100 
Q 975 4400 1425 4450 
Q 1875 4500 2212 4337 
Q 2550 4175 2687 3837 
Q 2825 3500 2725 3100 
Q 2625 2700 2150 2400 
Q 2500 2250 2687 1950 
Q 2875 1650 2812 1162 
Q 2750 675 2375 375 
Q 2000 75 1525 87 
Q 1050 100 700 387 
Q 350 675 250 1225 
z
" transform="scale(0.015625)"/>
       </defs>
       <use xlink:href="#SimHei-30"/>
       <use xlink:href="#SimHei-2e" transform="translate(50 0)"/>
       <use xlink:href="#SimHei-33" transform="translate(100 0)"/>
       <use xlink:href="#SimHei-30" transform="translate(150 0)"/>
      </g>
     </g>
    </g>
    <g id="ytick_4">
     <g id="line2d_25">
      <path d="M 90 189.617586 
L 648 189.617586 
" clip-path="url(#pfd1a7dea4b)" style="fill: none; stroke: #b0b0b0; stroke-width: 0.8; stroke-linecap: square"/>
     </g>
     <g id="line2d_26">
      <g>
       <use xlink:href="#ma2ed0e69bb" x="90" y="189.617586" style="stroke: #000000; stroke-width: 0.8"/>
      </g>
     </g>
     <g id="text_14">
      <!-- 0.35 -->
      <g transform="translate(63 193.055086) scale(0.1 -0.1)">
       <use xlink:href="#SimHei-30"/>
       <use xlink:href="#SimHei-2e" transform="translate(50 0)"/>
       <use xlink:href="#SimHei-33" transform="translate(100 0)"/>
       <use xlink:href="#SimHei-35" transform="translate(150 0)"/>
      </g>
     </g>
    </g>
    <g id="ytick_5">
     <g id="line2d_27">
      <path d="M 90 135.760048 
L 648 135.760048 
" clip-path="url(#pfd1a7dea4b)" style="fill: none; stroke: #b0b0b0; stroke-width: 0.8; stroke-linecap: square"/>
     </g>
     <g id="line2d_28">
      <g>
       <use xlink:href="#ma2ed0e69bb" x="90" y="135.760048" style="stroke: #000000; stroke-width: 0.8"/>
      </g>
     </g>
     <g id="text_15">
      <!-- 0.40 -->
      <g transform="translate(63 139.197548) scale(0.1 -0.1)">
       <defs>
        <path id="SimHei-34" d="M 2000 1100 
L 75 1100 
L 75 1525 
L 2100 4450 
L 2475 4450 
L 2475 1525 
L 3075 1525 
L 3075 1100 
L 2475 1100 
L 2475 150 
L 2000 150 
L 2000 1100 
z
M 2000 1525 
L 2000 3500 
L 600 1525 
L 2000 1525 
z
" transform="scale(0.015625)"/>
       </defs>
       <use xlink:href="#SimHei-30"/>
       <use xlink:href="#SimHei-2e" transform="translate(50 0)"/>
       <use xlink:href="#SimHei-34" transform="translate(100 0)"/>
       <use xlink:href="#SimHei-30" transform="translate(150 0)"/>
      </g>
     </g>
    </g>
    <g id="ytick_6">
     <g id="line2d_29">
      <path d="M 90 81.90251 
L 648 81.90251 
" clip-path="url(#pfd1a7dea4b)" style="fill: none; stroke: #b0b0b0; stroke-width: 0.8; stroke-linecap: square"/>
     </g>
     <g id="line2d_30">
      <g>
       <use xlink:href="#ma2ed0e69bb" x="90" y="81.90251" style="stroke: #000000; stroke-width: 0.8"/>
      </g>
     </g>
     <g id="text_16">
      <!-- 0.45 -->
      <g transform="translate(63 85.34001) scale(0.1 -0.1)">
       <use xlink:href="#SimHei-30"/>
       <use xlink:href="#SimHei-2e" transform="translate(50 0)"/>
       <use xlink:href="#SimHei-34" transform="translate(100 0)"/>
       <use xlink:href="#SimHei-35" transform="translate(150 0)"/>
      </g>
     </g>
    </g>
    <g id="text_17">
     <!-- Loss -->
     <g transform="translate(57.75 228.16) rotate(-90) scale(0.1 -0.1)">
      <defs>
       <path id="SimHei-4c" d="M 2900 125 
L 300 125 
L 300 4400 
L 875 4400 
L 875 600 
L 2900 600 
L 2900 125 
z
" transform="scale(0.015625)"/>
       <path id="SimHei-73" d="M 2750 900 
Q 2750 500 2437 287 
Q 2125 75 1650 75 
Q 1050 75 725 312 
Q 400 550 400 1000 
L 900 1000 
Q 900 700 1112 600 
Q 1325 500 1625 500 
Q 1925 500 2075 612 
Q 2225 725 2225 900 
Q 2225 1025 2100 1150 
Q 1975 1275 1475 1350 
Q 900 1425 687 1637 
Q 475 1850 475 2200 
Q 475 2500 762 2737 
Q 1050 2975 1600 2975 
Q 2100 2975 2387 2750 
Q 2675 2525 2675 2150 
L 2175 2150 
Q 2175 2375 2012 2462 
Q 1850 2550 1600 2550 
Q 1275 2550 1137 2437 
Q 1000 2325 1000 2175 
Q 1000 2000 1125 1900 
Q 1250 1800 1650 1750 
Q 2300 1650 2525 1437 
Q 2750 1225 2750 900 
z
" transform="scale(0.015625)"/>
      </defs>
      <use xlink:href="#SimHei-4c"/>
      <use xlink:href="#SimHei-6f" transform="translate(50 0)"/>
      <use xlink:href="#SimHei-73" transform="translate(100 0)"/>
      <use xlink:href="#SimHei-73" transform="translate(150 0)"/>
     </g>
    </g>
   </g>
   <g id="line2d_31">
    <path d="M 115.363636 66.96 
L 115.6174 134.399039 
L 116.124926 164.51598 
L 117.139979 189.165722 
L 117.393742 190.88345 
L 117.647506 191.310273 
L 117.901269 196.483352 
L 118.155032 197.685528 
L 118.408795 196.865749 
L 118.662559 201.163741 
L 118.916322 201.355377 
L 119.423848 205.477663 
L 119.931375 207.38558 
L 120.185138 207.09109 
L 120.692665 210.415706 
L 120.946428 209.828907 
L 121.200191 210.076943 
L 121.453954 214.519858 
L 121.707717 214.484519 
L 121.961481 215.038586 
L 122.215244 215.218006 
L 122.469007 215.880278 
L 122.976534 216.309367 
L 123.230297 218.564092 
L 123.48406 217.163632 
L 123.737823 218.402884 
L 123.991587 221.159928 
L 124.24535 220.3652 
L 124.752876 221.584233 
L 125.00664 220.786286 
L 125.260403 224.000592 
L 125.514166 222.50798 
L 125.767929 222.281482 
L 126.021693 222.22186 
L 126.275456 224.114675 
L 126.529219 223.159293 
L 126.782982 223.637048 
L 127.036746 226.383449 
L 127.544272 223.805337 
L 128.051799 225.860978 
L 128.305562 226.668463 
L 128.559325 226.491635 
L 128.813088 225.454189 
L 129.066852 228.19452 
L 129.320615 227.490028 
L 129.574378 225.782259 
L 129.828141 228.253903 
L 130.081905 228.764014 
L 130.335668 228.949923 
L 130.589431 226.978362 
L 130.843194 227.477662 
L 131.096958 229.30925 
L 131.350721 229.502 
L 131.604484 228.755271 
L 131.858247 228.795199 
L 132.112011 230.932617 
L 132.365774 227.936252 
L 132.619537 228.891196 
L 132.8733 229.11044 
L 133.127064 228.835022 
L 133.63459 231.907574 
L 133.888353 228.964668 
L 134.142117 232.511687 
L 134.649643 230.806596 
L 134.903406 230.901009 
L 135.157169 230.44664 
L 135.410933 232.804372 
L 135.664696 231.575988 
L 135.918459 231.464913 
L 136.172222 234.375611 
L 136.425986 232.542151 
L 136.679749 233.068874 
L 137.187275 232.312483 
L 137.441039 230.698729 
L 137.694802 232.530126 
L 137.948565 231.842758 
L 138.456092 234.054042 
L 138.709855 233.713653 
L 138.963618 234.016459 
L 139.217381 234.144577 
L 139.471145 233.438412 
L 139.978671 234.745804 
L 140.232434 234.839525 
L 140.486198 234.348907 
L 140.739961 234.538367 
L 140.993724 233.221839 
L 141.247487 236.005566 
L 141.501251 234.888461 
L 141.755014 233.065351 
L 142.26254 235.460475 
L 142.516304 235.698985 
L 142.770067 236.225979 
L 143.277593 235.401836 
L 143.531357 236.018654 
L 143.78512 235.86961 
L 144.038883 236.51329 
L 144.292646 236.260049 
L 144.54641 236.263465 
L 144.800173 237.606705 
L 145.053936 237.839268 
L 145.307699 238.457107 
L 145.561463 237.889879 
L 145.815226 236.327002 
L 146.068989 236.98574 
L 146.576516 237.186702 
L 146.830279 236.832605 
L 147.084042 238.972949 
L 147.591569 237.0083 
L 147.845332 237.378824 
L 148.099095 238.123149 
L 148.352858 237.980479 
L 148.606621 239.059818 
L 148.860385 239.304427 
L 149.114148 237.392055 
L 149.621674 240.042552 
L 149.875438 238.660737 
L 150.382964 238.2964 
L 150.636727 239.972059 
L 150.890491 239.375283 
L 151.144254 239.32789 
L 151.398017 238.366282 
L 151.65178 240.022252 
L 151.905544 238.761042 
L 152.159307 240.719884 
L 152.41307 240.896182 
L 152.920597 239.122637 
L 153.17436 239.535163 
L 153.681886 241.448412 
L 153.93565 239.455142 
L 154.443176 240.533235 
L 154.696939 239.831028 
L 154.950703 241.982586 
L 155.204466 241.353259 
L 155.458229 239.091827 
L 155.711992 241.46906 
L 155.965756 241.614205 
L 156.219519 241.944004 
L 156.473282 241.349286 
L 156.727045 240.45892 
L 156.980809 242.633759 
L 157.234572 241.505022 
L 157.488335 242.367191 
L 157.742098 241.176089 
L 158.249625 241.790192 
L 158.503388 242.492472 
L 158.757151 242.810843 
L 159.010915 242.897535 
L 159.264678 243.328256 
L 159.518441 241.434877 
L 159.772204 241.733325 
L 160.025968 240.841642 
L 160.533494 243.666729 
L 160.787257 244.04994 
L 161.041021 242.452004 
L 161.294784 241.769458 
L 161.80231 242.849141 
L 162.056073 244.601393 
L 162.5636 244.070605 
L 162.817363 243.325638 
L 163.071126 243.901534 
L 163.32489 242.499449 
L 163.832416 244.098633 
L 164.086179 243.441062 
L 164.339943 244.178947 
L 164.593706 244.131455 
L 164.847469 243.017868 
L 165.101232 242.653961 
L 165.608759 244.973982 
L 165.862522 244.030996 
L 166.623812 246.211079 
L 166.877575 245.561606 
L 167.131338 244.159433 
L 167.385102 244.878265 
L 167.638865 244.63918 
L 167.892628 245.379074 
L 168.146391 247.22805 
L 168.400155 245.127746 
L 168.907681 246.467909 
L 169.161444 244.114472 
L 169.415208 245.452183 
L 169.922734 246.288587 
L 170.176497 245.723009 
L 170.684024 247.668813 
L 170.937787 245.307369 
L 171.19155 247.254955 
L 171.445314 246.290495 
L 171.699077 247.65968 
L 171.95284 247.257113 
L 172.206603 245.993915 
L 172.460367 247.345345 
L 172.71413 248.029436 
L 172.967893 245.687123 
L 173.221656 248.242607 
L 173.47542 246.264721 
L 173.729183 248.488095 
L 174.236709 248.002706 
L 174.490473 248.682967 
L 174.744236 249.764651 
L 175.251762 246.611722 
L 175.505525 246.358689 
L 176.013052 249.08522 
L 176.266815 248.885457 
L 176.520578 250.301977 
L 176.774342 247.882208 
L 177.028105 249.536256 
L 177.789395 249.536286 
L 178.043158 249.89104 
L 178.296921 249.849701 
L 178.550684 250.69283 
L 178.804448 249.203056 
L 179.058211 251.325945 
L 179.311974 250.361198 
L 179.819501 252.278373 
L 180.327027 249.763377 
L 180.58079 252.4369 
L 180.834554 250.242466 
L 181.088317 251.623221 
L 181.34208 250.052042 
L 181.595843 251.684086 
L 181.849607 250.929772 
L 182.357133 253.162694 
L 182.610896 250.68927 
L 182.86466 251.524579 
L 183.118423 253.144378 
L 183.372186 252.389288 
L 183.625949 252.321024 
L 183.879713 253.552873 
L 184.133476 252.623889 
L 184.387239 253.115139 
L 184.641002 254.006748 
L 184.894766 252.285699 
L 185.402292 254.504908 
L 185.656055 253.325129 
L 185.909819 253.415851 
L 186.163582 252.954739 
L 186.417345 253.043441 
L 186.671108 253.551322 
L 186.924872 254.325089 
L 187.178635 254.172385 
L 187.432398 254.80841 
L 187.686161 256.623042 
L 187.939925 253.84118 
L 188.193688 256.173469 
L 188.447451 254.641197 
L 188.701214 256.471871 
L 188.954977 255.372387 
L 189.208741 257.21714 
L 189.462504 256.537641 
L 189.716267 256.945999 
L 189.97003 258.055106 
L 190.223794 256.643539 
L 190.73132 257.938209 
L 190.985083 257.821012 
L 191.238847 257.474391 
L 191.49261 256.692456 
L 191.746373 258.122945 
L 192.000136 257.030663 
L 192.2539 258.094447 
L 192.507663 257.719526 
L 192.761426 258.465558 
L 193.015189 258.292076 
L 193.268953 258.919152 
L 193.776479 258.370998 
L 194.030242 258.333983 
L 194.537769 260.53463 
L 194.791532 259.923307 
L 195.045295 261.638026 
L 195.552822 260.702018 
L 195.806585 260.548821 
L 196.060348 260.964331 
L 196.314112 259.253135 
L 196.821638 264.369638 
L 197.075401 261.387793 
L 197.329165 261.873204 
L 197.582928 265.112975 
L 198.090454 259.879155 
L 198.344218 263.54444 
L 198.597981 263.772683 
L 198.851744 263.616047 
L 199.105507 261.75774 
L 199.359271 264.431705 
L 199.866797 264.43403 
L 200.12056 263.359035 
L 200.374324 264.554004 
L 200.628087 266.336226 
L 201.135613 264.137802 
L 201.389377 266.060924 
L 201.64314 266.062356 
L 201.896903 266.23588 
L 202.150666 268.5081 
L 202.404429 266.418241 
L 202.658193 268.980612 
L 202.911956 267.027793 
L 203.165719 267.408068 
L 203.419482 266.882351 
L 203.673246 266.031803 
L 203.927009 268.406747 
L 204.180772 269.548915 
L 204.434535 269.102575 
L 204.688299 269.987985 
L 204.942062 269.216473 
L 205.195825 270.51923 
L 205.449588 268.859058 
L 205.703352 269.68587 
L 205.957115 269.015408 
L 206.210878 269.728944 
L 206.464641 271.291135 
L 207.225931 269.59711 
L 207.479694 270.433611 
L 207.733458 271.88824 
L 207.987221 269.910071 
L 208.494747 272.256389 
L 208.748511 269.015797 
L 209.002274 273.149837 
L 209.256037 270.968272 
L 209.5098 273.571274 
L 209.763564 270.679779 
L 210.017327 273.703968 
L 210.27109 270.685002 
L 210.524853 271.239029 
L 210.778617 272.109642 
L 211.03238 271.433717 
L 211.286143 273.370104 
L 211.539906 273.00018 
L 211.79367 273.070387 
L 212.047433 272.323282 
L 212.301196 274.431944 
L 212.554959 273.813806 
L 212.808723 274.90193 
L 213.062486 274.708103 
L 213.570012 273.81066 
L 213.823776 276.657089 
L 214.077539 274.941229 
L 214.331302 275.460136 
L 214.585065 273.243621 
L 215.092592 275.753694 
L 215.346355 277.113177 
L 215.600118 276.850144 
L 215.853881 277.0283 
L 216.107645 274.977411 
L 216.361408 275.194853 
L 216.615171 278.013773 
L 216.868934 276.298534 
L 217.122698 273.633257 
L 217.376461 277.430082 
L 217.630224 276.874516 
L 218.137751 277.630478 
L 218.391514 276.357275 
L 218.645277 276.59561 
L 218.89904 278.455104 
L 219.152804 277.5279 
L 219.406567 280.205411 
L 219.66033 280.462504 
L 219.914093 275.988526 
L 220.167857 277.717277 
L 220.42162 276.9475 
L 220.675383 278.996358 
L 220.929146 276.39387 
L 221.18291 278.618873 
L 221.436673 277.114694 
L 221.690436 277.619999 
L 221.944199 279.390823 
L 222.197963 278.007435 
L 222.451726 280.683261 
L 222.705489 280.188503 
L 222.959252 277.701785 
L 223.213016 280.273847 
L 223.466779 278.767672 
L 223.720542 280.425245 
L 223.974305 281.242581 
L 224.228069 277.782879 
L 224.481832 280.769495 
L 224.735595 280.542214 
L 224.989358 281.322265 
L 225.243122 279.730872 
L 225.496885 280.719086 
L 225.750648 281.066829 
L 226.004411 283.242773 
L 226.258175 282.065028 
L 226.765701 282.610383 
L 227.019464 282.930933 
L 227.273228 281.622078 
L 227.526991 281.139481 
L 227.780754 282.578069 
L 228.034517 281.801757 
L 228.288281 283.591598 
L 228.542044 280.385426 
L 228.795807 282.208628 
L 229.04957 282.480475 
L 229.303333 284.118777 
L 229.557097 283.469082 
L 229.81086 284.120441 
L 230.064623 283.38545 
L 230.57215 283.155803 
L 230.825913 283.685924 
L 231.079676 282.601614 
L 231.333439 284.92799 
L 231.840966 283.097955 
L 232.094729 283.868736 
L 232.348492 285.011441 
L 232.602256 282.398004 
L 232.856019 284.103798 
L 233.109782 284.024293 
L 233.363545 283.552559 
L 233.871072 285.596314 
L 234.124835 285.565657 
L 234.378598 283.86436 
L 234.886125 285.222889 
L 235.139888 286.511961 
L 235.393651 285.824091 
L 235.647415 286.275038 
L 235.901178 286.022494 
L 236.154941 286.299408 
L 236.408704 289.151926 
L 236.662468 285.159307 
L 236.916231 285.065217 
L 237.169994 286.660156 
L 237.423757 286.696566 
L 237.677521 288.462608 
L 237.931284 286.254778 
L 238.185047 286.626145 
L 238.692574 287.862984 
L 238.946337 285.603101 
L 239.453863 289.190072 
L 239.707627 285.440368 
L 239.96139 288.916895 
L 240.215153 287.324001 
L 240.468916 289.143021 
L 240.72268 289.147528 
L 241.230206 287.351169 
L 241.483969 288.067074 
L 241.991496 290.93567 
L 242.245259 289.604299 
L 242.499022 286.51854 
L 243.006549 292.274877 
L 243.260312 291.131027 
L 243.514075 288.515092 
L 243.767838 291.766749 
L 244.021602 291.310076 
L 244.275365 291.531863 
L 244.529128 290.222581 
L 244.782891 290.204897 
L 245.036655 290.344294 
L 245.290418 290.348013 
L 245.544181 287.287406 
L 245.797944 289.815551 
L 246.051708 290.160291 
L 246.305471 292.805773 
L 246.559234 291.658824 
L 246.812997 292.344097 
L 247.066761 292.361369 
L 247.320524 293.152614 
L 247.574287 290.712365 
L 247.82805 293.200689 
L 248.081814 294.078919 
L 248.335577 288.934741 
L 248.58934 290.922102 
L 248.843103 290.164338 
L 249.35063 294.50009 
L 249.604393 293.923593 
L 249.858156 292.467742 
L 250.11192 293.25658 
L 250.365683 295.33264 
L 250.619446 291.876578 
L 250.873209 292.921818 
L 251.126973 293.217532 
L 251.634499 293.135709 
L 251.888262 291.824169 
L 252.395789 294.723859 
L 252.903315 293.923894 
L 253.157079 294.701756 
L 253.410842 295.014546 
L 253.664605 295.549397 
L 253.918368 295.019398 
L 254.172132 298.49405 
L 254.425895 295.205228 
L 254.679658 295.828174 
L 254.933421 292.667419 
L 255.187185 294.96755 
L 255.440948 296.202138 
L 255.694711 296.499191 
L 255.948474 293.912302 
L 256.202237 294.668818 
L 256.456001 297.505767 
L 256.709764 295.805761 
L 256.963527 296.930696 
L 257.21729 294.183072 
L 257.471054 294.762761 
L 257.724817 299.462612 
L 257.97858 297.481354 
L 258.232343 293.829662 
L 258.73987 297.533091 
L 258.993633 296.935769 
L 259.247396 298.831328 
L 259.50116 299.078139 
L 260.008686 296.941306 
L 260.516213 296.240669 
L 260.769976 297.799728 
L 261.023739 296.475073 
L 261.277502 300.214598 
L 261.531266 300.50575 
L 261.785029 297.552966 
L 262.038792 298.715319 
L 262.292555 295.270068 
L 262.546319 298.201691 
L 262.800082 298.926442 
L 263.053845 300.001734 
L 263.561372 298.361804 
L 264.068898 300.827559 
L 264.322661 298.909363 
L 264.576425 298.260466 
L 264.830188 300.156051 
L 265.083951 300.084787 
L 265.337714 301.944466 
L 265.591478 299.514825 
L 265.845241 301.743129 
L 266.099004 301.27679 
L 266.352767 302.245913 
L 266.606531 301.685624 
L 266.860294 303.420149 
L 267.114057 300.281173 
L 267.621584 302.597797 
L 267.875347 300.745125 
L 268.12911 301.591221 
L 268.382873 300.957178 
L 268.636637 302.178797 
L 268.8904 301.547853 
L 269.144163 302.333318 
L 269.397926 303.688151 
L 269.651689 297.671318 
L 269.905453 301.430631 
L 270.159216 303.417531 
L 270.412979 303.624 
L 270.666742 301.915645 
L 271.174269 306.930032 
L 271.428032 303.704281 
L 271.681795 303.868748 
L 271.935559 305.232589 
L 272.189322 299.844323 
L 272.443085 305.292341 
L 272.696848 303.012388 
L 272.950612 304.748414 
L 273.204375 301.914142 
L 273.458138 304.89586 
L 273.711901 305.967613 
L 273.965665 303.306867 
L 274.219428 306.33069 
L 274.473191 303.496792 
L 274.726954 303.443988 
L 274.980718 305.709196 
L 275.234481 306.771004 
L 275.488244 306.898663 
L 275.742007 308.579612 
L 276.249534 302.971096 
L 276.503297 305.201043 
L 276.75706 305.139318 
L 277.010824 305.997888 
L 277.264587 309.151256 
L 277.772113 306.876703 
L 278.025877 302.371987 
L 278.27964 305.715088 
L 278.533403 304.513742 
L 278.787166 304.576601 
L 279.04093 306.465963 
L 279.294693 303.152857 
L 279.802219 306.884113 
L 280.055983 305.220713 
L 280.309746 307.605337 
L 280.563509 307.499202 
L 280.817272 308.340829 
L 281.071036 307.967947 
L 281.324799 310.795751 
L 281.578562 304.320467 
L 281.832325 309.116062 
L 282.086088 308.353456 
L 282.339852 307.217276 
L 283.101141 307.926585 
L 283.354905 312.603251 
L 283.608668 304.775971 
L 284.116194 309.469984 
L 284.369958 310.626771 
L 284.623721 309.709961 
L 284.877484 307.981993 
L 285.131247 308.419953 
L 285.385011 307.63457 
L 285.638774 309.386582 
L 285.892537 308.647619 
L 286.400064 312.03176 
L 286.653827 307.595604 
L 286.90759 310.344832 
L 287.161353 309.550484 
L 287.415117 308.093199 
L 287.66888 311.936001 
L 287.922643 310.437305 
L 288.176406 309.936619 
L 288.43017 308.249614 
L 288.683933 310.524018 
L 288.937696 311.526484 
L 289.445223 308.024073 
L 289.698986 312.727109 
L 290.460276 306.306457 
L 290.714039 312.895341 
L 290.967802 309.803631 
L 291.221565 308.72648 
L 291.475329 311.043142 
L 291.729092 311.029908 
L 291.982855 312.407146 
L 292.236618 307.882165 
L 292.490382 309.957415 
L 292.744145 313.789489 
L 292.997908 313.044481 
L 293.251671 310.915494 
L 293.505435 312.937099 
L 293.759198 312.071833 
L 294.012961 309.835285 
L 294.520488 314.057081 
L 294.774251 312.168771 
L 295.028014 313.603349 
L 295.281777 310.049552 
L 295.789304 314.539862 
L 296.043067 309.420036 
L 296.29683 315.655735 
L 296.550593 312.670824 
L 297.05812 315.68329 
L 297.311883 316.862236 
L 297.565646 315.308053 
L 297.81941 316.822682 
L 298.073173 311.449139 
L 298.326936 314.065344 
L 298.580699 313.725696 
L 298.834463 316.752021 
L 299.595752 313.337482 
L 299.849516 313.882665 
L 300.103279 310.478892 
L 300.357042 313.870695 
L 300.610805 314.920702 
L 300.864569 313.447987 
L 301.118332 316.408275 
L 301.372095 315.674025 
L 301.625858 316.041097 
L 301.879622 315.548184 
L 302.133385 316.081559 
L 302.387148 312.288844 
L 302.640911 318.293414 
L 302.894675 318.738164 
L 303.148438 315.884805 
L 303.402201 315.343205 
L 303.655964 316.384797 
L 303.909728 315.700314 
L 304.163491 316.354188 
L 304.417254 316.365888 
L 304.671017 318.16994 
L 304.924781 321.050529 
L 305.178544 315.887904 
L 305.432307 313.981041 
L 305.68607 318.371845 
L 305.939834 318.293385 
L 306.193597 317.523061 
L 306.44736 317.66562 
L 306.701123 315.509683 
L 306.954887 316.281514 
L 307.20865 315.630435 
L 307.462413 320.313378 
L 307.716176 312.939044 
L 307.96994 312.893627 
L 308.223703 317.285874 
L 308.477466 318.155963 
L 308.731229 316.439177 
L 308.984992 317.113731 
L 309.492519 320.661349 
L 309.746282 314.750936 
L 310.253809 319.824159 
L 310.507572 315.635877 
L 310.761335 319.602719 
L 311.015098 317.085242 
L 311.268862 317.355568 
L 311.522625 317.926822 
L 311.776388 321.415813 
L 312.283915 316.08363 
L 312.537678 319.034454 
L 312.791441 320.420473 
L 313.298968 320.482296 
L 313.552731 319.719392 
L 313.806494 322.307688 
L 314.314021 318.875847 
L 314.567784 318.820834 
L 314.821547 320.247029 
L 315.07531 320.976184 
L 315.329074 321.168804 
L 315.582837 321.640334 
L 316.090363 319.064352 
L 316.344127 322.869807 
L 316.59789 324.009122 
L 316.851653 322.145252 
L 317.105416 318.69291 
L 317.35918 317.654191 
L 317.612943 314.899523 
L 318.120469 323.166538 
L 318.374233 319.781489 
L 318.627996 324.179085 
L 318.881759 320.865425 
L 319.135522 321.495025 
L 319.389286 318.37275 
L 319.643049 325.160603 
L 319.896812 316.841343 
L 320.150575 316.842612 
L 320.404339 316.562361 
L 320.658102 321.373578 
L 320.911865 323.187405 
L 321.165628 324.182196 
L 321.419392 317.548284 
L 321.673155 323.89449 
L 321.926918 320.059708 
L 322.180681 321.316103 
L 322.434444 321.971242 
L 322.688208 320.797702 
L 322.941971 325.928464 
L 323.195734 324.834909 
L 323.449497 321.5896 
L 323.703261 322.767689 
L 323.957024 327.57924 
L 324.210787 323.507051 
L 324.46455 323.187623 
L 324.718314 320.255355 
L 325.22584 327.23628 
L 325.479603 323.342253 
L 325.733367 321.77906 
L 325.98713 321.215928 
L 326.240893 322.61465 
L 326.74842 327.881987 
L 327.002183 322.872375 
L 327.255946 323.94541 
L 327.509709 327.509795 
L 327.763473 328.09142 
L 328.017236 322.385777 
L 328.270999 322.574492 
L 328.524762 325.836751 
L 328.778526 321.479963 
L 329.032289 327.519098 
L 329.286052 324.986192 
L 329.793579 326.599384 
L 330.047342 326.574276 
L 330.301105 326.360167 
L 330.554868 326.66579 
L 330.808632 329.931792 
L 331.062395 322.203639 
L 331.316158 324.504693 
L 331.569921 329.473519 
L 331.823685 328.208352 
L 332.077448 327.77104 
L 332.331211 324.789735 
L 332.584974 327.454429 
L 332.838738 326.405901 
L 333.092501 326.054454 
L 333.346264 331.233277 
L 333.600027 326.845359 
L 333.853791 326.823192 
L 334.361317 329.732065 
L 334.61508 328.928993 
L 334.868844 324.397581 
L 335.122607 328.943649 
L 335.37637 329.294009 
L 335.630133 329.939063 
L 335.883896 329.216475 
L 336.13766 327.485757 
L 336.391423 329.155884 
L 336.645186 327.597957 
L 336.898949 329.131201 
L 337.152713 325.288715 
L 337.406476 327.101197 
L 337.660239 330.679729 
L 337.914002 326.907578 
L 338.167766 327.035302 
L 338.421529 331.74764 
L 338.675292 330.088753 
L 338.929055 329.23235 
L 339.182819 324.795464 
L 339.436582 327.108179 
L 339.690345 331.302956 
L 339.944108 330.887034 
L 340.197872 330.877282 
L 340.451635 329.786895 
L 340.705398 329.292657 
L 340.959161 329.834555 
L 341.212925 327.765921 
L 341.466688 328.46612 
L 341.720451 325.5567 
L 341.974214 332.364903 
L 342.227978 332.224668 
L 342.481741 321.008231 
L 342.735504 332.281635 
L 342.989267 327.367741 
L 343.243031 331.726751 
L 343.496794 332.417613 
L 343.750557 332.231321 
L 344.00432 328.945627 
L 344.258084 328.109297 
L 344.76561 333.09574 
L 345.019373 332.403732 
L 345.273137 333.322484 
L 345.5269 332.691386 
L 346.034426 330.425428 
L 346.28819 330.910513 
L 346.541953 329.3944 
L 346.795716 330.165784 
L 347.049479 328.79286 
L 347.303243 331.882623 
L 347.557006 332.213231 
L 347.810769 336.250555 
L 348.064532 331.587001 
L 348.318296 332.91233 
L 348.572059 325.651379 
L 348.825822 329.581703 
L 349.079585 331.617096 
L 349.333348 331.149819 
L 349.587112 329.592283 
L 349.840875 329.766523 
L 350.094638 334.468719 
L 350.348401 329.170463 
L 350.602165 335.226141 
L 350.855928 333.857742 
L 351.109691 334.727342 
L 351.363454 334.314039 
L 351.617218 334.70007 
L 351.870981 333.005239 
L 352.124744 328.557462 
L 352.378507 335.225914 
L 352.632271 333.265123 
L 352.886034 334.298384 
L 353.139797 334.61992 
L 353.39356 335.269617 
L 353.647324 335.09938 
L 353.901087 335.097489 
L 354.15485 331.396225 
L 354.408613 333.785146 
L 354.662377 331.796542 
L 354.91614 332.312943 
L 355.169903 337.134213 
L 355.423666 330.588976 
L 355.67743 331.698681 
L 355.931193 333.929026 
L 356.184956 331.835366 
L 356.438719 334.219655 
L 356.692483 331.842755 
L 356.946246 336.175488 
L 357.200009 332.887934 
L 357.453772 338.753216 
L 357.707536 339.779099 
L 357.961299 335.319767 
L 358.215062 336.699788 
L 358.468825 335.058188 
L 358.722589 334.229239 
L 358.976352 337.407823 
L 359.230115 333.003456 
L 359.483878 331.708578 
L 359.737642 333.704167 
L 359.991405 337.08353 
L 360.245168 337.103547 
L 360.498931 336.924404 
L 360.752695 323.547204 
L 361.006458 338.249256 
L 361.513984 331.417293 
L 361.767748 337.000112 
L 362.021511 339.847896 
L 362.275274 335.742126 
L 362.529037 337.075662 
L 362.7828 331.338652 
L 363.036564 337.111492 
L 363.290327 335.929633 
L 363.54409 332.464448 
L 363.797853 337.261621 
L 364.051617 337.659092 
L 364.30538 339.467407 
L 364.559143 338.555465 
L 364.812906 334.585625 
L 365.06667 338.319808 
L 365.320433 334.439651 
L 365.574196 337.147478 
L 365.827959 337.517433 
L 366.081723 335.273577 
L 366.335486 337.899311 
L 366.589249 336.602408 
L 366.843012 336.227122 
L 367.096776 337.762897 
L 367.350539 336.447474 
L 367.604302 336.368241 
L 367.858065 335.999696 
L 368.111829 337.567557 
L 368.365592 336.780244 
L 368.619355 336.991873 
L 368.873118 334.585912 
L 369.126882 337.356908 
L 369.380645 336.842927 
L 369.888171 333.692633 
L 370.141935 338.392753 
L 370.649461 339.587835 
L 370.903224 337.516469 
L 371.156988 340.696228 
L 371.410751 339.480721 
L 371.664514 335.70421 
L 371.918277 338.460283 
L 372.172041 336.249131 
L 372.425804 335.364979 
L 372.93333 340.015347 
L 373.187094 336.440262 
L 373.440857 336.723376 
L 373.69462 338.569197 
L 374.202147 340.685357 
L 374.45591 339.592945 
L 374.709673 339.394695 
L 374.963436 341.152153 
L 375.2172 340.112831 
L 375.470963 338.421104 
L 375.724726 335.738162 
L 375.978489 340.865589 
L 376.232252 341.311467 
L 376.486016 336.752678 
L 376.739779 339.767742 
L 376.993542 339.885012 
L 377.247305 340.549601 
L 377.501069 339.060272 
L 377.754832 336.419479 
L 378.008595 339.405481 
L 378.262358 337.203966 
L 378.516122 338.268214 
L 378.769885 343.403804 
L 379.023648 340.256019 
L 379.277411 340.454849 
L 379.531175 339.364658 
L 379.784938 337.133067 
L 380.038701 340.130491 
L 380.292464 339.62592 
L 380.546228 339.658719 
L 380.799991 337.549973 
L 381.053754 334.280852 
L 381.307517 338.681537 
L 381.561281 340.437215 
L 381.815044 340.953591 
L 382.068807 338.800602 
L 382.32257 343.176848 
L 382.576334 341.903291 
L 382.830097 343.501231 
L 383.08386 336.915358 
L 383.337623 341.954167 
L 383.591387 339.641438 
L 384.098913 343.600177 
L 384.352676 342.709574 
L 384.860203 337.209507 
L 385.113966 340.013214 
L 385.367729 339.465511 
L 385.621493 340.066588 
L 385.875256 341.030256 
L 386.129019 340.688275 
L 386.382782 343.316283 
L 386.636546 340.939692 
L 386.890309 340.766715 
L 387.144072 338.121126 
L 387.397835 341.390072 
L 387.651599 341.403248 
L 387.905362 343.494853 
L 388.159125 343.497389 
L 388.412888 340.751782 
L 388.666652 342.878162 
L 388.920415 341.45408 
L 389.174178 344.365956 
L 389.681704 341.579597 
L 389.935468 339.142748 
L 390.189231 343.0428 
L 390.442994 339.66019 
L 390.696757 339.892113 
L 391.204284 344.23359 
L 391.458047 346.142676 
L 391.71181 342.387806 
L 391.965574 342.036148 
L 392.219337 342.315328 
L 392.4731 341.515512 
L 392.726863 345.555021 
L 392.980627 342.452352 
L 393.23439 341.616599 
L 393.488153 342.175384 
L 393.741916 343.15824 
L 393.99568 345.804979 
L 394.249443 342.646016 
L 394.503206 344.522439 
L 394.756969 342.416964 
L 395.010733 341.56119 
L 395.264496 345.493888 
L 395.518259 346.165529 
L 395.772022 342.768425 
L 396.025786 344.440583 
L 396.279549 342.125354 
L 396.533312 342.192504 
L 396.787075 343.926678 
L 397.040839 340.718801 
L 397.294602 341.613473 
L 397.548365 344.906039 
L 397.802128 344.417916 
L 398.055892 339.796393 
L 398.309655 345.922063 
L 398.563418 345.964951 
L 398.817181 346.250213 
L 399.070945 343.980113 
L 399.324708 346.358341 
L 399.578471 344.523795 
L 399.832234 340.489796 
L 400.085998 345.217899 
L 400.339761 345.649153 
L 400.593524 346.806683 
L 400.847287 342.990686 
L 401.101051 344.834981 
L 401.354814 342.727687 
L 401.608577 343.001996 
L 401.86234 343.923956 
L 402.116104 341.331075 
L 402.62363 345.603287 
L 402.877393 344.281233 
L 403.131156 343.598807 
L 403.38492 343.962417 
L 403.638683 347.047474 
L 403.892446 344.069595 
L 404.146209 345.665944 
L 404.399973 344.07201 
L 404.653736 347.401133 
L 404.907499 345.429828 
L 405.161262 346.974171 
L 405.415026 343.643158 
L 405.668789 346.377303 
L 405.922552 343.649408 
L 406.176315 345.95494 
L 406.430079 345.833252 
L 406.937605 344.263287 
L 407.191368 348.206574 
L 407.445132 348.467302 
L 407.698895 343.53288 
L 407.952658 341.453272 
L 408.206421 344.27288 
L 408.460185 342.081643 
L 408.713948 342.700636 
L 408.967711 345.595335 
L 409.221474 344.943331 
L 409.729001 344.485558 
L 409.982764 345.645527 
L 410.236527 345.989243 
L 410.490291 345.419783 
L 410.744054 349.336897 
L 410.997817 344.383908 
L 411.25158 347.144328 
L 411.505344 345.239418 
L 411.759107 348.776918 
L 412.01287 349.170374 
L 412.266633 346.470374 
L 412.520397 346.710592 
L 413.281686 343.647194 
L 413.53545 346.252682 
L 413.789213 346.845236 
L 414.042976 346.409586 
L 414.296739 347.777249 
L 414.550503 346.957634 
L 414.804266 350.524248 
L 415.058029 344.475209 
L 415.311792 348.972291 
L 415.565556 343.904712 
L 415.819319 346.437406 
L 416.073082 345.865296 
L 416.326845 345.84196 
L 416.834372 350.242937 
L 417.595661 346.058379 
L 417.849425 346.244587 
L 418.103188 349.686776 
L 418.356951 344.334667 
L 418.610714 348.229704 
L 418.864478 348.726706 
L 419.118241 346.632927 
L 419.372004 348.511116 
L 419.879531 346.178534 
L 420.133294 347.56955 
L 420.387057 349.826355 
L 420.64082 346.729863 
L 420.894584 349.467848 
L 421.148347 345.094164 
L 421.40211 343.949467 
L 421.655873 346.458245 
L 421.909637 351.296492 
L 422.1634 342.931071 
L 422.417163 347.890487 
L 422.670926 349.581295 
L 422.92469 345.840965 
L 423.178453 348.878437 
L 423.685979 346.469686 
L 423.939743 352.522279 
L 424.193506 349.957001 
L 424.447269 349.640133 
L 424.701032 345.134269 
L 424.954796 350.418365 
L 425.208559 345.676314 
L 425.462322 348.941595 
L 425.969849 348.432425 
L 426.223612 348.701808 
L 426.477375 344.220095 
L 426.731138 348.290468 
L 426.984902 349.402877 
L 427.238665 347.307185 
L 427.746191 349.425408 
L 427.999955 349.942738 
L 428.253718 350.935162 
L 428.507481 352.860739 
L 428.761244 351.350956 
L 429.015008 352.328724 
L 429.522534 345.921772 
L 429.776297 345.298985 
L 430.03006 351.112147 
L 430.537587 346.924399 
L 431.045113 351.543102 
L 431.298877 350.740256 
L 431.55264 350.379825 
L 431.806403 350.386512 
L 432.060166 350.860405 
L 432.31393 349.143443 
L 432.567693 348.786673 
L 432.821456 350.119296 
L 433.075219 349.764691 
L 433.582746 351.590074 
L 433.836509 350.976103 
L 434.090272 351.360369 
L 434.344036 350.211846 
L 434.597799 351.084449 
L 434.851562 351.045663 
L 435.105325 351.56329 
L 435.359089 346.354148 
L 435.612852 351.963941 
L 435.866615 349.340486 
L 436.120378 348.329635 
L 436.374142 348.45927 
L 436.627905 349.742467 
L 436.881668 352.222967 
L 437.135431 349.3359 
L 437.389195 350.253854 
L 437.642958 349.989194 
L 437.896721 351.377207 
L 438.150484 351.108048 
L 438.404248 348.578722 
L 438.658011 350.558964 
L 438.911774 350.46449 
L 439.165537 349.576387 
L 439.419301 350.602924 
L 439.673064 350.052875 
L 439.926827 351.220153 
L 440.18059 349.593523 
L 440.434354 351.1569 
L 440.688117 351.112731 
L 440.94188 350.701527 
L 441.195643 348.326799 
L 441.70317 353.9035 
L 441.956933 350.356025 
L 442.210696 354.081174 
L 442.46446 350.934589 
L 442.718223 349.866863 
L 442.971986 352.993385 
L 443.225749 350.094918 
L 443.479512 354.175931 
L 443.733276 352.839605 
L 443.987039 350.043043 
L 444.240802 349.77704 
L 444.748329 351.87241 
L 445.002092 349.16057 
L 445.255855 348.829626 
L 445.509618 351.44229 
L 445.763382 351.627812 
L 446.270908 350.338992 
L 446.524671 351.218378 
L 446.778435 348.659273 
L 447.032198 349.029778 
L 447.285961 353.176358 
L 447.539724 349.248443 
L 447.793488 352.820825 
L 448.047251 350.030935 
L 448.301014 350.801798 
L 448.554777 347.955744 
L 449.062304 353.727541 
L 449.316067 350.061731 
L 449.56983 351.043313 
L 449.823594 353.782786 
L 450.077357 353.157515 
L 450.33112 351.172707 
L 450.584883 352.903624 
L 450.838647 348.552456 
L 451.09241 353.832454 
L 451.346173 349.939136 
L 451.599936 350.424593 
L 451.8537 353.749851 
L 452.107463 353.363142 
L 452.361226 350.55289 
L 452.614989 350.242162 
L 452.868753 354.008636 
L 453.122516 352.687653 
L 453.630042 355.494097 
L 453.883806 350.690686 
L 454.137569 356.888714 
L 454.391332 352.162122 
L 454.645095 352.893784 
L 454.898859 349.506241 
L 455.152622 352.914803 
L 455.406385 352.586811 
L 455.660148 354.52776 
L 455.913912 349.372843 
L 456.167675 350.563043 
L 456.421438 354.068195 
L 456.675201 354.590074 
L 456.928964 353.318097 
L 457.182728 349.050295 
L 457.436491 355.978769 
L 457.690254 350.345795 
L 457.944017 355.34874 
L 458.197781 350.904917 
L 458.451544 352.93108 
L 458.705307 351.83156 
L 458.95907 354.687159 
L 459.212834 350.483127 
L 459.466597 357.352849 
L 459.974123 352.073582 
L 460.227887 353.843607 
L 460.48165 351.474701 
L 460.735413 353.9297 
L 460.989176 354.200841 
L 461.24294 353.370614 
L 461.496703 355.811874 
L 461.750466 353.367701 
L 462.004229 355.051614 
L 462.257993 350.459984 
L 462.511756 354.005485 
L 463.019282 351.068908 
L 463.273046 354.813395 
L 463.526809 353.059511 
L 463.780572 354.693257 
L 464.288099 353.625793 
L 464.795625 353.153705 
L 465.049388 355.957065 
L 465.303152 349.369712 
L 465.556915 355.245485 
L 465.810678 357.860757 
L 466.318205 354.046707 
L 466.571968 353.368463 
L 466.825731 355.004686 
L 467.079494 354.952581 
L 467.333258 354.398631 
L 467.587021 353.478626 
L 467.840784 350.60488 
L 468.094547 352.365358 
L 468.348311 349.916486 
L 468.602074 353.848723 
L 468.855837 352.884756 
L 469.1096 355.589757 
L 469.363363 355.436195 
L 469.617127 353.109789 
L 469.87089 351.998102 
L 470.124653 353.732794 
L 470.378416 356.56822 
L 470.63218 355.066474 
L 471.139706 353.731918 
L 471.393469 356.683557 
L 471.647233 353.319325 
L 471.900996 353.459899 
L 472.154759 356.318547 
L 472.408522 350.753281 
L 472.662286 354.522586 
L 472.916049 355.641544 
L 473.169812 354.443298 
L 473.423575 349.533984 
L 473.677339 352.087134 
L 473.931102 352.975305 
L 474.184865 353.417657 
L 474.438628 354.389224 
L 474.692392 351.653095 
L 474.946155 356.970314 
L 475.199918 357.341918 
L 475.453681 357.074959 
L 475.707445 354.410609 
L 475.961208 355.394215 
L 476.214971 352.2452 
L 476.722498 356.803466 
L 476.976261 355.95632 
L 477.230024 356.777049 
L 477.483787 358.064993 
L 477.737551 354.175883 
L 477.991314 354.669341 
L 478.245077 353.641042 
L 478.49884 353.783536 
L 478.752604 356.501115 
L 479.006367 353.568286 
L 479.26013 354.18564 
L 479.513893 356.15792 
L 480.02142 353.166299 
L 480.275183 357.072517 
L 480.528946 356.847023 
L 480.78271 352.038082 
L 481.036473 355.882675 
L 481.290236 354.928472 
L 481.543999 356.280245 
L 481.797763 356.705302 
L 482.051526 356.101187 
L 482.305289 358.001405 
L 482.812815 354.792553 
L 483.320342 357.354433 
L 484.081632 354.382835 
L 484.335395 354.868672 
L 484.842921 357.15114 
L 485.350448 354.840942 
L 485.604211 356.866075 
L 485.857974 356.96221 
L 486.111738 356.88259 
L 486.365501 357.541813 
L 486.619264 357.285703 
L 486.873027 357.192907 
L 487.380554 355.838152 
L 487.634317 358.300384 
L 487.88808 354.673894 
L 488.141844 355.097591 
L 488.395607 355.253197 
L 488.64937 356.992939 
L 488.903133 355.586243 
L 489.41066 358.597837 
L 489.664423 355.95216 
L 489.918186 356.172927 
L 490.17195 354.744084 
L 490.679476 358.619126 
L 490.933239 354.337024 
L 491.440766 356.487152 
L 491.694529 355.95084 
L 491.948292 355.824443 
L 492.202056 356.615973 
L 492.455819 355.501004 
L 492.709582 359.133787 
L 492.963345 358.072573 
L 493.217109 356.134307 
L 493.470872 358.963345 
L 493.724635 358.372326 
L 493.978398 358.330436 
L 494.232162 355.128662 
L 494.485925 357.696223 
L 494.739688 357.262318 
L 494.993451 359.99177 
L 495.247215 353.580334 
L 495.500978 359.509829 
L 495.754741 355.801937 
L 496.008504 356.115003 
L 496.516031 358.862102 
L 496.769794 358.724338 
L 497.023557 354.445166 
L 497.27732 355.790076 
L 497.531084 352.336464 
L 498.03861 359.751732 
L 498.292373 354.179254 
L 498.546137 354.630489 
L 498.7999 356.89528 
L 499.053663 357.103427 
L 499.307426 357.686884 
L 499.56119 357.173781 
L 499.814953 355.928596 
L 500.068716 358.033235 
L 500.322479 357.35588 
L 500.576243 357.627217 
L 500.830006 358.716097 
L 501.083769 356.265154 
L 501.337532 358.31413 
L 501.845059 355.293709 
L 502.098822 355.665415 
L 502.352585 356.374349 
L 502.860112 356.628338 
L 503.113875 357.610659 
L 503.367638 358.105522 
L 503.621402 357.183981 
L 503.875165 358.896904 
L 504.128928 358.318915 
L 504.382691 359.444833 
L 504.890218 360.465774 
L 505.143981 356.459894 
L 505.397744 359.477813 
L 505.905271 355.749336 
L 506.412797 361.642589 
L 506.666561 357.349804 
L 506.920324 356.812683 
L 507.681614 360.375768 
L 508.18914 358.221289 
L 508.442903 359.858918 
L 508.696667 356.496535 
L 508.95043 361.258443 
L 509.204193 356.158165 
L 509.457956 353.626077 
L 509.711719 359.166831 
L 509.965483 357.287634 
L 510.219246 359.523594 
L 510.473009 357.887048 
L 510.726772 360.883709 
L 510.980536 358.056534 
L 511.234299 358.177253 
L 511.488062 359.816982 
L 511.741825 358.091265 
L 511.995589 359.369879 
L 512.249352 357.57681 
L 512.503115 357.156026 
L 512.756878 362.280981 
L 513.010642 358.842694 
L 513.264405 360.011645 
L 513.518168 355.734198 
L 513.771931 357.382089 
L 514.025695 361.313309 
L 514.279458 361.033704 
L 514.786984 358.647391 
L 515.040748 358.61823 
L 515.294511 358.857374 
L 515.548274 360.502287 
L 515.802037 358.362589 
L 516.055801 359.240905 
L 516.309564 359.333722 
L 516.563327 358.511952 
L 517.324617 361.707036 
L 517.57838 358.592569 
L 517.832143 361.823329 
L 518.085907 358.800284 
L 518.33967 360.946942 
L 518.593433 360.381374 
L 519.10096 360.415813 
L 519.354723 357.893943 
L 519.608486 361.070603 
L 519.862249 361.544243 
L 520.116013 359.693421 
L 520.369776 359.575365 
L 520.623539 360.696744 
L 520.877302 359.255792 
L 521.131066 360.18584 
L 521.384829 359.319457 
L 521.638592 359.703087 
L 521.892355 361.330262 
L 522.146119 355.685087 
L 522.399882 359.468365 
L 522.653645 359.723187 
L 522.907408 357.93086 
L 523.161171 360.357878 
L 523.414935 358.129545 
L 523.668698 357.673519 
L 523.922461 359.640207 
L 524.176224 356.337951 
L 524.429988 362.554454 
L 524.683751 361.571423 
L 524.937514 359.947772 
L 525.191277 360.06388 
L 525.445041 361.19668 
L 525.698804 359.58848 
L 525.952567 359.907858 
L 526.20633 359.782953 
L 526.460094 359.438789 
L 526.96762 360.462917 
L 527.221383 360.10094 
L 527.475147 353.973222 
L 527.72891 358.66619 
L 527.982673 358.640232 
L 528.236436 362.4612 
L 528.4902 359.938196 
L 528.743963 358.682352 
L 528.997726 361.313983 
L 529.251489 362.1189 
L 529.505253 359.590885 
L 529.759016 360.493226 
L 530.012779 359.122182 
L 530.266542 359.286543 
L 530.520306 361.280812 
L 530.774069 360.476733 
L 531.027832 362.496668 
L 531.281595 358.110699 
L 531.535359 359.190227 
L 531.789122 365.49426 
L 532.042885 357.529456 
L 532.296648 363.458796 
L 532.550412 359.786009 
L 532.804175 358.448038 
L 533.311701 361.862368 
L 533.565465 362.920535 
L 534.072991 358.840909 
L 534.326754 361.97336 
L 534.580518 359.883978 
L 534.834281 359.214125 
L 535.088044 360.762857 
L 535.341807 360.313052 
L 535.595571 359.140721 
L 535.849334 361.975789 
L 536.103097 358.503241 
L 536.35686 360.37357 
L 536.610623 360.827881 
L 536.864387 360.452967 
L 537.11815 358.92671 
L 537.371913 362.095845 
L 537.625676 362.813061 
L 537.87944 362.980221 
L 538.133203 358.949401 
L 538.386966 357.544505 
L 538.640729 362.623809 
L 539.148256 361.80761 
L 539.402019 362.436319 
L 539.655782 359.57192 
L 539.909546 362.985223 
L 540.163309 359.066518 
L 540.417072 362.019933 
L 540.670835 361.301725 
L 540.924599 362.786564 
L 541.178362 359.355006 
L 541.685888 362.820785 
L 541.939652 362.923773 
L 542.193415 359.3912 
L 542.447178 362.309181 
L 542.700941 361.750508 
L 542.954705 361.823778 
L 543.208468 361.389996 
L 543.462231 360.367188 
L 543.715994 362.364513 
L 543.969758 361.574092 
L 544.223521 361.904022 
L 544.477284 356.637223 
L 544.731047 362.45964 
L 544.984811 362.345189 
L 545.238574 361.287534 
L 545.492337 361.015637 
L 545.7461 361.174343 
L 545.999864 358.504742 
L 546.50739 362.64393 
L 546.761153 363.771701 
L 547.014917 360.34405 
L 547.26868 364.587925 
L 547.522443 361.068346 
L 548.02997 364.011681 
L 548.283733 361.976462 
L 548.791259 360.865692 
L 549.045023 362.664942 
L 549.298786 359.33783 
L 549.552549 361.70736 
L 549.806312 362.086117 
L 550.060075 361.495897 
L 550.313839 362.53998 
L 550.567602 359.780145 
L 550.821365 363.054034 
L 551.075128 360.096514 
L 551.328892 361.04945 
L 551.582655 363.865947 
L 551.836418 362.278288 
L 552.090181 362.611675 
L 552.343945 360.395717 
L 552.597708 362.711863 
L 552.851471 362.964273 
L 553.105234 363.823817 
L 553.358998 363.583127 
L 553.612761 362.593245 
L 553.866524 361.083936 
L 554.120287 362.728526 
L 554.374051 363.381703 
L 554.627814 365.376617 
L 554.881577 359.220771 
L 555.13534 367.039761 
L 555.389104 363.110147 
L 555.642867 365.106175 
L 555.89663 359.477517 
L 556.150393 363.657774 
L 556.404157 362.427795 
L 556.65792 363.343337 
L 556.911683 361.427687 
L 557.165446 363.812351 
L 557.41921 363.493184 
L 557.672973 363.377809 
L 557.926736 363.719817 
L 558.180499 363.566795 
L 558.434263 360.287912 
L 558.688026 362.769881 
L 558.941789 363.745674 
L 559.195552 360.271518 
L 559.449316 360.012129 
L 559.956842 363.793343 
L 560.210605 360.339306 
L 560.464369 362.830751 
L 560.718132 360.406761 
L 560.971895 362.015429 
L 561.479422 358.955134 
L 561.733185 361.202154 
L 561.986948 366.210051 
L 562.240711 363.777469 
L 562.494475 363.077135 
L 562.748238 359.191883 
L 563.255764 364.276477 
L 563.509527 364.384752 
L 564.017054 362.064606 
L 564.52458 365.876344 
L 564.778344 366.28411 
L 565.032107 364.053699 
L 565.28587 363.425254 
L 565.539633 362.251924 
L 565.793397 363.217975 
L 566.04716 365.4203 
L 566.300923 363.039191 
L 566.554686 363.783984 
L 566.80845 363.174614 
L 567.062213 364.663288 
L 567.315976 362.355885 
L 567.569739 362.877644 
L 567.823503 363.894955 
L 568.077266 362.09255 
L 568.331029 361.169384 
L 568.584792 362.52402 
L 568.838556 362.757106 
L 569.092319 362.114001 
L 569.346082 367.10542 
L 569.599845 362.954771 
L 570.107372 364.95253 
L 570.361135 365.587068 
L 570.614898 363.816033 
L 570.868662 364.626127 
L 571.122425 364.649214 
L 571.376188 360.494514 
L 571.629951 365.118688 
L 571.883715 361.879716 
L 572.137478 366.428333 
L 572.391241 362.597189 
L 572.645004 363.06541 
L 572.898768 362.231881 
L 573.152531 363.872641 
L 573.406294 363.878485 
L 573.913821 367.186514 
L 574.167584 362.33098 
L 574.421347 364.257585 
L 574.67511 365.304954 
L 574.928874 363.693547 
L 575.182637 364.949519 
L 575.4364 360.359122 
L 575.690163 367.112149 
L 575.943927 363.107061 
L 576.19769 365.739388 
L 576.451453 366.850713 
L 576.705216 365.041312 
L 576.958979 365.921595 
L 577.212743 362.262 
L 577.466506 365.931446 
L 577.720269 366.863138 
L 577.974032 365.131809 
L 578.227796 364.241496 
L 578.481559 360.926765 
L 578.735322 365.227976 
L 578.989085 362.027682 
L 579.242849 365.074833 
L 579.496612 364.04439 
L 579.750375 360.698023 
L 580.004138 366.550804 
L 580.257902 362.82559 
L 580.511665 361.921261 
L 580.765428 365.395453 
L 581.019191 365.961464 
L 581.272955 364.85054 
L 581.526718 362.199189 
L 581.780481 366.627762 
L 582.034244 365.394518 
L 582.288008 365.95579 
L 582.541771 363.059436 
L 582.795534 365.690981 
L 583.049297 365.867265 
L 583.303061 366.522554 
L 583.556824 362.689178 
L 583.810587 363.605262 
L 584.06435 363.1765 
L 584.318114 365.54116 
L 584.571877 362.243271 
L 584.82564 366.641279 
L 585.079403 361.896671 
L 585.333167 364.087549 
L 585.58693 364.400212 
L 585.840693 361.606236 
L 586.094456 364.423308 
L 586.34822 364.034519 
L 586.601983 364.776392 
L 586.855746 363.91327 
L 587.363273 367.193252 
L 587.617036 363.498297 
L 587.870799 366.246764 
L 588.124562 364.746717 
L 588.378326 365.008774 
L 588.632089 366.320106 
L 588.885852 361.214274 
L 589.139615 365.781749 
L 589.393379 366.383953 
L 589.647142 368.23056 
L 589.900905 364.339109 
L 590.154668 366.31455 
L 590.408431 364.440919 
L 590.662195 365.909264 
L 591.169721 363.62236 
L 591.423484 365.284528 
L 591.931011 362.693596 
L 592.184774 364.011315 
L 592.438537 363.637864 
L 592.692301 365.229052 
L 592.946064 365.576052 
L 593.199827 363.102725 
L 593.45359 366.401843 
L 593.707354 364.337325 
L 593.961117 366.260466 
L 594.21488 366.398539 
L 594.468643 365.910334 
L 594.722407 366.868731 
L 594.97617 366.601783 
L 595.229933 363.648291 
L 595.483696 363.59203 
L 595.73746 364.234376 
L 595.991223 365.732531 
L 596.244986 365.137857 
L 596.498749 367.603578 
L 596.752513 366.571338 
L 597.006276 367.058684 
L 597.260039 362.374413 
L 597.513802 365.615227 
L 597.767566 365.298136 
L 598.021329 362.938379 
L 598.275092 365.698518 
L 598.528855 365.383696 
L 598.782619 366.974223 
L 599.036382 366.099719 
L 599.290145 368.561254 
L 599.543908 367.656258 
L 599.797672 368.178361 
L 600.558961 365.023446 
L 600.812725 363.197704 
L 601.066488 364.964255 
L 601.574014 366.103123 
L 601.827778 366.374769 
L 602.335304 364.893012 
L 602.589067 366.737143 
L 602.842831 366.507895 
L 603.096594 367.448916 
L 603.350357 365.2595 
L 603.60412 365.576386 
L 603.857883 364.445531 
L 604.111647 365.589296 
L 604.36541 365.962787 
L 604.619173 365.378442 
L 604.872936 365.7728 
L 605.1267 366.910068 
L 605.380463 366.970132 
L 605.634226 366.90727 
L 605.887989 365.464644 
L 606.141753 367.630984 
L 606.395516 365.763098 
L 606.649279 365.998805 
L 606.903042 368.696129 
L 607.156806 364.352385 
L 607.410569 366.473853 
L 607.664332 366.155885 
L 607.918095 367.21608 
L 608.171859 366.801486 
L 608.425622 365.413452 
L 608.679385 366.301291 
L 608.933148 365.266315 
L 609.186912 365.15346 
L 609.440675 365.784963 
L 609.694438 365.858273 
L 609.948201 363.331408 
L 610.455728 365.504115 
L 610.963254 365.881251 
L 611.217018 368.282955 
L 611.470781 366.326703 
L 611.724544 369.36 
L 611.978307 366.88349 
L 612.232071 368.355118 
L 612.739597 366.101384 
L 612.99336 367.065886 
L 613.247124 366.195612 
L 613.500887 368.324895 
L 613.75465 365.74033 
L 614.262177 364.221258 
L 614.51594 367.518518 
L 614.769703 367.246306 
L 615.023466 365.799818 
L 615.27723 366.272688 
L 615.530993 364.510879 
L 615.784756 367.922537 
L 616.038519 367.692179 
L 616.292283 365.135082 
L 616.546046 367.260968 
L 616.799809 365.895098 
L 617.053572 367.193202 
L 617.307335 365.767072 
L 617.561099 366.43155 
L 617.814862 367.564014 
L 618.068625 365.383207 
L 618.322388 369.116772 
L 618.576152 364.416589 
L 618.829915 367.322514 
L 619.083678 368.543614 
L 619.337441 366.736374 
L 619.591205 368.536982 
L 619.844968 366.615613 
L 620.098731 366.283297 
L 620.352494 368.315112 
L 620.606258 366.091956 
L 620.860021 368.031077 
L 621.113784 368.209751 
L 621.875074 364.974444 
L 622.128837 365.631463 
L 622.3826 364.202786 
L 622.636364 368.674155 
L 622.636364 368.674155 
" clip-path="url(#pfd1a7dea4b)" style="fill: none; stroke: #1f77b4; stroke-width: 1.5; stroke-linecap: square"/>
   </g>
   <g id="patch_3">
    <path d="M 90 384.48 
L 90 51.84 
" style="fill: none; stroke: #000000; stroke-width: 0.8; stroke-linejoin: miter; stroke-linecap: square"/>
   </g>
   <g id="patch_4">
    <path d="M 648 384.48 
L 648 51.84 
" style="fill: none; stroke: #000000; stroke-width: 0.8; stroke-linejoin: miter; stroke-linecap: square"/>
   </g>
   <g id="patch_5">
    <path d="M 90 384.48 
L 648 384.48 
" style="fill: none; stroke: #000000; stroke-width: 0.8; stroke-linejoin: miter; stroke-linecap: square"/>
   </g>
   <g id="patch_6">
    <path d="M 90 51.84 
L 648 51.84 
" style="fill: none; stroke: #000000; stroke-width: 0.8; stroke-linejoin: miter; stroke-linecap: square"/>
   </g>
   <g id="text_18">
    <!-- Training Loss Curve -->
    <g transform="translate(312 45.84) scale(0.12 -0.12)">
     <defs>
      <path id="SimHei-54" d="M 2850 3925 
L 1850 3925 
L 1850 125 
L 1275 125 
L 1275 3925 
L 275 3925 
L 275 4400 
L 2850 4400 
L 2850 3925 
z
" transform="scale(0.015625)"/>
      <path id="SimHei-67" d="M 2975 2500 
Q 2800 2550 2637 2562 
Q 2475 2575 2300 2525 
Q 2375 2450 2425 2337 
Q 2475 2225 2475 2000 
Q 2475 1575 2187 1300 
Q 1900 1025 1475 1025 
Q 1375 1025 1212 1062 
Q 1050 1100 950 1150 
Q 875 1100 850 1050 
Q 825 1000 825 925 
Q 825 800 1000 737 
Q 1175 675 1625 675 
Q 2350 675 2612 475 
Q 2875 275 2875 -25 
Q 2875 -425 2487 -612 
Q 2100 -800 1575 -800 
Q 900 -800 575 -625 
Q 250 -450 250 -150 
Q 250 0 375 150 
Q 500 300 700 400 
Q 550 475 462 587 
Q 375 700 375 875 
Q 375 1025 487 1137 
Q 600 1250 750 1325 
Q 625 1450 550 1625 
Q 475 1800 475 2000 
Q 475 2425 762 2700 
Q 1050 2975 1475 2975 
Q 1700 2975 1862 2912 
Q 2025 2850 2150 2725 
Q 2350 2875 2550 2937 
Q 2750 3000 2975 2975 
L 2975 2500 
z
M 1975 2000 
Q 1975 2250 1850 2400 
Q 1725 2550 1475 2550 
Q 1225 2550 1100 2400 
Q 975 2250 975 2000 
Q 975 1750 1100 1600 
Q 1225 1450 1475 1450 
Q 1725 1450 1850 1600 
Q 1975 1750 1975 2000 
z
M 2400 -75 
Q 2400 25 2287 125 
Q 2175 225 1725 225 
Q 1625 225 1450 237 
Q 1275 250 1050 275 
Q 850 200 775 100 
Q 700 0 700 -100 
Q 700 -250 900 -350 
Q 1100 -450 1600 -450 
Q 2025 -450 2212 -337 
Q 2400 -225 2400 -75 
z
" transform="scale(0.015625)"/>
      <path id="SimHei-20" transform="scale(0.015625)"/>
      <path id="SimHei-43" d="M 2975 1825 
Q 2950 875 2575 475 
Q 2200 75 1675 75 
Q 1075 75 650 562 
Q 225 1050 225 2125 
Q 225 3300 637 3875 
Q 1050 4450 1700 4450 
Q 2250 4450 2612 4037 
Q 2975 3625 2950 2875 
L 2400 2875 
Q 2400 3425 2225 3700 
Q 2050 3975 1700 3975 
Q 1300 3975 1062 3562 
Q 825 3150 825 2175 
Q 825 1275 1062 912 
Q 1300 550 1675 550 
Q 1950 550 2175 812 
Q 2400 1075 2400 1825 
L 2975 1825 
z
" transform="scale(0.015625)"/>
      <path id="SimHei-75" d="M 2800 125 
L 2300 125 
L 2300 650 
Q 2100 375 1862 225 
Q 1625 75 1250 75 
Q 800 75 575 325 
Q 350 575 350 950 
L 350 2925 
L 850 2925 
L 850 1125 
Q 850 825 1000 650 
Q 1150 475 1400 475 
Q 1725 475 2012 812 
Q 2300 1150 2300 1650 
L 2300 2925 
L 2800 2925 
L 2800 125 
z
" transform="scale(0.015625)"/>
      <path id="SimHei-76" d="M 2875 2925 
L 1825 75 
L 1275 75 
L 225 2925 
L 750 2925 
L 1525 750 
L 1575 750 
L 2350 2925 
L 2875 2925 
z
" transform="scale(0.015625)"/>
     </defs>
     <use xlink:href="#SimHei-54"/>
     <use xlink:href="#SimHei-72" transform="translate(50 0)"/>
     <use xlink:href="#SimHei-61" transform="translate(100 0)"/>
     <use xlink:href="#SimHei-69" transform="translate(150 0)"/>
     <use xlink:href="#SimHei-6e" transform="translate(200 0)"/>
     <use xlink:href="#SimHei-69" transform="translate(250 0)"/>
     <use xlink:href="#SimHei-6e" transform="translate(300 0)"/>
     <use xlink:href="#SimHei-67" transform="translate(350 0)"/>
     <use xlink:href="#SimHei-20" transform="translate(400 0)"/>
     <use xlink:href="#SimHei-4c" transform="translate(450 0)"/>
     <use xlink:href="#SimHei-6f" transform="translate(500 0)"/>
     <use xlink:href="#SimHei-73" transform="translate(550 0)"/>
     <use xlink:href="#SimHei-73" transform="translate(600 0)"/>
     <use xlink:href="#SimHei-20" transform="translate(650 0)"/>
     <use xlink:href="#SimHei-43" transform="translate(700 0)"/>
     <use xlink:href="#SimHei-75" transform="translate(750 0)"/>
     <use xlink:href="#SimHei-72" transform="translate(800 0)"/>
     <use xlink:href="#SimHei-76" transform="translate(850 0)"/>
     <use xlink:href="#SimHei-65" transform="translate(900 0)"/>
    </g>
   </g>
   <g id="legend_1">
    <g id="patch_7">
     <path d="M 559 73.09 
L 641 73.09 
Q 643 73.09 643 71.09 
L 643 58.84 
Q 643 56.84 641 56.84 
L 559 56.84 
Q 557 56.84 557 58.84 
L 557 71.09 
Q 557 73.09 559 73.09 
z
" style="fill: #ffffff; opacity: 0.8; stroke: #cccccc; stroke-linejoin: miter"/>
    </g>
    <g id="line2d_32">
     <path d="M 561 64.34 
L 571 64.34 
L 581 64.34 
" style="fill: none; stroke: #1f77b4; stroke-width: 1.5; stroke-linecap: square"/>
    </g>
    <g id="text_19">
     <!-- Loss Curve -->
     <g transform="translate(589 67.84) scale(0.1 -0.1)">
      <use xlink:href="#SimHei-4c"/>
      <use xlink:href="#SimHei-6f" transform="translate(50 0)"/>
      <use xlink:href="#SimHei-73" transform="translate(100 0)"/>
      <use xlink:href="#SimHei-73" transform="translate(150 0)"/>
      <use xlink:href="#SimHei-20" transform="translate(200 0)"/>
      <use xlink:href="#SimHei-43" transform="translate(250 0)"/>
      <use xlink:href="#SimHei-75" transform="translate(300 0)"/>
      <use xlink:href="#SimHei-72" transform="translate(350 0)"/>
      <use xlink:href="#SimHei-76" transform="translate(400 0)"/>
      <use xlink:href="#SimHei-65" transform="translate(450 0)"/>
     </g>
    </g>
   </g>
  </g>
 </g>
 <defs>
  <clipPath id="pfd1a7dea4b">
   <rect x="90" y="51.84" width="558" height="332.64"/>
  </clipPath>
 </defs>
</svg>
