<?xml version="1.0" encoding="utf-8" standalone="no"?>
<!DOCTYPE svg PUBLIC "-//W3C//DTD SVG 1.1//EN"
  "http://www.w3.org/Graphics/SVG/1.1/DTD/svg11.dtd">
<svg xmlns:xlink="http://www.w3.org/1999/xlink" width="720pt" height="432pt" viewBox="0 0 720 432" xmlns="http://www.w3.org/2000/svg" version="1.1">
 <metadata>
  <rdf:RDF xmlns:dc="http://purl.org/dc/elements/1.1/" xmlns:cc="http://creativecommons.org/ns#" xmlns:rdf="http://www.w3.org/1999/02/22-rdf-syntax-ns#">
   <cc:Work>
    <dc:type rdf:resource="http://purl.org/dc/dcmitype/StillImage"/>
    <dc:date>2025-04-24T11:57:09.005089</dc:date>
    <dc:format>image/svg+xml</dc:format>
    <dc:creator>
     <cc:Agent>
      <dc:title>Matplotlib v3.10.1, https://matplotlib.org/</dc:title>
     </cc:Agent>
    </dc:creator>
   </cc:Work>
  </rdf:RDF>
 </metadata>
 <defs>
  <style type="text/css">*{stroke-linejoin: round; stroke-linecap: butt}</style>
 </defs>
 <g id="figure_1">
  <g id="patch_1">
   <path d="M 0 432 
L 720 432 
L 720 0 
L 0 0 
z
" style="fill: #ffffff"/>
  </g>
  <g id="axes_1">
   <g id="patch_2">
    <path d="M 90 384.48 
L 648 384.48 
L 648 51.84 
L 90 51.84 
z
" style="fill: #ffffff"/>
   </g>
   <g id="matplotlib.axis_1">
    <g id="xtick_1">
     <g id="line2d_1">
      <path d="M 115.363636 384.48 
L 115.363636 51.84 
" clip-path="url(#p61a514e14b)" style="fill: none; stroke: #b0b0b0; stroke-width: 0.8; stroke-linecap: square"/>
     </g>
     <g id="line2d_2">
      <defs>
       <path id="m9a0e51c658" d="M 0 0 
L 0 3.5 
" style="stroke: #000000; stroke-width: 0.8"/>
      </defs>
      <g>
       <use xlink:href="#m9a0e51c658" x="115.363636" y="384.48" style="stroke: #000000; stroke-width: 0.8"/>
      </g>
     </g>
     <g id="text_1">
      <!-- 0 -->
      <g transform="translate(112.863636 398.355) scale(0.1 -0.1)">
       <defs>
        <path id="SimHei-30" d="M 225 2537 
Q 250 3200 412 3587 
Q 575 3975 875 4225 
Q 1175 4475 1612 4475 
Q 2050 4475 2375 4112 
Q 2700 3750 2800 3200 
Q 2900 2650 2862 1937 
Q 2825 1225 2612 775 
Q 2400 325 1975 150 
Q 1550 -25 1125 187 
Q 700 400 525 750 
Q 350 1100 275 1487 
Q 200 1875 225 2537 
z
M 750 2687 
Q 675 2000 800 1462 
Q 925 925 1212 700 
Q 1500 475 1800 612 
Q 2100 750 2237 1162 
Q 2375 1575 2375 2062 
Q 2375 2550 2337 2950 
Q 2300 3350 2112 3675 
Q 1925 4000 1612 4012 
Q 1300 4025 1062 3700 
Q 825 3375 750 2687 
z
" transform="scale(0.015625)"/>
       </defs>
       <use xlink:href="#SimHei-30"/>
      </g>
     </g>
    </g>
    <g id="xtick_2">
     <g id="line2d_3">
      <path d="M 178.804448 384.48 
L 178.804448 51.84 
" clip-path="url(#p61a514e14b)" style="fill: none; stroke: #b0b0b0; stroke-width: 0.8; stroke-linecap: square"/>
     </g>
     <g id="line2d_4">
      <g>
       <use xlink:href="#m9a0e51c658" x="178.804448" y="384.48" style="stroke: #000000; stroke-width: 0.8"/>
      </g>
     </g>
     <g id="text_2">
      <!-- 250 -->
      <g transform="translate(171.304448 398.355) scale(0.1 -0.1)">
       <defs>
        <path id="SimHei-32" d="M 300 250 
Q 325 625 650 925 
Q 975 1225 1475 1862 
Q 1975 2500 2125 2850 
Q 2275 3200 2237 3450 
Q 2200 3700 2000 3862 
Q 1800 4025 1537 4000 
Q 1275 3975 1037 3800 
Q 800 3625 675 3275 
L 200 3350 
Q 400 3925 712 4187 
Q 1025 4450 1450 4475 
Q 1700 4500 1900 4462 
Q 2100 4425 2312 4287 
Q 2525 4150 2662 3875 
Q 2800 3600 2762 3212 
Q 2725 2825 2375 2287 
Q 2025 1750 1025 600 
L 2825 600 
L 2825 150 
L 300 150 
L 300 250 
z
" transform="scale(0.015625)"/>
        <path id="SimHei-35" d="M 550 1325 
Q 725 650 1150 575 
Q 1575 500 1837 662 
Q 2100 825 2212 1087 
Q 2325 1350 2312 1675 
Q 2300 2000 2137 2225 
Q 1975 2450 1725 2525 
Q 1475 2600 1162 2525 
Q 850 2450 650 2175 
L 225 2225 
Q 275 2375 700 4375 
L 2675 4375 
L 2675 3925 
L 1075 3925 
Q 950 3250 825 2850 
Q 1200 3025 1525 3012 
Q 1850 3000 2150 2862 
Q 2450 2725 2587 2487 
Q 2725 2250 2787 2012 
Q 2850 1775 2837 1500 
Q 2825 1225 2725 937 
Q 2625 650 2425 462 
Q 2225 275 1937 162 
Q 1650 50 1275 75 
Q 900 100 562 350 
Q 225 600 100 1200 
L 550 1325 
z
" transform="scale(0.015625)"/>
       </defs>
       <use xlink:href="#SimHei-32"/>
       <use xlink:href="#SimHei-35" transform="translate(50 0)"/>
       <use xlink:href="#SimHei-30" transform="translate(100 0)"/>
      </g>
     </g>
    </g>
    <g id="xtick_3">
     <g id="line2d_5">
      <path d="M 242.245259 384.48 
L 242.245259 51.84 
" clip-path="url(#p61a514e14b)" style="fill: none; stroke: #b0b0b0; stroke-width: 0.8; stroke-linecap: square"/>
     </g>
     <g id="line2d_6">
      <g>
       <use xlink:href="#m9a0e51c658" x="242.245259" y="384.48" style="stroke: #000000; stroke-width: 0.8"/>
      </g>
     </g>
     <g id="text_3">
      <!-- 500 -->
      <g transform="translate(234.745259 398.355) scale(0.1 -0.1)">
       <use xlink:href="#SimHei-35"/>
       <use xlink:href="#SimHei-30" transform="translate(50 0)"/>
       <use xlink:href="#SimHei-30" transform="translate(100 0)"/>
      </g>
     </g>
    </g>
    <g id="xtick_4">
     <g id="line2d_7">
      <path d="M 305.68607 384.48 
L 305.68607 51.84 
" clip-path="url(#p61a514e14b)" style="fill: none; stroke: #b0b0b0; stroke-width: 0.8; stroke-linecap: square"/>
     </g>
     <g id="line2d_8">
      <g>
       <use xlink:href="#m9a0e51c658" x="305.68607" y="384.48" style="stroke: #000000; stroke-width: 0.8"/>
      </g>
     </g>
     <g id="text_4">
      <!-- 750 -->
      <g transform="translate(298.18607 398.355) scale(0.1 -0.1)">
       <defs>
        <path id="SimHei-37" d="M 850 150 
Q 1300 2050 2425 3925 
L 275 3925 
L 275 4375 
L 2950 4375 
L 2950 3950 
Q 1775 2050 1400 150 
L 850 150 
z
" transform="scale(0.015625)"/>
       </defs>
       <use xlink:href="#SimHei-37"/>
       <use xlink:href="#SimHei-35" transform="translate(50 0)"/>
       <use xlink:href="#SimHei-30" transform="translate(100 0)"/>
      </g>
     </g>
    </g>
    <g id="xtick_5">
     <g id="line2d_9">
      <path d="M 369.126882 384.48 
L 369.126882 51.84 
" clip-path="url(#p61a514e14b)" style="fill: none; stroke: #b0b0b0; stroke-width: 0.8; stroke-linecap: square"/>
     </g>
     <g id="line2d_10">
      <g>
       <use xlink:href="#m9a0e51c658" x="369.126882" y="384.48" style="stroke: #000000; stroke-width: 0.8"/>
      </g>
     </g>
     <g id="text_5">
      <!-- 1000 -->
      <g transform="translate(359.126882 398.355) scale(0.1 -0.1)">
       <defs>
        <path id="SimHei-31" d="M 1400 3600 
Q 1075 3275 575 2975 
L 575 3450 
Q 1200 3875 1600 4450 
L 1900 4450 
L 1900 150 
L 1400 150 
L 1400 3600 
z
" transform="scale(0.015625)"/>
       </defs>
       <use xlink:href="#SimHei-31"/>
       <use xlink:href="#SimHei-30" transform="translate(50 0)"/>
       <use xlink:href="#SimHei-30" transform="translate(100 0)"/>
       <use xlink:href="#SimHei-30" transform="translate(150 0)"/>
      </g>
     </g>
    </g>
    <g id="xtick_6">
     <g id="line2d_11">
      <path d="M 432.567693 384.48 
L 432.567693 51.84 
" clip-path="url(#p61a514e14b)" style="fill: none; stroke: #b0b0b0; stroke-width: 0.8; stroke-linecap: square"/>
     </g>
     <g id="line2d_12">
      <g>
       <use xlink:href="#m9a0e51c658" x="432.567693" y="384.48" style="stroke: #000000; stroke-width: 0.8"/>
      </g>
     </g>
     <g id="text_6">
      <!-- 1250 -->
      <g transform="translate(422.567693 398.355) scale(0.1 -0.1)">
       <use xlink:href="#SimHei-31"/>
       <use xlink:href="#SimHei-32" transform="translate(50 0)"/>
       <use xlink:href="#SimHei-35" transform="translate(100 0)"/>
       <use xlink:href="#SimHei-30" transform="translate(150 0)"/>
      </g>
     </g>
    </g>
    <g id="xtick_7">
     <g id="line2d_13">
      <path d="M 496.008504 384.48 
L 496.008504 51.84 
" clip-path="url(#p61a514e14b)" style="fill: none; stroke: #b0b0b0; stroke-width: 0.8; stroke-linecap: square"/>
     </g>
     <g id="line2d_14">
      <g>
       <use xlink:href="#m9a0e51c658" x="496.008504" y="384.48" style="stroke: #000000; stroke-width: 0.8"/>
      </g>
     </g>
     <g id="text_7">
      <!-- 1500 -->
      <g transform="translate(486.008504 398.355) scale(0.1 -0.1)">
       <use xlink:href="#SimHei-31"/>
       <use xlink:href="#SimHei-35" transform="translate(50 0)"/>
       <use xlink:href="#SimHei-30" transform="translate(100 0)"/>
       <use xlink:href="#SimHei-30" transform="translate(150 0)"/>
      </g>
     </g>
    </g>
    <g id="xtick_8">
     <g id="line2d_15">
      <path d="M 559.449316 384.48 
L 559.449316 51.84 
" clip-path="url(#p61a514e14b)" style="fill: none; stroke: #b0b0b0; stroke-width: 0.8; stroke-linecap: square"/>
     </g>
     <g id="line2d_16">
      <g>
       <use xlink:href="#m9a0e51c658" x="559.449316" y="384.48" style="stroke: #000000; stroke-width: 0.8"/>
      </g>
     </g>
     <g id="text_8">
      <!-- 1750 -->
      <g transform="translate(549.449316 398.355) scale(0.1 -0.1)">
       <use xlink:href="#SimHei-31"/>
       <use xlink:href="#SimHei-37" transform="translate(50 0)"/>
       <use xlink:href="#SimHei-35" transform="translate(100 0)"/>
       <use xlink:href="#SimHei-30" transform="translate(150 0)"/>
      </g>
     </g>
    </g>
    <g id="xtick_9">
     <g id="line2d_17">
      <path d="M 622.890127 384.48 
L 622.890127 51.84 
" clip-path="url(#p61a514e14b)" style="fill: none; stroke: #b0b0b0; stroke-width: 0.8; stroke-linecap: square"/>
     </g>
     <g id="line2d_18">
      <g>
       <use xlink:href="#m9a0e51c658" x="622.890127" y="384.48" style="stroke: #000000; stroke-width: 0.8"/>
      </g>
     </g>
     <g id="text_9">
      <!-- 2000 -->
      <g transform="translate(612.890127 398.355) scale(0.1 -0.1)">
       <use xlink:href="#SimHei-32"/>
       <use xlink:href="#SimHei-30" transform="translate(50 0)"/>
       <use xlink:href="#SimHei-30" transform="translate(100 0)"/>
       <use xlink:href="#SimHei-30" transform="translate(150 0)"/>
      </g>
     </g>
    </g>
    <g id="text_10">
     <!-- Iteration -->
     <g transform="translate(346.5 410.48) scale(0.1 -0.1)">
      <defs>
       <path id="SimHei-49" d="M 1850 125 
L 1275 125 
L 1275 4400 
L 1850 4400 
L 1850 125 
z
" transform="scale(0.015625)"/>
       <path id="SimHei-74" d="M 2750 200 
Q 2625 150 2462 112 
Q 2300 75 2025 75 
Q 1575 75 1300 325 
Q 1025 575 1025 1025 
L 1025 2525 
L 175 2525 
L 175 2925 
L 1025 2925 
L 1025 3900 
L 1525 3900 
L 1525 2925 
L 2550 2925 
L 2550 2525 
L 1525 2525 
L 1525 1000 
Q 1525 800 1625 662 
Q 1725 525 2000 525 
Q 2275 525 2450 575 
Q 2625 625 2750 700 
L 2750 200 
z
" transform="scale(0.015625)"/>
       <path id="SimHei-65" d="M 2850 1075 
Q 2800 625 2450 350 
Q 2100 75 1625 75 
Q 1025 75 637 462 
Q 250 850 250 1525 
Q 250 2200 637 2587 
Q 1025 2975 1625 2975 
Q 2150 2975 2487 2637 
Q 2825 2300 2825 1525 
L 800 1525 
Q 800 975 1037 750 
Q 1275 525 1625 525 
Q 1900 525 2075 662 
Q 2250 800 2300 1075 
L 2850 1075 
z
M 2250 1925 
Q 2200 2275 2025 2412 
Q 1850 2550 1575 2550 
Q 1325 2550 1125 2412 
Q 925 2275 825 1925 
L 2250 1925 
z
" transform="scale(0.015625)"/>
       <path id="SimHei-72" d="M 2500 2425 
Q 2025 2500 1700 2287 
Q 1375 2075 1150 1550 
L 1150 125 
L 650 125 
L 650 2925 
L 1150 2925 
L 1150 2200 
Q 1375 2600 1712 2787 
Q 2050 2975 2500 2975 
L 2500 2425 
z
" transform="scale(0.015625)"/>
       <path id="SimHei-61" d="M 2875 125 
L 2275 125 
Q 2225 175 2200 262 
Q 2175 350 2175 475 
Q 2000 275 1750 175 
Q 1500 75 1225 75 
Q 825 75 550 275 
Q 275 475 275 850 
Q 275 1225 525 1450 
Q 775 1675 1300 1750 
Q 1650 1800 1912 1875 
Q 2175 1950 2175 2075 
Q 2175 2225 2062 2375 
Q 1950 2525 1575 2525 
Q 1275 2525 1137 2412 
Q 1000 2300 950 2100 
L 400 2100 
Q 450 2500 762 2737 
Q 1075 2975 1575 2975 
Q 2125 2975 2400 2725 
Q 2675 2475 2675 2025 
L 2675 650 
Q 2675 500 2725 375 
Q 2775 250 2875 125 
z
M 2175 1050 
L 2175 1550 
Q 2025 1500 1887 1462 
Q 1750 1425 1425 1375 
Q 1050 1325 937 1200 
Q 825 1075 825 900 
Q 825 750 937 637 
Q 1050 525 1275 525 
Q 1500 525 1762 650 
Q 2025 775 2175 1050 
z
" transform="scale(0.015625)"/>
       <path id="SimHei-69" d="M 1800 3725 
L 1300 3725 
L 1300 4375 
L 1800 4375 
L 1800 3725 
z
M 1800 125 
L 1300 125 
L 1300 2925 
L 1800 2925 
L 1800 125 
z
" transform="scale(0.015625)"/>
       <path id="SimHei-6f" d="M 2925 1525 
Q 2925 875 2525 475 
Q 2125 75 1575 75 
Q 1025 75 625 475 
Q 225 875 225 1525 
Q 225 2175 625 2575 
Q 1025 2975 1575 2975 
Q 2125 2975 2525 2575 
Q 2925 2175 2925 1525 
z
M 2375 1525 
Q 2375 2025 2125 2275 
Q 1875 2525 1575 2525 
Q 1275 2525 1025 2275 
Q 775 2025 775 1525 
Q 775 1025 1025 775 
Q 1275 525 1575 525 
Q 1875 525 2125 775 
Q 2375 1025 2375 1525 
z
" transform="scale(0.015625)"/>
       <path id="SimHei-6e" d="M 2800 125 
L 2300 125 
L 2300 1925 
Q 2300 2225 2150 2400 
Q 2000 2575 1750 2575 
Q 1425 2575 1137 2237 
Q 850 1900 850 1400 
L 850 125 
L 350 125 
L 350 2925 
L 850 2925 
L 850 2400 
Q 1050 2675 1287 2825 
Q 1525 2975 1900 2975 
Q 2350 2975 2575 2725 
Q 2800 2475 2800 2100 
L 2800 125 
z
" transform="scale(0.015625)"/>
      </defs>
      <use xlink:href="#SimHei-49"/>
      <use xlink:href="#SimHei-74" transform="translate(50 0)"/>
      <use xlink:href="#SimHei-65" transform="translate(100 0)"/>
      <use xlink:href="#SimHei-72" transform="translate(150 0)"/>
      <use xlink:href="#SimHei-61" transform="translate(200 0)"/>
      <use xlink:href="#SimHei-74" transform="translate(250 0)"/>
      <use xlink:href="#SimHei-69" transform="translate(300 0)"/>
      <use xlink:href="#SimHei-6f" transform="translate(350 0)"/>
      <use xlink:href="#SimHei-6e" transform="translate(400 0)"/>
     </g>
    </g>
   </g>
   <g id="matplotlib.axis_2">
    <g id="ytick_1">
     <g id="line2d_19">
      <path d="M 90 370.258196 
L 648 370.258196 
" clip-path="url(#p61a514e14b)" style="fill: none; stroke: #b0b0b0; stroke-width: 0.8; stroke-linecap: square"/>
     </g>
     <g id="line2d_20">
      <defs>
       <path id="mb52398a65b" d="M 0 0 
L -3.5 0 
" style="stroke: #000000; stroke-width: 0.8"/>
      </defs>
      <g>
       <use xlink:href="#mb52398a65b" x="90" y="370.258196" style="stroke: #000000; stroke-width: 0.8"/>
      </g>
     </g>
     <g id="text_11">
      <!-- 0.15 -->
      <g transform="translate(63 373.695696) scale(0.1 -0.1)">
       <defs>
        <path id="SimHei-2e" d="M 1075 125 
L 500 125 
L 500 675 
L 1075 675 
L 1075 125 
z
" transform="scale(0.015625)"/>
       </defs>
       <use xlink:href="#SimHei-30"/>
       <use xlink:href="#SimHei-2e" transform="translate(50 0)"/>
       <use xlink:href="#SimHei-31" transform="translate(100 0)"/>
       <use xlink:href="#SimHei-35" transform="translate(150 0)"/>
      </g>
     </g>
    </g>
    <g id="ytick_2">
     <g id="line2d_21">
      <path d="M 90 324.733081 
L 648 324.733081 
" clip-path="url(#p61a514e14b)" style="fill: none; stroke: #b0b0b0; stroke-width: 0.8; stroke-linecap: square"/>
     </g>
     <g id="line2d_22">
      <g>
       <use xlink:href="#mb52398a65b" x="90" y="324.733081" style="stroke: #000000; stroke-width: 0.8"/>
      </g>
     </g>
     <g id="text_12">
      <!-- 0.20 -->
      <g transform="translate(63 328.170581) scale(0.1 -0.1)">
       <use xlink:href="#SimHei-30"/>
       <use xlink:href="#SimHei-2e" transform="translate(50 0)"/>
       <use xlink:href="#SimHei-32" transform="translate(100 0)"/>
       <use xlink:href="#SimHei-30" transform="translate(150 0)"/>
      </g>
     </g>
    </g>
    <g id="ytick_3">
     <g id="line2d_23">
      <path d="M 90 279.207967 
L 648 279.207967 
" clip-path="url(#p61a514e14b)" style="fill: none; stroke: #b0b0b0; stroke-width: 0.8; stroke-linecap: square"/>
     </g>
     <g id="line2d_24">
      <g>
       <use xlink:href="#mb52398a65b" x="90" y="279.207967" style="stroke: #000000; stroke-width: 0.8"/>
      </g>
     </g>
     <g id="text_13">
      <!-- 0.25 -->
      <g transform="translate(63 282.645467) scale(0.1 -0.1)">
       <use xlink:href="#SimHei-30"/>
       <use xlink:href="#SimHei-2e" transform="translate(50 0)"/>
       <use xlink:href="#SimHei-32" transform="translate(100 0)"/>
       <use xlink:href="#SimHei-35" transform="translate(150 0)"/>
      </g>
     </g>
    </g>
    <g id="ytick_4">
     <g id="line2d_25">
      <path d="M 90 233.682852 
L 648 233.682852 
" clip-path="url(#p61a514e14b)" style="fill: none; stroke: #b0b0b0; stroke-width: 0.8; stroke-linecap: square"/>
     </g>
     <g id="line2d_26">
      <g>
       <use xlink:href="#mb52398a65b" x="90" y="233.682852" style="stroke: #000000; stroke-width: 0.8"/>
      </g>
     </g>
     <g id="text_14">
      <!-- 0.30 -->
      <g transform="translate(63 237.120352) scale(0.1 -0.1)">
       <defs>
        <path id="SimHei-33" d="M 250 1225 
L 700 1300 
Q 800 975 1025 762 
Q 1250 550 1587 562 
Q 1925 575 2125 837 
Q 2325 1100 2300 1437 
Q 2275 1775 2037 1962 
Q 1800 2150 1275 2225 
L 1275 2550 
Q 1800 2600 2037 2825 
Q 2275 3050 2250 3412 
Q 2225 3775 1925 3937 
Q 1625 4100 1287 3975 
Q 950 3850 750 3275 
L 300 3350 
Q 450 3800 712 4100 
Q 975 4400 1425 4450 
Q 1875 4500 2212 4337 
Q 2550 4175 2687 3837 
Q 2825 3500 2725 3100 
Q 2625 2700 2150 2400 
Q 2500 2250 2687 1950 
Q 2875 1650 2812 1162 
Q 2750 675 2375 375 
Q 2000 75 1525 87 
Q 1050 100 700 387 
Q 350 675 250 1225 
z
" transform="scale(0.015625)"/>
       </defs>
       <use xlink:href="#SimHei-30"/>
       <use xlink:href="#SimHei-2e" transform="translate(50 0)"/>
       <use xlink:href="#SimHei-33" transform="translate(100 0)"/>
       <use xlink:href="#SimHei-30" transform="translate(150 0)"/>
      </g>
     </g>
    </g>
    <g id="ytick_5">
     <g id="line2d_27">
      <path d="M 90 188.157737 
L 648 188.157737 
" clip-path="url(#p61a514e14b)" style="fill: none; stroke: #b0b0b0; stroke-width: 0.8; stroke-linecap: square"/>
     </g>
     <g id="line2d_28">
      <g>
       <use xlink:href="#mb52398a65b" x="90" y="188.157737" style="stroke: #000000; stroke-width: 0.8"/>
      </g>
     </g>
     <g id="text_15">
      <!-- 0.35 -->
      <g transform="translate(63 191.595237) scale(0.1 -0.1)">
       <use xlink:href="#SimHei-30"/>
       <use xlink:href="#SimHei-2e" transform="translate(50 0)"/>
       <use xlink:href="#SimHei-33" transform="translate(100 0)"/>
       <use xlink:href="#SimHei-35" transform="translate(150 0)"/>
      </g>
     </g>
    </g>
    <g id="ytick_6">
     <g id="line2d_29">
      <path d="M 90 142.632623 
L 648 142.632623 
" clip-path="url(#p61a514e14b)" style="fill: none; stroke: #b0b0b0; stroke-width: 0.8; stroke-linecap: square"/>
     </g>
     <g id="line2d_30">
      <g>
       <use xlink:href="#mb52398a65b" x="90" y="142.632623" style="stroke: #000000; stroke-width: 0.8"/>
      </g>
     </g>
     <g id="text_16">
      <!-- 0.40 -->
      <g transform="translate(63 146.070123) scale(0.1 -0.1)">
       <defs>
        <path id="SimHei-34" d="M 2000 1100 
L 75 1100 
L 75 1525 
L 2100 4450 
L 2475 4450 
L 2475 1525 
L 3075 1525 
L 3075 1100 
L 2475 1100 
L 2475 150 
L 2000 150 
L 2000 1100 
z
M 2000 1525 
L 2000 3500 
L 600 1525 
L 2000 1525 
z
" transform="scale(0.015625)"/>
       </defs>
       <use xlink:href="#SimHei-30"/>
       <use xlink:href="#SimHei-2e" transform="translate(50 0)"/>
       <use xlink:href="#SimHei-34" transform="translate(100 0)"/>
       <use xlink:href="#SimHei-30" transform="translate(150 0)"/>
      </g>
     </g>
    </g>
    <g id="ytick_7">
     <g id="line2d_31">
      <path d="M 90 97.107508 
L 648 97.107508 
" clip-path="url(#p61a514e14b)" style="fill: none; stroke: #b0b0b0; stroke-width: 0.8; stroke-linecap: square"/>
     </g>
     <g id="line2d_32">
      <g>
       <use xlink:href="#mb52398a65b" x="90" y="97.107508" style="stroke: #000000; stroke-width: 0.8"/>
      </g>
     </g>
     <g id="text_17">
      <!-- 0.45 -->
      <g transform="translate(63 100.545008) scale(0.1 -0.1)">
       <use xlink:href="#SimHei-30"/>
       <use xlink:href="#SimHei-2e" transform="translate(50 0)"/>
       <use xlink:href="#SimHei-34" transform="translate(100 0)"/>
       <use xlink:href="#SimHei-35" transform="translate(150 0)"/>
      </g>
     </g>
    </g>
    <g id="text_18">
     <!-- Loss -->
     <g transform="translate(57.75 228.16) rotate(-90) scale(0.1 -0.1)">
      <defs>
       <path id="SimHei-4c" d="M 2900 125 
L 300 125 
L 300 4400 
L 875 4400 
L 875 600 
L 2900 600 
L 2900 125 
z
" transform="scale(0.015625)"/>
       <path id="SimHei-73" d="M 2750 900 
Q 2750 500 2437 287 
Q 2125 75 1650 75 
Q 1050 75 725 312 
Q 400 550 400 1000 
L 900 1000 
Q 900 700 1112 600 
Q 1325 500 1625 500 
Q 1925 500 2075 612 
Q 2225 725 2225 900 
Q 2225 1025 2100 1150 
Q 1975 1275 1475 1350 
Q 900 1425 687 1637 
Q 475 1850 475 2200 
Q 475 2500 762 2737 
Q 1050 2975 1600 2975 
Q 2100 2975 2387 2750 
Q 2675 2525 2675 2150 
L 2175 2150 
Q 2175 2375 2012 2462 
Q 1850 2550 1600 2550 
Q 1275 2550 1137 2437 
Q 1000 2325 1000 2175 
Q 1000 2000 1125 1900 
Q 1250 1800 1650 1750 
Q 2300 1650 2525 1437 
Q 2750 1225 2750 900 
z
" transform="scale(0.015625)"/>
      </defs>
      <use xlink:href="#SimHei-4c"/>
      <use xlink:href="#SimHei-6f" transform="translate(50 0)"/>
      <use xlink:href="#SimHei-73" transform="translate(100 0)"/>
      <use xlink:href="#SimHei-73" transform="translate(150 0)"/>
     </g>
    </g>
   </g>
   <g id="line2d_33">
    <path d="M 115.363636 66.96 
L 115.6174 137.433615 
L 116.124926 175.324011 
L 116.378689 176.84394 
L 116.886216 191.750344 
L 117.139979 194.987142 
L 117.393742 194.501785 
L 117.647506 196.497798 
L 117.901269 201.983553 
L 118.155032 203.170667 
L 118.408795 201.93938 
L 118.662559 205.677707 
L 118.916322 204.988916 
L 119.170085 208.649044 
L 119.423848 209.845224 
L 119.677612 209.537398 
L 119.931375 210.750474 
L 120.185138 209.854689 
L 120.692665 213.101095 
L 120.946428 210.711101 
L 121.200191 212.376408 
L 121.453954 215.937636 
L 121.707717 216.715633 
L 121.961481 215.41074 
L 122.215244 216.416703 
L 122.469007 216.877835 
L 122.72277 216.7788 
L 122.976534 216.434016 
L 123.230297 217.981054 
L 123.48406 217.667886 
L 123.737823 218.193329 
L 123.991587 220.118427 
L 124.24535 219.488703 
L 124.752876 220.965756 
L 125.00664 219.556906 
L 125.260403 222.693152 
L 125.514166 220.896487 
L 125.767929 220.503128 
L 126.021693 220.366625 
L 126.275456 222.60954 
L 126.529219 220.92147 
L 126.782982 221.706307 
L 127.036746 223.888704 
L 127.290509 223.34646 
L 127.544272 221.711737 
L 128.305562 223.889674 
L 128.559325 224.388672 
L 128.813088 222.121108 
L 129.066852 225.38598 
L 129.320615 224.355081 
L 129.574378 222.858563 
L 130.081905 226.264834 
L 130.335668 225.582302 
L 130.589431 224.214849 
L 130.843194 224.374057 
L 131.096958 226.201343 
L 131.350721 226.708184 
L 131.604484 225.579352 
L 131.858247 225.883052 
L 132.112011 227.336122 
L 132.365774 225.566446 
L 133.127064 225.78894 
L 133.63459 229.468971 
L 133.888353 225.49078 
L 134.142117 230.129276 
L 134.649643 228.290905 
L 134.903406 228.322343 
L 135.157169 227.782386 
L 135.410933 229.814228 
L 135.664696 229.00398 
L 135.918459 228.791123 
L 136.172222 232.188158 
L 136.425986 229.849811 
L 136.679749 230.75666 
L 137.187275 230.003633 
L 137.441039 228.322009 
L 137.694802 229.988732 
L 137.948565 229.565489 
L 138.202328 230.602388 
L 138.456092 232.371912 
L 138.709855 231.673202 
L 138.963618 232.067762 
L 139.217381 232.251683 
L 139.471145 231.281019 
L 139.978671 232.471298 
L 140.486198 232.708991 
L 140.739961 232.773943 
L 140.993724 231.250828 
L 141.247487 234.572901 
L 141.501251 233.520084 
L 141.755014 231.179895 
L 142.26254 233.740202 
L 142.516304 233.73346 
L 142.770067 235.174209 
L 143.277593 234.054034 
L 143.531357 235.226478 
L 143.78512 234.911564 
L 144.038883 235.96681 
L 144.292646 235.573231 
L 144.54641 235.662007 
L 144.800173 237.760828 
L 145.053936 238.228238 
L 145.307699 239.059659 
L 145.561463 238.475765 
L 145.815226 237.056858 
L 146.322752 238.527821 
L 146.576516 238.507566 
L 146.830279 238.109186 
L 147.084042 240.569854 
L 147.337805 240.67647 
L 147.591569 238.952238 
L 148.099095 241.188905 
L 148.352858 240.665342 
L 148.606621 242.450822 
L 148.860385 242.523071 
L 149.114148 240.374842 
L 149.367911 243.318022 
L 149.621674 244.787467 
L 149.875438 243.826349 
L 150.129201 243.730574 
L 150.382964 243.475028 
L 150.636727 245.49262 
L 150.890491 245.519988 
L 151.144254 244.898071 
L 151.65178 246.212264 
L 152.41307 247.919783 
L 152.666833 247.546486 
L 152.920597 248.284222 
L 153.17436 247.921176 
L 153.428123 249.35894 
L 153.681886 249.879255 
L 153.93565 247.952685 
L 154.189413 250.202745 
L 154.696939 248.975731 
L 154.950703 251.854992 
L 155.204466 252.123171 
L 155.458229 249.011268 
L 155.711992 252.240653 
L 155.965756 252.307802 
L 156.219519 252.49481 
L 156.473282 253.365483 
L 156.727045 251.944146 
L 156.980809 254.357625 
L 157.234572 253.442479 
L 157.488335 252.99589 
L 157.742098 253.843004 
L 157.995862 254.078319 
L 158.249625 254.129694 
L 158.503388 255.71621 
L 158.757151 255.325429 
L 159.010915 256.096804 
L 159.264678 257.371052 
L 159.518441 254.275235 
L 159.772204 255.339417 
L 160.025968 254.392562 
L 160.533494 258.830187 
L 160.787257 258.710517 
L 161.041021 258.14041 
L 161.294784 257.069125 
L 161.548547 258.903842 
L 161.80231 258.421487 
L 162.056073 260.848532 
L 162.309837 260.80161 
L 162.817363 259.484417 
L 163.071126 260.137694 
L 163.32489 260.187597 
L 163.578653 260.081872 
L 163.832416 261.167521 
L 164.086179 260.229789 
L 164.339943 261.805546 
L 164.593706 260.769602 
L 164.847469 261.870814 
L 165.101232 260.215143 
L 165.354996 263.648464 
L 165.608759 263.403169 
L 165.862522 263.468865 
L 166.116285 262.824259 
L 166.877575 265.697104 
L 167.131338 263.456765 
L 167.385102 264.726598 
L 167.638865 263.62014 
L 168.146391 267.415941 
L 168.400155 264.559664 
L 168.653918 264.990426 
L 168.907681 267.47475 
L 169.161444 265.229926 
L 169.922734 267.199199 
L 170.176497 266.130845 
L 170.430261 267.353139 
L 170.684024 270.343875 
L 170.937787 267.118178 
L 171.19155 269.579696 
L 171.445314 266.429211 
L 171.699077 269.62645 
L 171.95284 268.419616 
L 172.206603 267.883593 
L 172.460367 268.709877 
L 172.71413 270.536113 
L 172.967893 268.972328 
L 173.221656 270.192279 
L 173.47542 269.162507 
L 173.729183 271.584092 
L 173.982946 271.475785 
L 174.236709 272.081802 
L 174.490473 270.269436 
L 174.744236 273.541105 
L 175.251762 269.552494 
L 175.505525 270.228326 
L 175.759289 272.12829 
L 176.266815 273.359949 
L 176.520578 274.191163 
L 176.774342 270.460565 
L 177.028105 273.806698 
L 177.281868 274.198961 
L 177.535631 273.776329 
L 178.043158 275.434478 
L 178.296921 274.794949 
L 178.550684 274.911253 
L 178.804448 274.064116 
L 179.058211 276.43382 
L 179.311974 276.18023 
L 179.565737 276.897794 
L 179.819501 278.875223 
L 180.327027 275.305825 
L 180.58079 277.459768 
L 180.834554 276.641888 
L 181.088317 278.707902 
L 181.34208 276.488929 
L 181.595843 278.729631 
L 181.849607 277.048568 
L 182.10337 278.993773 
L 182.357133 279.199476 
L 182.610896 275.961954 
L 182.86466 277.287633 
L 183.118423 279.310185 
L 183.372186 279.84014 
L 183.625949 278.569627 
L 183.879713 278.617936 
L 184.133476 279.096998 
L 184.387239 279.100176 
L 184.641002 281.557329 
L 184.894766 279.432749 
L 185.148529 280.952778 
L 185.402292 281.430933 
L 185.656055 279.123053 
L 185.909819 281.464113 
L 186.163582 280.100021 
L 186.417345 280.161396 
L 186.671108 281.896037 
L 186.924872 281.752859 
L 187.178635 279.885063 
L 187.432398 282.486718 
L 187.686161 282.506793 
L 187.939925 280.942524 
L 188.193688 283.805657 
L 188.447451 283.20081 
L 188.701214 283.287709 
L 188.954977 282.755389 
L 189.208741 284.651879 
L 189.462504 284.266792 
L 189.716267 283.338371 
L 189.97003 286.130123 
L 190.223794 284.045386 
L 190.73132 285.114146 
L 190.985083 286.15453 
L 191.238847 284.110643 
L 191.49261 283.258321 
L 191.746373 285.697448 
L 192.000136 285.934446 
L 192.2539 285.716615 
L 192.507663 284.634668 
L 192.761426 285.999081 
L 193.015189 285.617921 
L 193.268953 286.917964 
L 193.522716 285.593181 
L 193.776479 287.224194 
L 194.030242 285.174754 
L 194.284006 286.795698 
L 194.791532 288.291591 
L 195.045295 289.925911 
L 195.299059 289.426056 
L 195.806585 287.578971 
L 196.060348 288.268564 
L 196.314112 287.439367 
L 196.567875 291.286945 
L 196.821638 291.58678 
L 197.075401 288.69648 
L 197.329165 288.602049 
L 197.582928 293.969029 
L 197.836691 289.710019 
L 198.090454 287.793634 
L 198.344218 292.013722 
L 198.597981 291.724302 
L 198.851744 292.041181 
L 199.105507 290.259462 
L 199.359271 292.783689 
L 199.613034 292.357311 
L 199.866797 291.145265 
L 200.12056 290.903046 
L 200.374324 291.165847 
L 200.628087 293.503099 
L 200.88185 294.211769 
L 201.135613 291.369858 
L 201.389377 293.846893 
L 201.64314 294.005171 
L 201.896903 293.556254 
L 202.150666 297.008188 
L 202.404429 293.020893 
L 202.658193 296.18727 
L 202.911956 295.685365 
L 203.165719 296.060259 
L 203.673246 293.151703 
L 203.927009 296.185334 
L 204.180772 295.774681 
L 204.434535 297.645674 
L 204.688299 297.742514 
L 204.942062 297.30524 
L 205.195825 300.18629 
L 205.449588 297.021512 
L 205.703352 298.326561 
L 205.957115 298.476747 
L 206.210878 298.816439 
L 206.718405 300.093052 
L 206.972168 299.78425 
L 207.225931 299.060168 
L 207.479694 299.929452 
L 207.733458 300.265634 
L 208.240984 301.654422 
L 208.494747 303.31441 
L 208.748511 299.601331 
L 209.002274 303.187531 
L 209.256037 302.986451 
L 209.5098 302.589386 
L 209.763564 301.686576 
L 210.017327 304.490759 
L 210.27109 301.384773 
L 210.524853 301.976175 
L 210.778617 302.961709 
L 211.03238 304.928298 
L 211.539906 303.463672 
L 212.047433 304.427585 
L 212.301196 306.457515 
L 212.554959 306.07663 
L 213.062486 305.021323 
L 213.316249 307.237353 
L 213.570012 306.712553 
L 213.823776 307.684097 
L 214.077539 307.752336 
L 214.331302 308.788666 
L 214.585065 306.486508 
L 214.838829 308.18815 
L 215.346355 308.997589 
L 215.600118 310.009994 
L 215.853881 310.480549 
L 216.107645 309.562046 
L 216.361408 306.235686 
L 216.615171 310.0424 
L 216.868934 310.099024 
L 217.122698 308.641903 
L 217.376461 311.456167 
L 217.630224 310.412078 
L 217.883987 309.907953 
L 218.137751 311.672273 
L 218.391514 310.960377 
L 218.645277 309.893578 
L 218.89904 312.011531 
L 219.152804 312.361525 
L 219.406567 314.236578 
L 219.66033 313.047601 
L 219.914093 311.131559 
L 220.167857 311.368739 
L 220.42162 310.444496 
L 220.675383 313.563253 
L 220.929146 310.197288 
L 221.18291 313.470982 
L 221.436673 311.266969 
L 221.690436 312.647568 
L 221.944199 312.149716 
L 222.197963 312.443509 
L 222.451726 315.377332 
L 222.959252 312.683446 
L 223.213016 315.214202 
L 223.466779 314.119509 
L 223.974305 315.508903 
L 224.228069 313.813256 
L 224.735595 316.492571 
L 224.989358 315.515752 
L 225.243122 315.162216 
L 225.496885 316.129718 
L 225.750648 314.462494 
L 226.004411 316.829886 
L 226.258175 316.937556 
L 226.511938 317.302821 
L 226.765701 317.969206 
L 227.019464 317.389557 
L 227.273228 317.436337 
L 227.780754 318.12309 
L 228.034517 316.566472 
L 228.542044 318.023023 
L 228.795807 316.418036 
L 229.04957 317.465 
L 229.303333 318.987396 
L 229.557097 319.038807 
L 229.81086 319.946037 
L 230.064623 318.963669 
L 230.318386 320.28861 
L 230.57215 318.953887 
L 230.825913 319.336202 
L 231.079676 319.069876 
L 231.587203 318.93775 
L 231.840966 318.041332 
L 232.094729 320.604814 
L 232.348492 320.682853 
L 232.602256 319.621226 
L 232.856019 320.561603 
L 233.109782 319.995348 
L 233.363545 318.842282 
L 233.617309 321.41592 
L 234.124835 322.611001 
L 234.378598 319.013881 
L 234.632362 320.698962 
L 234.886125 320.585701 
L 235.393651 321.956796 
L 235.647415 322.396175 
L 235.901178 322.254452 
L 236.154941 320.025525 
L 236.408704 323.851479 
L 236.662468 322.948343 
L 236.916231 320.552515 
L 237.169994 319.772418 
L 237.677521 322.306342 
L 237.931284 322.167951 
L 238.185047 321.790576 
L 238.43881 322.999171 
L 238.692574 322.836567 
L 239.2001 323.052455 
L 239.707627 324.600985 
L 239.96139 323.196428 
L 240.215153 322.490662 
L 240.468916 324.463395 
L 240.976443 323.321235 
L 241.230206 323.333122 
L 241.483969 323.522866 
L 241.737733 325.789616 
L 241.991496 326.603855 
L 242.245259 323.893475 
L 242.499022 323.14076 
L 243.006549 326.020412 
L 243.514075 325.485303 
L 243.767838 324.858994 
L 244.021602 325.258056 
L 244.275365 326.009116 
L 244.529128 325.688745 
L 244.782891 324.542771 
L 245.036655 326.381169 
L 245.290418 327.030499 
L 245.544181 324.616017 
L 245.797944 327.749116 
L 246.051708 326.954206 
L 246.305471 328.159895 
L 246.559234 326.339554 
L 246.812997 328.586717 
L 247.066761 329.271634 
L 247.320524 328.57923 
L 247.574287 328.404669 
L 248.081814 327.387276 
L 248.335577 325.227916 
L 248.58934 328.05369 
L 248.843103 326.525544 
L 249.096867 329.131675 
L 249.604393 328.891963 
L 249.858156 329.17805 
L 250.11192 327.977145 
L 250.365683 330.704145 
L 250.619446 329.322115 
L 250.873209 330.317416 
L 251.126973 328.989324 
L 251.634499 327.732667 
L 251.888262 329.310354 
L 252.395789 329.666786 
L 252.649552 331.948435 
L 252.903315 329.920237 
L 253.157079 331.70336 
L 253.410842 328.843149 
L 253.664605 328.825936 
L 253.918368 329.757813 
L 254.172132 330.101432 
L 254.425895 331.55375 
L 254.679658 331.250394 
L 254.933421 329.609591 
L 255.440948 332.584869 
L 255.694711 332.85745 
L 255.948474 328.441282 
L 256.202237 331.190576 
L 256.456001 331.694748 
L 256.709764 330.830103 
L 256.963527 331.588383 
L 257.21729 329.591219 
L 257.471054 331.974605 
L 257.724817 331.522003 
L 257.97858 332.740896 
L 258.486107 330.257759 
L 258.73987 332.213019 
L 258.993633 330.848324 
L 259.247396 332.122982 
L 259.754923 332.212713 
L 260.008686 330.349471 
L 260.516213 332.432805 
L 260.769976 331.490208 
L 261.023739 331.325914 
L 261.277502 333.664308 
L 261.785029 331.748967 
L 262.038792 332.575842 
L 262.292555 331.336165 
L 262.800082 333.037928 
L 263.053845 334.421357 
L 263.307608 334.698146 
L 263.561372 332.209054 
L 263.815135 331.698904 
L 264.068898 333.815778 
L 264.322661 332.516773 
L 264.576425 332.872885 
L 264.830188 335.125898 
L 265.083951 334.026059 
L 265.337714 336.041005 
L 265.591478 333.936822 
L 265.845241 333.085509 
L 266.099004 335.035009 
L 266.352767 334.379281 
L 266.606531 332.218597 
L 267.114057 334.99913 
L 267.36782 334.25933 
L 267.621584 336.122297 
L 268.12911 334.136718 
L 268.382873 335.713805 
L 268.636637 335.542998 
L 268.8904 334.154241 
L 269.144163 334.067791 
L 269.397926 334.657125 
L 269.651689 331.018482 
L 269.905453 335.016152 
L 270.159216 336.841127 
L 270.412979 336.667002 
L 270.666742 335.088577 
L 270.920506 335.829563 
L 271.174269 336.922271 
L 271.428032 335.894606 
L 271.681795 335.646102 
L 271.935559 336.251715 
L 272.189322 334.702179 
L 272.443085 336.920445 
L 272.696848 333.520804 
L 272.950612 335.836261 
L 273.204375 334.311136 
L 273.711901 337.573517 
L 273.965665 337.458043 
L 274.219428 336.996619 
L 274.473191 336.78952 
L 274.980718 335.392887 
L 275.234481 337.019219 
L 275.742007 338.513732 
L 275.995771 332.780519 
L 276.249534 336.924553 
L 276.503297 334.652862 
L 277.010824 339.233009 
L 277.51835 338.968226 
L 277.772113 339.373297 
L 278.025877 337.588061 
L 278.27964 338.11439 
L 278.533403 336.528822 
L 278.787166 337.798206 
L 279.04093 338.078452 
L 279.294693 335.829154 
L 279.548456 338.521581 
L 279.802219 339.299254 
L 280.055983 337.920407 
L 280.309746 338.477866 
L 280.563509 337.586208 
L 281.071036 339.989122 
L 281.324799 339.5618 
L 281.578562 337.247361 
L 281.832325 338.686992 
L 282.086088 341.346032 
L 282.339852 338.420149 
L 282.593615 339.12462 
L 282.847378 340.54806 
L 283.101141 338.675332 
L 283.354905 339.358107 
L 283.608668 338.779646 
L 283.862431 339.771071 
L 284.116194 338.614893 
L 284.877484 340.371254 
L 285.131247 340.167139 
L 285.385011 339.377362 
L 285.638774 340.831083 
L 285.892537 339.723459 
L 286.1463 339.894001 
L 286.400064 342.499168 
L 286.653827 338.114572 
L 286.90759 339.777591 
L 287.161353 340.240115 
L 287.415117 335.280624 
L 287.66888 341.252269 
L 287.922643 338.678615 
L 288.176406 338.525413 
L 288.43017 338.789227 
L 288.937696 341.362143 
L 289.191459 338.275714 
L 289.698986 342.512501 
L 289.952749 341.121533 
L 290.206512 338.456925 
L 290.714039 341.198819 
L 290.967802 340.476795 
L 291.475329 340.225196 
L 291.982855 341.945403 
L 292.236618 341.603382 
L 292.490382 340.11002 
L 292.744145 342.400323 
L 292.997908 340.54754 
L 293.505435 342.758013 
L 293.759198 339.453398 
L 294.012961 338.982632 
L 294.266724 343.145375 
L 294.520488 341.389511 
L 294.774251 342.222051 
L 295.028014 342.347538 
L 295.281777 340.908031 
L 295.53554 342.728148 
L 295.789304 341.790369 
L 296.043067 339.915592 
L 296.29683 342.050258 
L 296.550593 341.353024 
L 296.804357 344.050295 
L 297.05812 344.226202 
L 297.311883 342.928408 
L 297.565646 343.764539 
L 297.81941 341.69049 
L 298.073173 340.824302 
L 298.326936 342.503665 
L 298.580699 342.155678 
L 299.088226 343.730217 
L 299.341989 342.015236 
L 299.595752 341.919238 
L 299.849516 340.28131 
L 300.103279 339.767005 
L 300.357042 340.247354 
L 300.864569 343.373035 
L 301.118332 342.484232 
L 301.372095 343.179321 
L 301.625858 341.103467 
L 301.879622 343.262312 
L 302.133385 343.506154 
L 302.387148 339.240102 
L 302.640911 343.274399 
L 302.894675 344.111537 
L 303.148438 342.747704 
L 303.402201 342.948677 
L 303.655964 343.702613 
L 303.909728 342.164261 
L 304.417254 343.683739 
L 304.671017 343.568746 
L 304.924781 344.148592 
L 305.432307 342.000249 
L 305.68607 344.548251 
L 305.939834 343.909392 
L 306.193597 342.80359 
L 306.44736 342.759418 
L 306.701123 343.672935 
L 306.954887 343.796406 
L 307.20865 343.141572 
L 307.462413 340.857099 
L 307.716176 343.953849 
L 307.96994 342.13121 
L 308.223703 345.330375 
L 308.477466 344.35129 
L 308.731229 344.449038 
L 308.984992 342.918952 
L 309.238756 345.302931 
L 309.492519 346.258679 
L 309.746282 343.625062 
L 310.000045 344.642668 
L 310.507572 343.476285 
L 310.761335 345.42828 
L 311.268862 342.343958 
L 311.522625 344.005391 
L 311.776388 343.775419 
L 312.030151 345.308966 
L 312.283915 343.949949 
L 312.537678 344.092785 
L 312.791441 342.655218 
L 313.045204 345.702927 
L 313.298968 343.718074 
L 313.806494 342.095909 
L 314.060257 345.116814 
L 314.314021 343.605928 
L 314.567784 346.385989 
L 314.821547 346.237823 
L 315.07531 343.608944 
L 315.329074 345.836511 
L 315.582837 345.696867 
L 315.8366 346.92941 
L 316.090363 344.101275 
L 316.344127 346.091359 
L 316.59789 345.944512 
L 316.851653 346.321351 
L 317.105416 344.691577 
L 317.35918 344.261659 
L 317.612943 344.676206 
L 317.866706 345.390677 
L 318.120469 344.41747 
L 318.374233 345.245806 
L 318.627996 346.671203 
L 318.881759 344.198783 
L 319.135522 345.91857 
L 319.389286 343.852525 
L 319.643049 347.132628 
L 319.896812 344.731114 
L 320.150575 347.89778 
L 320.404339 342.980269 
L 320.658102 346.464116 
L 320.911865 344.506555 
L 321.165628 347.976516 
L 321.419392 343.367882 
L 321.673155 345.975045 
L 321.926918 346.921017 
L 322.180681 345.739696 
L 322.688208 345.353671 
L 323.195734 347.851908 
L 323.449497 346.515953 
L 323.703261 344.324367 
L 323.957024 347.016049 
L 324.46455 345.304194 
L 324.718314 343.608672 
L 324.972077 347.511751 
L 325.22584 348.601405 
L 325.733367 345.218958 
L 325.98713 347.175962 
L 326.240893 347.570488 
L 326.494656 344.131972 
L 326.74842 348.501621 
L 327.255946 344.958126 
L 327.509709 346.090638 
L 327.763473 347.853247 
L 328.017236 344.497086 
L 328.270999 347.314763 
L 328.524762 346.895945 
L 328.778526 346.204905 
L 329.032289 349.606949 
L 329.286052 347.826903 
L 329.539815 348.555574 
L 329.793579 346.03989 
L 330.047342 346.785128 
L 330.301105 348.221914 
L 330.554868 347.432324 
L 330.808632 349.013108 
L 331.062395 346.086897 
L 331.316158 346.619354 
L 331.569921 347.621787 
L 331.823685 346.570407 
L 332.077448 348.311637 
L 332.331211 347.377975 
L 332.584974 347.451759 
L 332.838738 347.877615 
L 333.092501 344.972899 
L 333.346264 349.254628 
L 333.600027 347.160751 
L 333.853791 347.678291 
L 334.107554 348.860477 
L 334.361317 348.127018 
L 334.61508 348.314402 
L 334.868844 347.719237 
L 335.122607 348.387049 
L 335.37637 348.438749 
L 335.630133 349.985269 
L 335.883896 349.564077 
L 336.13766 347.767955 
L 336.391423 349.12481 
L 336.645186 348.192957 
L 336.898949 348.288983 
L 337.152713 345.673805 
L 337.406476 347.579793 
L 337.660239 347.755912 
L 337.914002 349.621606 
L 338.167766 347.254758 
L 338.421529 351.844561 
L 338.929055 346.29386 
L 339.182819 345.890567 
L 339.436582 348.794574 
L 339.690345 348.067872 
L 339.944108 350.507558 
L 340.197872 348.626571 
L 340.451635 350.271503 
L 340.705398 348.40629 
L 340.959161 349.661498 
L 341.212925 349.831603 
L 341.466688 348.339586 
L 341.974214 349.689768 
L 342.227978 347.184907 
L 342.481741 347.469917 
L 342.989267 348.365583 
L 343.243031 351.221024 
L 343.496794 348.248245 
L 343.750557 347.804534 
L 344.00432 350.241861 
L 344.258084 346.843432 
L 344.511847 347.22797 
L 344.76561 351.490724 
L 345.019373 348.532666 
L 345.273137 350.852426 
L 345.780663 348.303808 
L 346.034426 350.297548 
L 346.28819 349.333961 
L 346.541953 347.874445 
L 346.795716 348.945474 
L 347.049479 348.972626 
L 347.303243 350.421341 
L 347.557006 346.554509 
L 347.810769 350.901703 
L 348.064532 346.672307 
L 348.318296 350.953395 
L 348.572059 348.079911 
L 348.825822 348.784156 
L 349.079585 348.134914 
L 349.333348 349.549062 
L 349.587112 349.225839 
L 349.840875 350.430496 
L 350.094638 349.565025 
L 350.348401 351.109444 
L 350.602165 350.400175 
L 350.855928 349.018282 
L 351.109691 350.798449 
L 351.363454 351.450049 
L 351.870981 351.001576 
L 352.124744 349.242155 
L 352.378507 351.779246 
L 352.632271 350.996842 
L 353.139797 347.625755 
L 353.39356 350.334872 
L 353.647324 351.632686 
L 353.901087 350.137868 
L 354.15485 350.672593 
L 354.408613 350.94648 
L 354.662377 349.543724 
L 354.91614 349.599872 
L 355.169903 351.983272 
L 355.423666 349.165449 
L 355.67743 342.787749 
L 356.184956 350.371851 
L 356.438719 350.294952 
L 356.692483 350.028851 
L 356.946246 351.487483 
L 357.200009 349.32913 
L 357.453772 351.630146 
L 357.707536 352.879268 
L 357.961299 350.790499 
L 358.215062 339.890721 
L 358.468825 347.167343 
L 358.976352 352.3089 
L 359.230115 346.49219 
L 359.483878 347.617095 
L 359.737642 351.966133 
L 360.245168 351.445871 
L 360.498931 352.431086 
L 360.752695 351.289914 
L 361.006458 352.490204 
L 361.260221 349.894608 
L 361.767748 353.449299 
L 362.021511 349.999495 
L 362.529037 351.544327 
L 362.7828 350.186756 
L 363.036564 351.900567 
L 363.290327 351.79316 
L 363.54409 352.324535 
L 363.797853 352.312653 
L 364.051617 351.766244 
L 364.30538 352.444126 
L 364.559143 352.297509 
L 364.812906 349.694079 
L 365.06667 350.112597 
L 365.320433 352.079234 
L 365.574196 352.352373 
L 365.827959 351.037726 
L 366.081723 353.466957 
L 366.335486 350.613059 
L 366.589249 349.875535 
L 367.096776 353.178907 
L 367.350539 350.88411 
L 367.604302 349.728398 
L 367.858065 352.903713 
L 368.111829 351.993661 
L 368.365592 352.634088 
L 368.619355 350.172684 
L 369.126882 353.617832 
L 369.380645 351.512671 
L 369.634408 350.496022 
L 369.888171 353.858271 
L 370.141935 349.118687 
L 370.395698 350.543072 
L 370.649461 354.259087 
L 370.903224 352.480645 
L 371.156988 352.284343 
L 371.410751 353.936525 
L 371.664514 352.355417 
L 371.918277 352.660166 
L 372.172041 351.029302 
L 372.425804 353.150292 
L 372.679567 352.167994 
L 372.93333 353.185807 
L 373.187094 348.47417 
L 373.69462 355.444888 
L 373.948383 352.178349 
L 374.202147 352.121069 
L 374.45591 352.4267 
L 374.963436 353.873182 
L 375.2172 348.692307 
L 375.470963 352.747726 
L 375.724726 347.869264 
L 375.978489 354.661296 
L 376.232252 353.671405 
L 376.486016 345.317361 
L 376.739779 355.070764 
L 376.993542 353.463691 
L 377.247305 353.73978 
L 377.501069 352.654467 
L 377.754832 347.22265 
L 378.008595 352.977468 
L 378.262358 352.380536 
L 378.769885 352.813803 
L 379.023648 354.183019 
L 379.277411 352.445046 
L 379.531175 352.33637 
L 379.784938 352.638133 
L 380.038701 353.912052 
L 380.292464 352.723512 
L 380.546228 354.718913 
L 380.799991 352.748534 
L 381.053754 354.348035 
L 381.307517 352.174348 
L 381.561281 352.904074 
L 381.815044 352.012923 
L 382.068807 352.994838 
L 382.576334 353.64267 
L 382.830097 354.594807 
L 383.08386 354.764314 
L 383.337623 354.023782 
L 383.591387 352.519809 
L 383.84515 354.242551 
L 384.098913 353.548421 
L 384.352676 352.475128 
L 384.60644 352.04888 
L 384.860203 353.938446 
L 385.113966 353.576242 
L 385.367729 353.779097 
L 385.875256 353.192195 
L 386.129019 352.391937 
L 386.382782 354.651794 
L 386.636546 353.318736 
L 386.890309 354.007219 
L 387.144072 352.759761 
L 387.651599 353.451053 
L 387.905362 349.935021 
L 388.159125 349.939445 
L 388.412888 354.455227 
L 388.666652 354.221831 
L 388.920415 354.542302 
L 389.174178 352.156813 
L 389.427941 355.413193 
L 389.681704 353.165992 
L 389.935468 353.492121 
L 390.189231 352.554651 
L 390.442994 352.866428 
L 390.696757 354.164965 
L 390.950521 351.092395 
L 391.204284 299.689047 
L 391.458047 353.07332 
L 391.965574 353.972012 
L 392.219337 354.124363 
L 392.4731 355.03844 
L 392.726863 355.239048 
L 392.980627 355.110114 
L 393.23439 353.869308 
L 393.488153 356.386958 
L 393.741916 355.819315 
L 393.99568 356.569295 
L 394.249443 354.021537 
L 394.503206 353.999674 
L 394.756969 354.774206 
L 395.010733 356.252969 
L 395.264496 355.541745 
L 395.518259 356.504838 
L 395.772022 355.826098 
L 396.025786 355.631017 
L 396.279549 355.935496 
L 396.533312 355.050467 
L 396.787075 352.544768 
L 397.040839 355.360191 
L 397.294602 354.347234 
L 397.548365 355.378392 
L 397.802128 354.337379 
L 398.055892 355.019425 
L 398.309655 354.526499 
L 398.563418 356.353416 
L 398.817181 354.284511 
L 399.070945 356.297013 
L 399.324708 355.312029 
L 399.832234 351.432218 
L 400.085998 355.7417 
L 400.339761 353.752181 
L 400.593524 355.004406 
L 400.847287 353.661508 
L 401.101051 354.432429 
L 401.354814 353.19518 
L 401.608577 354.513722 
L 401.86234 354.299861 
L 402.116104 357.41093 
L 402.369867 354.654902 
L 402.62363 354.767845 
L 403.131156 352.962917 
L 403.38492 355.45483 
L 403.638683 356.607644 
L 403.892446 355.252241 
L 404.146209 355.018674 
L 404.399973 355.578981 
L 404.653736 357.001456 
L 404.907499 356.292794 
L 405.161262 356.146857 
L 405.415026 355.266097 
L 405.668789 356.292761 
L 405.922552 356.179221 
L 406.176315 354.292732 
L 406.430079 342.292469 
L 406.683842 357.500988 
L 406.937605 356.983112 
L 407.191368 357.927213 
L 407.445132 355.887214 
L 407.952658 355.120251 
L 408.206421 356.309478 
L 408.460185 352.364368 
L 408.713948 355.565876 
L 408.967711 354.575449 
L 409.221474 355.81889 
L 409.475238 356.00634 
L 409.729001 354.78914 
L 409.982764 352.518261 
L 410.236527 355.791151 
L 410.744054 358.67946 
L 410.997817 355.125765 
L 411.25158 356.029929 
L 411.505344 354.182113 
L 411.759107 357.910869 
L 412.01287 358.768207 
L 412.520397 355.117473 
L 413.027923 357.575914 
L 413.281686 357.22941 
L 413.789213 354.155631 
L 414.042976 355.553657 
L 414.296739 355.816839 
L 414.550503 357.781962 
L 414.804266 358.086612 
L 415.058029 355.697302 
L 415.311792 358.361761 
L 415.565556 356.2142 
L 415.819319 356.369771 
L 416.326845 354.326613 
L 416.580608 356.939914 
L 416.834372 356.325188 
L 417.088135 357.689628 
L 417.341898 353.758514 
L 417.595661 358.090432 
L 417.849425 356.255297 
L 418.103188 358.079734 
L 418.356951 356.172911 
L 418.610714 358.197627 
L 418.864478 358.158118 
L 419.118241 357.672488 
L 419.372004 351.002742 
L 419.625767 355.226673 
L 419.879531 346.405227 
L 420.133294 356.655933 
L 420.387057 355.934452 
L 420.64082 358.423561 
L 420.894584 357.198393 
L 421.148347 357.730125 
L 421.40211 354.626265 
L 421.909637 358.641902 
L 422.1634 355.446031 
L 422.417163 357.866995 
L 422.670926 356.789885 
L 422.92469 356.468544 
L 423.178453 357.417024 
L 423.432216 354.211503 
L 423.685979 354.662609 
L 423.939743 359.194471 
L 424.193506 357.564719 
L 424.447269 352.913395 
L 424.701032 356.985142 
L 424.954796 356.798876 
L 425.208559 356.126336 
L 425.462322 359.112935 
L 425.716085 358.254006 
L 425.969849 356.082615 
L 426.223612 356.594783 
L 426.477375 353.805564 
L 426.984902 357.685359 
L 427.238665 355.012365 
L 427.492428 359.26459 
L 427.746191 358.679072 
L 427.999955 357.59354 
L 428.253718 358.162446 
L 428.507481 358.203205 
L 428.761244 358.674218 
L 429.015008 355.192662 
L 429.268771 356.549854 
L 429.522534 354.837572 
L 429.776297 351.163298 
L 430.03006 358.121199 
L 430.283824 358.491981 
L 430.537587 357.366391 
L 430.79135 358.600772 
L 431.045113 359.09511 
L 431.298877 357.286642 
L 431.55264 358.974845 
L 431.806403 357.631105 
L 432.060166 357.236006 
L 432.31393 357.440494 
L 432.567693 357.444431 
L 432.821456 356.614152 
L 433.328983 359.010226 
L 433.582746 359.877525 
L 434.090272 358.442056 
L 434.344036 356.866058 
L 434.597799 359.38309 
L 434.851562 358.18069 
L 435.105325 358.290374 
L 435.359089 357.300333 
L 435.612852 358.175836 
L 435.866615 357.611063 
L 436.120378 358.167948 
L 436.374142 357.479291 
L 436.627905 357.819074 
L 436.881668 359.3809 
L 437.135431 356.622602 
L 437.389195 357.377386 
L 437.642958 359.412323 
L 437.896721 358.841659 
L 438.150484 359.166199 
L 438.404248 356.684599 
L 438.658011 357.45822 
L 438.911774 360.942815 
L 439.165537 357.633631 
L 439.419301 357.426727 
L 439.673064 358.149061 
L 439.926827 354.350937 
L 440.18059 357.100892 
L 440.688117 358.234543 
L 441.195643 356.093071 
L 441.449407 358.66215 
L 441.70317 359.862129 
L 441.956933 358.693611 
L 442.210696 358.878735 
L 442.46446 358.034929 
L 442.718223 357.593359 
L 442.971986 359.712149 
L 443.479512 358.767005 
L 443.733276 356.860355 
L 443.987039 358.858154 
L 444.240802 357.479902 
L 444.494565 358.155594 
L 444.748329 356.483298 
L 445.002092 356.979336 
L 445.255855 355.247231 
L 445.509618 354.485332 
L 445.763382 359.02053 
L 446.017145 360.069385 
L 446.270908 352.819752 
L 446.524671 359.650199 
L 446.778435 356.489694 
L 447.032198 358.069885 
L 447.539724 359.482079 
L 447.793488 357.935114 
L 448.047251 359.018984 
L 448.301014 356.595289 
L 448.554777 357.446315 
L 448.808541 359.330578 
L 449.062304 359.890775 
L 449.316067 358.53904 
L 449.56983 359.877363 
L 449.823594 359.227471 
L 450.077357 360.518543 
L 450.33112 357.309338 
L 450.838647 359.275182 
L 451.09241 359.593888 
L 451.8537 361.477204 
L 452.107463 354.922441 
L 452.361226 356.90626 
L 452.614989 356.761217 
L 452.868753 360.795339 
L 453.122516 359.854972 
L 453.376279 360.388213 
L 453.630042 359.436432 
L 453.883806 357.776492 
L 454.137569 360.771584 
L 454.645095 358.350654 
L 454.898859 355.988033 
L 455.152622 359.317287 
L 455.406385 358.952556 
L 455.660148 358.852983 
L 455.913912 357.007249 
L 456.167675 358.286146 
L 456.421438 360.303306 
L 456.675201 360.067737 
L 456.928964 358.178371 
L 457.182728 357.409284 
L 457.436491 360.164646 
L 457.690254 356.759033 
L 457.944017 360.567572 
L 458.197781 356.980253 
L 458.451544 357.381729 
L 458.705307 359.824166 
L 458.95907 356.884315 
L 459.466597 361.102293 
L 459.974123 359.681895 
L 460.227887 359.034501 
L 460.48165 352.098601 
L 460.735413 359.735913 
L 460.989176 359.944641 
L 461.24294 358.616143 
L 461.496703 360.772811 
L 461.750466 358.068861 
L 462.004229 360.167721 
L 462.257993 357.982872 
L 462.511756 359.557135 
L 462.765519 360.234761 
L 463.019282 358.668796 
L 463.273046 360.907013 
L 463.526809 359.62604 
L 463.780572 361.552532 
L 464.034335 361.407715 
L 464.288099 359.198322 
L 464.541862 359.100941 
L 464.795625 355.79619 
L 465.049388 362.199237 
L 465.303152 359.186704 
L 465.556915 360.257105 
L 465.810678 362.297162 
L 466.064441 362.928685 
L 466.318205 359.708835 
L 466.571968 358.640201 
L 467.079494 361.557726 
L 467.333258 360.451497 
L 467.587021 361.150157 
L 467.840784 359.106669 
L 468.094547 358.263129 
L 468.348311 361.16227 
L 468.855837 359.71084 
L 469.1096 360.399807 
L 469.363363 361.920169 
L 469.617127 361.778129 
L 469.87089 360.728786 
L 470.378416 360.856798 
L 470.63218 360.421934 
L 470.885943 361.572185 
L 471.139706 360.911811 
L 471.393469 359.218813 
L 471.900996 361.217244 
L 472.408522 357.432905 
L 472.662286 361.091448 
L 472.916049 362.062801 
L 473.169812 359.260321 
L 473.423575 358.746894 
L 473.677339 360.231934 
L 473.931102 360.267902 
L 474.184865 358.822145 
L 474.438628 360.613769 
L 474.692392 347.591122 
L 474.946155 362.048031 
L 475.199918 360.136773 
L 475.453681 361.365713 
L 475.707445 360.253937 
L 475.961208 361.960032 
L 476.214971 356.919874 
L 476.722498 360.731383 
L 476.976261 359.524726 
L 477.230024 359.662042 
L 477.483787 363.012279 
L 477.737551 358.746416 
L 477.991314 360.445678 
L 478.245077 359.475541 
L 478.49884 362.675379 
L 478.752604 363.066273 
L 479.006367 358.247842 
L 479.26013 360.166838 
L 480.02142 362.05096 
L 480.275183 361.207653 
L 480.528946 361.843511 
L 480.78271 358.161055 
L 481.036473 359.223706 
L 481.290236 359.688522 
L 481.543999 361.672372 
L 481.797763 360.500325 
L 482.051526 362.311056 
L 482.305289 360.991552 
L 482.559052 360.84631 
L 482.812815 360.267812 
L 483.066579 360.442816 
L 483.320342 359.815168 
L 483.574105 361.707579 
L 483.827868 362.089351 
L 484.081632 361.755292 
L 484.335395 362.578919 
L 484.589158 362.406224 
L 484.842921 362.702153 
L 485.096685 362.341346 
L 485.350448 360.76365 
L 485.604211 361.528118 
L 485.857974 360.099892 
L 486.365501 362.282156 
L 486.619264 360.881756 
L 486.873027 362.100304 
L 487.126791 361.192491 
L 487.380554 358.898079 
L 487.634317 362.180061 
L 487.88808 360.867669 
L 488.141844 361.978699 
L 488.395607 358.867476 
L 488.64937 361.910313 
L 488.903133 361.0801 
L 489.156897 361.798533 
L 489.41066 358.988482 
L 489.664423 361.74427 
L 489.918186 361.780965 
L 490.17195 362.172127 
L 490.425713 361.14522 
L 490.679476 361.735271 
L 490.933239 361.97755 
L 491.187003 360.869715 
L 491.440766 360.625236 
L 491.694529 363.381028 
L 491.948292 359.411714 
L 492.202056 359.408135 
L 492.709582 363.005858 
L 492.963345 357.677345 
L 493.217109 361.820785 
L 493.470872 360.678711 
L 493.724635 364.229552 
L 493.978398 360.755392 
L 494.232162 361.001197 
L 494.485925 360.986984 
L 494.993451 363.925423 
L 495.247215 361.301271 
L 495.500978 362.148135 
L 495.754741 358.598772 
L 496.008504 360.989319 
L 496.516031 362.835323 
L 497.27732 360.050485 
L 497.531084 361.211334 
L 498.03861 360.426865 
L 498.292373 360.572505 
L 498.546137 360.428961 
L 498.7999 362.3844 
L 499.053663 363.435631 
L 499.307426 362.596017 
L 499.56119 362.955728 
L 499.814953 360.844632 
L 500.068716 361.788364 
L 500.322479 360.148789 
L 500.576243 361.215414 
L 500.830006 263.012956 
L 501.083769 360.601391 
L 501.337532 361.620535 
L 501.591296 363.926503 
L 501.845059 361.850837 
L 502.352585 362.5027 
L 502.606349 359.625675 
L 502.860112 361.986622 
L 503.113875 362.705589 
L 503.367638 362.21896 
L 503.621402 362.662949 
L 503.875165 362.563247 
L 504.128928 363.144206 
L 504.382691 363.330481 
L 504.636455 362.664154 
L 504.890218 363.539206 
L 505.143981 361.329572 
L 505.397744 363.066032 
L 505.651508 362.74674 
L 505.905271 364.071202 
L 506.412797 360.335782 
L 506.666561 359.953627 
L 506.920324 362.379179 
L 507.174087 360.828512 
L 507.42785 360.187677 
L 507.681614 363.488886 
L 507.935377 362.765499 
L 508.18914 363.714054 
L 508.442903 360.706851 
L 508.696667 363.423689 
L 508.95043 362.75038 
L 509.204193 362.78209 
L 509.457956 360.239858 
L 509.711719 361.874697 
L 509.965483 361.226395 
L 510.219246 362.791808 
L 510.473009 362.565675 
L 510.726772 364.655174 
L 510.980536 362.409573 
L 511.234299 362.575774 
L 511.488062 362.559348 
L 511.741825 362.322869 
L 511.995589 359.797902 
L 512.249352 358.686662 
L 512.503115 363.363715 
L 512.756878 363.231758 
L 513.010642 357.063827 
L 513.264405 330.42862 
L 513.518168 361.218822 
L 514.025695 365.510162 
L 514.279458 364.232677 
L 514.533221 364.105997 
L 514.786984 362.601801 
L 515.040748 361.929458 
L 515.294511 364.368724 
L 515.802037 361.079359 
L 516.055801 363.586557 
L 516.309564 363.765213 
L 516.563327 363.256842 
L 516.81709 363.371779 
L 517.070854 364.237601 
L 517.57838 359.603929 
L 517.832143 364.08879 
L 518.085907 363.748621 
L 518.33967 364.517159 
L 518.593433 356.335878 
L 518.847196 363.233966 
L 519.10096 364.154747 
L 519.354723 360.959877 
L 519.608486 362.755911 
L 520.116013 363.356131 
L 520.369776 356.261065 
L 520.623539 363.493415 
L 520.877302 358.628308 
L 521.131066 351.452919 
L 521.384829 359.879429 
L 521.638592 362.83222 
L 521.892355 363.052152 
L 522.146119 359.944203 
L 522.399882 361.703428 
L 522.653645 360.491012 
L 522.907408 360.802875 
L 523.161171 362.966995 
L 523.414935 357.053655 
L 523.668698 362.789851 
L 524.176224 363.38024 
L 524.429988 365.88249 
L 524.937514 361.949751 
L 525.445041 363.690302 
L 525.698804 361.017484 
L 525.952567 364.651533 
L 526.20633 364.595382 
L 526.460094 362.678192 
L 526.713857 363.841912 
L 526.96762 363.30634 
L 527.221383 364.81587 
L 527.475147 362.887757 
L 527.72891 364.344067 
L 527.982673 363.983406 
L 528.4902 361.019402 
L 528.743963 362.460262 
L 528.997726 364.739365 
L 529.251489 364.590879 
L 529.505253 361.475133 
L 529.759016 363.905704 
L 530.012779 363.739895 
L 530.266542 350.519736 
L 530.520306 363.710609 
L 530.774069 361.596395 
L 531.027832 364.019387 
L 531.281595 363.839424 
L 531.535359 364.46267 
L 531.789122 366.527702 
L 532.042885 362.108237 
L 532.296648 364.055627 
L 532.550412 364.015779 
L 532.804175 362.537049 
L 533.057938 363.853378 
L 533.311701 362.313216 
L 533.565465 365.299618 
L 533.819228 365.511789 
L 534.072991 362.841923 
L 534.326754 364.199992 
L 534.580518 362.97506 
L 534.834281 363.015679 
L 535.088044 363.766207 
L 535.341807 362.208964 
L 535.595571 363.333062 
L 535.849334 363.176286 
L 536.103097 362.179337 
L 536.35686 362.252946 
L 536.610623 362.774874 
L 536.864387 363.691511 
L 537.11815 362.686814 
L 537.371913 364.174437 
L 537.625676 363.101022 
L 537.87944 366.873206 
L 538.133203 363.338085 
L 538.386966 361.917412 
L 538.640729 364.794416 
L 538.894493 365.446821 
L 539.148256 348.437611 
L 539.402019 363.982219 
L 539.655782 363.751254 
L 539.909546 362.455099 
L 540.163309 363.125715 
L 540.417072 365.221769 
L 540.670835 364.874141 
L 540.924599 361.703784 
L 541.178362 362.139193 
L 541.432125 363.098819 
L 541.685888 365.285419 
L 541.939652 366.48298 
L 542.193415 364.055212 
L 542.447178 365.176373 
L 542.700941 364.144798 
L 542.954705 364.803571 
L 543.208468 362.83183 
L 543.462231 362.456267 
L 543.715994 365.195342 
L 543.969758 365.707881 
L 544.223521 364.447598 
L 544.477284 361.413845 
L 544.731047 363.464532 
L 544.984811 361.842166 
L 545.238574 362.18741 
L 545.492337 363.057011 
L 545.7461 360.776947 
L 545.999864 361.249557 
L 546.253627 363.350536 
L 546.50739 364.402187 
L 546.761153 364.760213 
L 547.014917 361.596234 
L 547.26868 365.829691 
L 547.522443 365.324879 
L 547.776206 365.846974 
L 548.02997 364.861973 
L 548.283733 365.306648 
L 548.791259 362.366269 
L 549.045023 362.628754 
L 549.298786 363.085047 
L 549.552549 363.950034 
L 549.806312 362.388352 
L 550.313839 364.446024 
L 550.567602 360.692023 
L 550.821365 364.895399 
L 551.075128 362.952984 
L 551.328892 363.285627 
L 551.582655 365.163965 
L 551.836418 362.911302 
L 552.090181 366.158783 
L 552.343945 360.852375 
L 552.597708 360.953304 
L 552.851471 363.460723 
L 553.105234 359.797808 
L 553.358998 365.564303 
L 553.612761 364.505598 
L 553.866524 359.877189 
L 554.120287 364.40316 
L 554.627814 366.192533 
L 554.881577 363.31565 
L 555.13534 366.518883 
L 555.389104 364.866963 
L 555.642867 366.078704 
L 555.89663 362.979616 
L 556.404157 365.700332 
L 556.65792 361.045191 
L 556.911683 364.768575 
L 557.165446 365.520955 
L 557.41921 365.699758 
L 557.672973 364.059914 
L 558.180499 366.261312 
L 558.434263 362.365641 
L 558.688026 363.890983 
L 558.941789 366.333987 
L 559.195552 362.497867 
L 559.449316 364.821873 
L 559.703079 363.349545 
L 560.210605 364.949942 
L 560.464369 364.363763 
L 560.718132 362.702477 
L 560.971895 363.430363 
L 561.225658 363.104527 
L 561.479422 364.706675 
L 561.733185 363.34375 
L 561.986948 364.275402 
L 562.240711 348.803815 
L 562.494475 364.697563 
L 562.748238 362.667053 
L 563.002001 362.343343 
L 563.255764 364.108385 
L 563.509527 359.7098 
L 563.763291 365.888479 
L 564.017054 365.23064 
L 564.270817 361.699287 
L 564.52458 365.96823 
L 564.778344 366.37518 
L 565.032107 366.364704 
L 565.28587 361.38826 
L 565.539633 361.276403 
L 565.793397 365.625733 
L 566.04716 366.458031 
L 566.300923 366.236036 
L 566.554686 364.363128 
L 566.80845 364.126298 
L 567.062213 367.349823 
L 567.315976 362.968434 
L 567.569739 366.733563 
L 567.823503 364.942915 
L 568.331029 363.216397 
L 568.584792 365.104997 
L 568.838556 362.917895 
L 569.092319 363.226641 
L 569.346082 362.963486 
L 569.599845 363.100468 
L 569.853609 365.483293 
L 570.107372 365.740466 
L 570.361135 363.454371 
L 570.614898 364.183732 
L 570.868662 366.29945 
L 571.122425 365.78889 
L 571.376188 357.783944 
L 571.629951 367.014259 
L 571.883715 363.003408 
L 572.137478 364.75193 
L 572.391241 363.364886 
L 572.645004 366.208302 
L 572.898768 364.28798 
L 573.152531 366.561583 
L 573.406294 365.203952 
L 573.660057 367.129997 
L 573.913821 367.364413 
L 574.167584 365.538996 
L 574.421347 362.672526 
L 574.928874 367.247233 
L 575.182637 366.232837 
L 575.4364 365.805587 
L 575.690163 363.094882 
L 575.943927 363.841483 
L 576.451453 366.569624 
L 576.705216 366.68998 
L 576.958979 354.176647 
L 577.212743 362.398881 
L 577.466506 366.829072 
L 577.720269 365.798636 
L 577.974032 363.020889 
L 578.227796 366.537623 
L 578.481559 363.796679 
L 578.735322 365.925812 
L 578.989085 364.745631 
L 579.242849 365.724212 
L 579.496612 365.104183 
L 579.750375 362.66934 
L 580.004138 366.078915 
L 580.257902 366.260324 
L 580.511665 365.295567 
L 580.765428 367.13409 
L 581.019191 364.31521 
L 581.272955 365.552142 
L 581.526718 365.259957 
L 581.780481 368.123751 
L 582.034244 365.600054 
L 582.288008 366.04748 
L 582.541771 365.749089 
L 582.795534 366.993825 
L 583.049297 366.087393 
L 583.303061 365.850808 
L 583.556824 363.846503 
L 583.810587 366.715527 
L 584.06435 364.896258 
L 584.318114 366.915471 
L 584.571877 364.910199 
L 584.82564 367.400064 
L 585.079403 364.275059 
L 585.333167 364.391253 
L 585.58693 365.204604 
L 585.840693 364.751246 
L 586.094456 364.557302 
L 586.34822 318.643325 
L 586.601983 363.900444 
L 586.855746 364.056398 
L 587.109509 365.214794 
L 587.363273 367.837141 
L 587.617036 365.095804 
L 587.870799 366.4941 
L 588.124562 366.800901 
L 588.378326 368.342401 
L 588.632089 366.728878 
L 588.885852 363.030411 
L 589.647142 367.980798 
L 589.900905 364.351546 
L 590.154668 366.999749 
L 590.408431 367.814324 
L 590.915958 363.20155 
L 591.169721 366.426172 
L 591.423484 366.502205 
L 591.677248 366.339699 
L 591.931011 365.736335 
L 592.438537 363.34188 
L 592.692301 365.374763 
L 592.946064 366.080743 
L 593.199827 365.235841 
L 593.45359 362.505458 
L 593.707354 366.043885 
L 594.21488 365.465574 
L 594.468643 365.636736 
L 594.722407 363.989571 
L 594.97617 365.875636 
L 595.229933 364.669232 
L 595.483696 366.974516 
L 595.73746 366.828193 
L 595.991223 367.531734 
L 596.244986 366.090992 
L 596.498749 366.657499 
L 596.752513 367.684348 
L 597.006276 365.990387 
L 597.260039 365.107978 
L 597.513802 367.710049 
L 597.767566 366.626216 
L 598.021329 366.973859 
L 598.528855 364.634387 
L 598.782619 367.637521 
L 599.036382 366.738624 
L 599.290145 369.094716 
L 599.543908 364.305809 
L 599.797672 367.425416 
L 600.051435 368.226011 
L 600.305198 366.205529 
L 600.558961 367.365383 
L 600.812725 362.004175 
L 601.066488 366.321956 
L 601.320251 364.098835 
L 601.574014 367.624245 
L 601.827778 367.488595 
L 602.081541 364.580517 
L 602.335304 368.581841 
L 602.589067 363.014116 
L 602.842831 368.226389 
L 603.096594 368.25319 
L 603.60412 366.872023 
L 603.857883 365.352108 
L 604.111647 366.638841 
L 604.619173 365.767799 
L 604.872936 365.64522 
L 605.1267 366.010625 
L 605.380463 365.791923 
L 605.634226 366.051743 
L 605.887989 364.149959 
L 606.141753 363.525862 
L 606.395516 367.010558 
L 606.649279 364.579846 
L 606.903042 369.088786 
L 607.156806 365.565753 
L 607.410569 365.865468 
L 607.664332 366.467553 
L 607.918095 367.846257 
L 608.171859 364.688004 
L 608.425622 367.491725 
L 608.679385 368.06333 
L 608.933148 360.886148 
L 609.186912 365.882111 
L 609.440675 366.180067 
L 609.694438 367.374546 
L 609.948201 363.033846 
L 610.201965 368.006464 
L 610.455728 366.248575 
L 610.709491 367.234785 
L 610.963254 365.792351 
L 611.217018 367.456549 
L 611.470781 365.092111 
L 611.978307 367.304277 
L 612.232071 368.671536 
L 612.485834 366.204783 
L 612.739597 367.037185 
L 612.99336 368.446448 
L 613.247124 367.199611 
L 613.500887 366.714488 
L 613.75465 364.278627 
L 614.008413 366.063833 
L 614.769703 367.926143 
L 615.023466 365.883408 
L 615.27723 369.36 
L 615.530993 368.166232 
L 615.784756 367.97632 
L 616.038519 366.650483 
L 616.292283 366.548866 
L 616.546046 365.826446 
L 616.799809 366.335041 
L 617.053572 364.907786 
L 617.561099 365.840039 
L 617.814862 368.305807 
L 618.068625 366.59374 
L 618.322388 367.034371 
L 618.576152 365.61331 
L 618.829915 367.393955 
L 619.083678 366.226885 
L 619.337441 366.107789 
L 619.591205 363.823376 
L 619.844968 367.618902 
L 620.098731 363.837772 
L 620.352494 368.376092 
L 620.860021 365.500803 
L 621.113784 364.719766 
L 621.367547 366.876396 
L 621.621311 364.739981 
L 621.875074 366.469351 
L 622.128837 365.171533 
L 622.3826 362.005653 
L 622.636364 366.81952 
L 622.636364 366.81952 
" clip-path="url(#p61a514e14b)" style="fill: none; stroke: #1f77b4; stroke-width: 1.5; stroke-linecap: square"/>
   </g>
   <g id="patch_3">
    <path d="M 90 384.48 
L 90 51.84 
" style="fill: none; stroke: #000000; stroke-width: 0.8; stroke-linejoin: miter; stroke-linecap: square"/>
   </g>
   <g id="patch_4">
    <path d="M 648 384.48 
L 648 51.84 
" style="fill: none; stroke: #000000; stroke-width: 0.8; stroke-linejoin: miter; stroke-linecap: square"/>
   </g>
   <g id="patch_5">
    <path d="M 90 384.48 
L 648 384.48 
" style="fill: none; stroke: #000000; stroke-width: 0.8; stroke-linejoin: miter; stroke-linecap: square"/>
   </g>
   <g id="patch_6">
    <path d="M 90 51.84 
L 648 51.84 
" style="fill: none; stroke: #000000; stroke-width: 0.8; stroke-linejoin: miter; stroke-linecap: square"/>
   </g>
   <g id="text_19">
    <!-- Training Loss Curve -->
    <g transform="translate(312 45.84) scale(0.12 -0.12)">
     <defs>
      <path id="SimHei-54" d="M 2850 3925 
L 1850 3925 
L 1850 125 
L 1275 125 
L 1275 3925 
L 275 3925 
L 275 4400 
L 2850 4400 
L 2850 3925 
z
" transform="scale(0.015625)"/>
      <path id="SimHei-67" d="M 2975 2500 
Q 2800 2550 2637 2562 
Q 2475 2575 2300 2525 
Q 2375 2450 2425 2337 
Q 2475 2225 2475 2000 
Q 2475 1575 2187 1300 
Q 1900 1025 1475 1025 
Q 1375 1025 1212 1062 
Q 1050 1100 950 1150 
Q 875 1100 850 1050 
Q 825 1000 825 925 
Q 825 800 1000 737 
Q 1175 675 1625 675 
Q 2350 675 2612 475 
Q 2875 275 2875 -25 
Q 2875 -425 2487 -612 
Q 2100 -800 1575 -800 
Q 900 -800 575 -625 
Q 250 -450 250 -150 
Q 250 0 375 150 
Q 500 300 700 400 
Q 550 475 462 587 
Q 375 700 375 875 
Q 375 1025 487 1137 
Q 600 1250 750 1325 
Q 625 1450 550 1625 
Q 475 1800 475 2000 
Q 475 2425 762 2700 
Q 1050 2975 1475 2975 
Q 1700 2975 1862 2912 
Q 2025 2850 2150 2725 
Q 2350 2875 2550 2937 
Q 2750 3000 2975 2975 
L 2975 2500 
z
M 1975 2000 
Q 1975 2250 1850 2400 
Q 1725 2550 1475 2550 
Q 1225 2550 1100 2400 
Q 975 2250 975 2000 
Q 975 1750 1100 1600 
Q 1225 1450 1475 1450 
Q 1725 1450 1850 1600 
Q 1975 1750 1975 2000 
z
M 2400 -75 
Q 2400 25 2287 125 
Q 2175 225 1725 225 
Q 1625 225 1450 237 
Q 1275 250 1050 275 
Q 850 200 775 100 
Q 700 0 700 -100 
Q 700 -250 900 -350 
Q 1100 -450 1600 -450 
Q 2025 -450 2212 -337 
Q 2400 -225 2400 -75 
z
" transform="scale(0.015625)"/>
      <path id="SimHei-20" transform="scale(0.015625)"/>
      <path id="SimHei-43" d="M 2975 1825 
Q 2950 875 2575 475 
Q 2200 75 1675 75 
Q 1075 75 650 562 
Q 225 1050 225 2125 
Q 225 3300 637 3875 
Q 1050 4450 1700 4450 
Q 2250 4450 2612 4037 
Q 2975 3625 2950 2875 
L 2400 2875 
Q 2400 3425 2225 3700 
Q 2050 3975 1700 3975 
Q 1300 3975 1062 3562 
Q 825 3150 825 2175 
Q 825 1275 1062 912 
Q 1300 550 1675 550 
Q 1950 550 2175 812 
Q 2400 1075 2400 1825 
L 2975 1825 
z
" transform="scale(0.015625)"/>
      <path id="SimHei-75" d="M 2800 125 
L 2300 125 
L 2300 650 
Q 2100 375 1862 225 
Q 1625 75 1250 75 
Q 800 75 575 325 
Q 350 575 350 950 
L 350 2925 
L 850 2925 
L 850 1125 
Q 850 825 1000 650 
Q 1150 475 1400 475 
Q 1725 475 2012 812 
Q 2300 1150 2300 1650 
L 2300 2925 
L 2800 2925 
L 2800 125 
z
" transform="scale(0.015625)"/>
      <path id="SimHei-76" d="M 2875 2925 
L 1825 75 
L 1275 75 
L 225 2925 
L 750 2925 
L 1525 750 
L 1575 750 
L 2350 2925 
L 2875 2925 
z
" transform="scale(0.015625)"/>
     </defs>
     <use xlink:href="#SimHei-54"/>
     <use xlink:href="#SimHei-72" transform="translate(50 0)"/>
     <use xlink:href="#SimHei-61" transform="translate(100 0)"/>
     <use xlink:href="#SimHei-69" transform="translate(150 0)"/>
     <use xlink:href="#SimHei-6e" transform="translate(200 0)"/>
     <use xlink:href="#SimHei-69" transform="translate(250 0)"/>
     <use xlink:href="#SimHei-6e" transform="translate(300 0)"/>
     <use xlink:href="#SimHei-67" transform="translate(350 0)"/>
     <use xlink:href="#SimHei-20" transform="translate(400 0)"/>
     <use xlink:href="#SimHei-4c" transform="translate(450 0)"/>
     <use xlink:href="#SimHei-6f" transform="translate(500 0)"/>
     <use xlink:href="#SimHei-73" transform="translate(550 0)"/>
     <use xlink:href="#SimHei-73" transform="translate(600 0)"/>
     <use xlink:href="#SimHei-20" transform="translate(650 0)"/>
     <use xlink:href="#SimHei-43" transform="translate(700 0)"/>
     <use xlink:href="#SimHei-75" transform="translate(750 0)"/>
     <use xlink:href="#SimHei-72" transform="translate(800 0)"/>
     <use xlink:href="#SimHei-76" transform="translate(850 0)"/>
     <use xlink:href="#SimHei-65" transform="translate(900 0)"/>
    </g>
   </g>
   <g id="legend_1">
    <g id="patch_7">
     <path d="M 559 73.09 
L 641 73.09 
Q 643 73.09 643 71.09 
L 643 58.84 
Q 643 56.84 641 56.84 
L 559 56.84 
Q 557 56.84 557 58.84 
L 557 71.09 
Q 557 73.09 559 73.09 
z
" style="fill: #ffffff; opacity: 0.8; stroke: #cccccc; stroke-linejoin: miter"/>
    </g>
    <g id="line2d_34">
     <path d="M 561 64.34 
L 571 64.34 
L 581 64.34 
" style="fill: none; stroke: #1f77b4; stroke-width: 1.5; stroke-linecap: square"/>
    </g>
    <g id="text_20">
     <!-- Loss Curve -->
     <g transform="translate(589 67.84) scale(0.1 -0.1)">
      <use xlink:href="#SimHei-4c"/>
      <use xlink:href="#SimHei-6f" transform="translate(50 0)"/>
      <use xlink:href="#SimHei-73" transform="translate(100 0)"/>
      <use xlink:href="#SimHei-73" transform="translate(150 0)"/>
      <use xlink:href="#SimHei-20" transform="translate(200 0)"/>
      <use xlink:href="#SimHei-43" transform="translate(250 0)"/>
      <use xlink:href="#SimHei-75" transform="translate(300 0)"/>
      <use xlink:href="#SimHei-72" transform="translate(350 0)"/>
      <use xlink:href="#SimHei-76" transform="translate(400 0)"/>
      <use xlink:href="#SimHei-65" transform="translate(450 0)"/>
     </g>
    </g>
   </g>
  </g>
 </g>
 <defs>
  <clipPath id="p61a514e14b">
   <rect x="90" y="51.84" width="558" height="332.64"/>
  </clipPath>
 </defs>
</svg>
