<?xml version="1.0" encoding="utf-8" standalone="no"?>
<!DOCTYPE svg PUBLIC "-//W3C//DTD SVG 1.1//EN"
  "http://www.w3.org/Graphics/SVG/1.1/DTD/svg11.dtd">
<svg xmlns:xlink="http://www.w3.org/1999/xlink" width="720pt" height="432pt" viewBox="0 0 720 432" xmlns="http://www.w3.org/2000/svg" version="1.1">
 <metadata>
  <rdf:RDF xmlns:dc="http://purl.org/dc/elements/1.1/" xmlns:cc="http://creativecommons.org/ns#" xmlns:rdf="http://www.w3.org/1999/02/22-rdf-syntax-ns#">
   <cc:Work>
    <dc:type rdf:resource="http://purl.org/dc/dcmitype/StillImage"/>
    <dc:date>2025-04-24T11:51:24.961201</dc:date>
    <dc:format>image/svg+xml</dc:format>
    <dc:creator>
     <cc:Agent>
      <dc:title>Matplotlib v3.10.1, https://matplotlib.org/</dc:title>
     </cc:Agent>
    </dc:creator>
   </cc:Work>
  </rdf:RDF>
 </metadata>
 <defs>
  <style type="text/css">*{stroke-linejoin: round; stroke-linecap: butt}</style>
 </defs>
 <g id="figure_1">
  <g id="patch_1">
   <path d="M 0 432 
L 720 432 
L 720 0 
L 0 0 
z
" style="fill: #ffffff"/>
  </g>
  <g id="axes_1">
   <g id="patch_2">
    <path d="M 90 384.48 
L 648 384.48 
L 648 51.84 
L 90 51.84 
z
" style="fill: #ffffff"/>
   </g>
   <g id="matplotlib.axis_1">
    <g id="xtick_1">
     <g id="line2d_1">
      <path d="M 115.363636 384.48 
L 115.363636 51.84 
" clip-path="url(#p8da3535ef5)" style="fill: none; stroke: #b0b0b0; stroke-width: 0.8; stroke-linecap: square"/>
     </g>
     <g id="line2d_2">
      <defs>
       <path id="mc0c7cbb1e2" d="M 0 0 
L 0 3.5 
" style="stroke: #000000; stroke-width: 0.8"/>
      </defs>
      <g>
       <use xlink:href="#mc0c7cbb1e2" x="115.363636" y="384.48" style="stroke: #000000; stroke-width: 0.8"/>
      </g>
     </g>
     <g id="text_1">
      <!-- 0 -->
      <g transform="translate(112.863636 398.355) scale(0.1 -0.1)">
       <defs>
        <path id="SimHei-30" d="M 225 2537 
Q 250 3200 412 3587 
Q 575 3975 875 4225 
Q 1175 4475 1612 4475 
Q 2050 4475 2375 4112 
Q 2700 3750 2800 3200 
Q 2900 2650 2862 1937 
Q 2825 1225 2612 775 
Q 2400 325 1975 150 
Q 1550 -25 1125 187 
Q 700 400 525 750 
Q 350 1100 275 1487 
Q 200 1875 225 2537 
z
M 750 2687 
Q 675 2000 800 1462 
Q 925 925 1212 700 
Q 1500 475 1800 612 
Q 2100 750 2237 1162 
Q 2375 1575 2375 2062 
Q 2375 2550 2337 2950 
Q 2300 3350 2112 3675 
Q 1925 4000 1612 4012 
Q 1300 4025 1062 3700 
Q 825 3375 750 2687 
z
" transform="scale(0.015625)"/>
       </defs>
       <use xlink:href="#SimHei-30"/>
      </g>
     </g>
    </g>
    <g id="xtick_2">
     <g id="line2d_3">
      <path d="M 178.804448 384.48 
L 178.804448 51.84 
" clip-path="url(#p8da3535ef5)" style="fill: none; stroke: #b0b0b0; stroke-width: 0.8; stroke-linecap: square"/>
     </g>
     <g id="line2d_4">
      <g>
       <use xlink:href="#mc0c7cbb1e2" x="178.804448" y="384.48" style="stroke: #000000; stroke-width: 0.8"/>
      </g>
     </g>
     <g id="text_2">
      <!-- 250 -->
      <g transform="translate(171.304448 398.355) scale(0.1 -0.1)">
       <defs>
        <path id="SimHei-32" d="M 300 250 
Q 325 625 650 925 
Q 975 1225 1475 1862 
Q 1975 2500 2125 2850 
Q 2275 3200 2237 3450 
Q 2200 3700 2000 3862 
Q 1800 4025 1537 4000 
Q 1275 3975 1037 3800 
Q 800 3625 675 3275 
L 200 3350 
Q 400 3925 712 4187 
Q 1025 4450 1450 4475 
Q 1700 4500 1900 4462 
Q 2100 4425 2312 4287 
Q 2525 4150 2662 3875 
Q 2800 3600 2762 3212 
Q 2725 2825 2375 2287 
Q 2025 1750 1025 600 
L 2825 600 
L 2825 150 
L 300 150 
L 300 250 
z
" transform="scale(0.015625)"/>
        <path id="SimHei-35" d="M 550 1325 
Q 725 650 1150 575 
Q 1575 500 1837 662 
Q 2100 825 2212 1087 
Q 2325 1350 2312 1675 
Q 2300 2000 2137 2225 
Q 1975 2450 1725 2525 
Q 1475 2600 1162 2525 
Q 850 2450 650 2175 
L 225 2225 
Q 275 2375 700 4375 
L 2675 4375 
L 2675 3925 
L 1075 3925 
Q 950 3250 825 2850 
Q 1200 3025 1525 3012 
Q 1850 3000 2150 2862 
Q 2450 2725 2587 2487 
Q 2725 2250 2787 2012 
Q 2850 1775 2837 1500 
Q 2825 1225 2725 937 
Q 2625 650 2425 462 
Q 2225 275 1937 162 
Q 1650 50 1275 75 
Q 900 100 562 350 
Q 225 600 100 1200 
L 550 1325 
z
" transform="scale(0.015625)"/>
       </defs>
       <use xlink:href="#SimHei-32"/>
       <use xlink:href="#SimHei-35" transform="translate(50 0)"/>
       <use xlink:href="#SimHei-30" transform="translate(100 0)"/>
      </g>
     </g>
    </g>
    <g id="xtick_3">
     <g id="line2d_5">
      <path d="M 242.245259 384.48 
L 242.245259 51.84 
" clip-path="url(#p8da3535ef5)" style="fill: none; stroke: #b0b0b0; stroke-width: 0.8; stroke-linecap: square"/>
     </g>
     <g id="line2d_6">
      <g>
       <use xlink:href="#mc0c7cbb1e2" x="242.245259" y="384.48" style="stroke: #000000; stroke-width: 0.8"/>
      </g>
     </g>
     <g id="text_3">
      <!-- 500 -->
      <g transform="translate(234.745259 398.355) scale(0.1 -0.1)">
       <use xlink:href="#SimHei-35"/>
       <use xlink:href="#SimHei-30" transform="translate(50 0)"/>
       <use xlink:href="#SimHei-30" transform="translate(100 0)"/>
      </g>
     </g>
    </g>
    <g id="xtick_4">
     <g id="line2d_7">
      <path d="M 305.68607 384.48 
L 305.68607 51.84 
" clip-path="url(#p8da3535ef5)" style="fill: none; stroke: #b0b0b0; stroke-width: 0.8; stroke-linecap: square"/>
     </g>
     <g id="line2d_8">
      <g>
       <use xlink:href="#mc0c7cbb1e2" x="305.68607" y="384.48" style="stroke: #000000; stroke-width: 0.8"/>
      </g>
     </g>
     <g id="text_4">
      <!-- 750 -->
      <g transform="translate(298.18607 398.355) scale(0.1 -0.1)">
       <defs>
        <path id="SimHei-37" d="M 850 150 
Q 1300 2050 2425 3925 
L 275 3925 
L 275 4375 
L 2950 4375 
L 2950 3950 
Q 1775 2050 1400 150 
L 850 150 
z
" transform="scale(0.015625)"/>
       </defs>
       <use xlink:href="#SimHei-37"/>
       <use xlink:href="#SimHei-35" transform="translate(50 0)"/>
       <use xlink:href="#SimHei-30" transform="translate(100 0)"/>
      </g>
     </g>
    </g>
    <g id="xtick_5">
     <g id="line2d_9">
      <path d="M 369.126882 384.48 
L 369.126882 51.84 
" clip-path="url(#p8da3535ef5)" style="fill: none; stroke: #b0b0b0; stroke-width: 0.8; stroke-linecap: square"/>
     </g>
     <g id="line2d_10">
      <g>
       <use xlink:href="#mc0c7cbb1e2" x="369.126882" y="384.48" style="stroke: #000000; stroke-width: 0.8"/>
      </g>
     </g>
     <g id="text_5">
      <!-- 1000 -->
      <g transform="translate(359.126882 398.355) scale(0.1 -0.1)">
       <defs>
        <path id="SimHei-31" d="M 1400 3600 
Q 1075 3275 575 2975 
L 575 3450 
Q 1200 3875 1600 4450 
L 1900 4450 
L 1900 150 
L 1400 150 
L 1400 3600 
z
" transform="scale(0.015625)"/>
       </defs>
       <use xlink:href="#SimHei-31"/>
       <use xlink:href="#SimHei-30" transform="translate(50 0)"/>
       <use xlink:href="#SimHei-30" transform="translate(100 0)"/>
       <use xlink:href="#SimHei-30" transform="translate(150 0)"/>
      </g>
     </g>
    </g>
    <g id="xtick_6">
     <g id="line2d_11">
      <path d="M 432.567693 384.48 
L 432.567693 51.84 
" clip-path="url(#p8da3535ef5)" style="fill: none; stroke: #b0b0b0; stroke-width: 0.8; stroke-linecap: square"/>
     </g>
     <g id="line2d_12">
      <g>
       <use xlink:href="#mc0c7cbb1e2" x="432.567693" y="384.48" style="stroke: #000000; stroke-width: 0.8"/>
      </g>
     </g>
     <g id="text_6">
      <!-- 1250 -->
      <g transform="translate(422.567693 398.355) scale(0.1 -0.1)">
       <use xlink:href="#SimHei-31"/>
       <use xlink:href="#SimHei-32" transform="translate(50 0)"/>
       <use xlink:href="#SimHei-35" transform="translate(100 0)"/>
       <use xlink:href="#SimHei-30" transform="translate(150 0)"/>
      </g>
     </g>
    </g>
    <g id="xtick_7">
     <g id="line2d_13">
      <path d="M 496.008504 384.48 
L 496.008504 51.84 
" clip-path="url(#p8da3535ef5)" style="fill: none; stroke: #b0b0b0; stroke-width: 0.8; stroke-linecap: square"/>
     </g>
     <g id="line2d_14">
      <g>
       <use xlink:href="#mc0c7cbb1e2" x="496.008504" y="384.48" style="stroke: #000000; stroke-width: 0.8"/>
      </g>
     </g>
     <g id="text_7">
      <!-- 1500 -->
      <g transform="translate(486.008504 398.355) scale(0.1 -0.1)">
       <use xlink:href="#SimHei-31"/>
       <use xlink:href="#SimHei-35" transform="translate(50 0)"/>
       <use xlink:href="#SimHei-30" transform="translate(100 0)"/>
       <use xlink:href="#SimHei-30" transform="translate(150 0)"/>
      </g>
     </g>
    </g>
    <g id="xtick_8">
     <g id="line2d_15">
      <path d="M 559.449316 384.48 
L 559.449316 51.84 
" clip-path="url(#p8da3535ef5)" style="fill: none; stroke: #b0b0b0; stroke-width: 0.8; stroke-linecap: square"/>
     </g>
     <g id="line2d_16">
      <g>
       <use xlink:href="#mc0c7cbb1e2" x="559.449316" y="384.48" style="stroke: #000000; stroke-width: 0.8"/>
      </g>
     </g>
     <g id="text_8">
      <!-- 1750 -->
      <g transform="translate(549.449316 398.355) scale(0.1 -0.1)">
       <use xlink:href="#SimHei-31"/>
       <use xlink:href="#SimHei-37" transform="translate(50 0)"/>
       <use xlink:href="#SimHei-35" transform="translate(100 0)"/>
       <use xlink:href="#SimHei-30" transform="translate(150 0)"/>
      </g>
     </g>
    </g>
    <g id="xtick_9">
     <g id="line2d_17">
      <path d="M 622.890127 384.48 
L 622.890127 51.84 
" clip-path="url(#p8da3535ef5)" style="fill: none; stroke: #b0b0b0; stroke-width: 0.8; stroke-linecap: square"/>
     </g>
     <g id="line2d_18">
      <g>
       <use xlink:href="#mc0c7cbb1e2" x="622.890127" y="384.48" style="stroke: #000000; stroke-width: 0.8"/>
      </g>
     </g>
     <g id="text_9">
      <!-- 2000 -->
      <g transform="translate(612.890127 398.355) scale(0.1 -0.1)">
       <use xlink:href="#SimHei-32"/>
       <use xlink:href="#SimHei-30" transform="translate(50 0)"/>
       <use xlink:href="#SimHei-30" transform="translate(100 0)"/>
       <use xlink:href="#SimHei-30" transform="translate(150 0)"/>
      </g>
     </g>
    </g>
    <g id="text_10">
     <!-- Iteration -->
     <g transform="translate(346.5 410.48) scale(0.1 -0.1)">
      <defs>
       <path id="SimHei-49" d="M 1850 125 
L 1275 125 
L 1275 4400 
L 1850 4400 
L 1850 125 
z
" transform="scale(0.015625)"/>
       <path id="SimHei-74" d="M 2750 200 
Q 2625 150 2462 112 
Q 2300 75 2025 75 
Q 1575 75 1300 325 
Q 1025 575 1025 1025 
L 1025 2525 
L 175 2525 
L 175 2925 
L 1025 2925 
L 1025 3900 
L 1525 3900 
L 1525 2925 
L 2550 2925 
L 2550 2525 
L 1525 2525 
L 1525 1000 
Q 1525 800 1625 662 
Q 1725 525 2000 525 
Q 2275 525 2450 575 
Q 2625 625 2750 700 
L 2750 200 
z
" transform="scale(0.015625)"/>
       <path id="SimHei-65" d="M 2850 1075 
Q 2800 625 2450 350 
Q 2100 75 1625 75 
Q 1025 75 637 462 
Q 250 850 250 1525 
Q 250 2200 637 2587 
Q 1025 2975 1625 2975 
Q 2150 2975 2487 2637 
Q 2825 2300 2825 1525 
L 800 1525 
Q 800 975 1037 750 
Q 1275 525 1625 525 
Q 1900 525 2075 662 
Q 2250 800 2300 1075 
L 2850 1075 
z
M 2250 1925 
Q 2200 2275 2025 2412 
Q 1850 2550 1575 2550 
Q 1325 2550 1125 2412 
Q 925 2275 825 1925 
L 2250 1925 
z
" transform="scale(0.015625)"/>
       <path id="SimHei-72" d="M 2500 2425 
Q 2025 2500 1700 2287 
Q 1375 2075 1150 1550 
L 1150 125 
L 650 125 
L 650 2925 
L 1150 2925 
L 1150 2200 
Q 1375 2600 1712 2787 
Q 2050 2975 2500 2975 
L 2500 2425 
z
" transform="scale(0.015625)"/>
       <path id="SimHei-61" d="M 2875 125 
L 2275 125 
Q 2225 175 2200 262 
Q 2175 350 2175 475 
Q 2000 275 1750 175 
Q 1500 75 1225 75 
Q 825 75 550 275 
Q 275 475 275 850 
Q 275 1225 525 1450 
Q 775 1675 1300 1750 
Q 1650 1800 1912 1875 
Q 2175 1950 2175 2075 
Q 2175 2225 2062 2375 
Q 1950 2525 1575 2525 
Q 1275 2525 1137 2412 
Q 1000 2300 950 2100 
L 400 2100 
Q 450 2500 762 2737 
Q 1075 2975 1575 2975 
Q 2125 2975 2400 2725 
Q 2675 2475 2675 2025 
L 2675 650 
Q 2675 500 2725 375 
Q 2775 250 2875 125 
z
M 2175 1050 
L 2175 1550 
Q 2025 1500 1887 1462 
Q 1750 1425 1425 1375 
Q 1050 1325 937 1200 
Q 825 1075 825 900 
Q 825 750 937 637 
Q 1050 525 1275 525 
Q 1500 525 1762 650 
Q 2025 775 2175 1050 
z
" transform="scale(0.015625)"/>
       <path id="SimHei-69" d="M 1800 3725 
L 1300 3725 
L 1300 4375 
L 1800 4375 
L 1800 3725 
z
M 1800 125 
L 1300 125 
L 1300 2925 
L 1800 2925 
L 1800 125 
z
" transform="scale(0.015625)"/>
       <path id="SimHei-6f" d="M 2925 1525 
Q 2925 875 2525 475 
Q 2125 75 1575 75 
Q 1025 75 625 475 
Q 225 875 225 1525 
Q 225 2175 625 2575 
Q 1025 2975 1575 2975 
Q 2125 2975 2525 2575 
Q 2925 2175 2925 1525 
z
M 2375 1525 
Q 2375 2025 2125 2275 
Q 1875 2525 1575 2525 
Q 1275 2525 1025 2275 
Q 775 2025 775 1525 
Q 775 1025 1025 775 
Q 1275 525 1575 525 
Q 1875 525 2125 775 
Q 2375 1025 2375 1525 
z
" transform="scale(0.015625)"/>
       <path id="SimHei-6e" d="M 2800 125 
L 2300 125 
L 2300 1925 
Q 2300 2225 2150 2400 
Q 2000 2575 1750 2575 
Q 1425 2575 1137 2237 
Q 850 1900 850 1400 
L 850 125 
L 350 125 
L 350 2925 
L 850 2925 
L 850 2400 
Q 1050 2675 1287 2825 
Q 1525 2975 1900 2975 
Q 2350 2975 2575 2725 
Q 2800 2475 2800 2100 
L 2800 125 
z
" transform="scale(0.015625)"/>
      </defs>
      <use xlink:href="#SimHei-49"/>
      <use xlink:href="#SimHei-74" transform="translate(50 0)"/>
      <use xlink:href="#SimHei-65" transform="translate(100 0)"/>
      <use xlink:href="#SimHei-72" transform="translate(150 0)"/>
      <use xlink:href="#SimHei-61" transform="translate(200 0)"/>
      <use xlink:href="#SimHei-74" transform="translate(250 0)"/>
      <use xlink:href="#SimHei-69" transform="translate(300 0)"/>
      <use xlink:href="#SimHei-6f" transform="translate(350 0)"/>
      <use xlink:href="#SimHei-6e" transform="translate(400 0)"/>
     </g>
    </g>
   </g>
   <g id="matplotlib.axis_2">
    <g id="ytick_1">
     <g id="line2d_19">
      <path d="M 90 345.479881 
L 648 345.479881 
" clip-path="url(#p8da3535ef5)" style="fill: none; stroke: #b0b0b0; stroke-width: 0.8; stroke-linecap: square"/>
     </g>
     <g id="line2d_20">
      <defs>
       <path id="m1a67510211" d="M 0 0 
L -3.5 0 
" style="stroke: #000000; stroke-width: 0.8"/>
      </defs>
      <g>
       <use xlink:href="#m1a67510211" x="90" y="345.479881" style="stroke: #000000; stroke-width: 0.8"/>
      </g>
     </g>
     <g id="text_11">
      <!-- 0.20 -->
      <g transform="translate(63 348.917381) scale(0.1 -0.1)">
       <defs>
        <path id="SimHei-2e" d="M 1075 125 
L 500 125 
L 500 675 
L 1075 675 
L 1075 125 
z
" transform="scale(0.015625)"/>
       </defs>
       <use xlink:href="#SimHei-30"/>
       <use xlink:href="#SimHei-2e" transform="translate(50 0)"/>
       <use xlink:href="#SimHei-32" transform="translate(100 0)"/>
       <use xlink:href="#SimHei-30" transform="translate(150 0)"/>
      </g>
     </g>
    </g>
    <g id="ytick_2">
     <g id="line2d_21">
      <path d="M 90 302.826913 
L 648 302.826913 
" clip-path="url(#p8da3535ef5)" style="fill: none; stroke: #b0b0b0; stroke-width: 0.8; stroke-linecap: square"/>
     </g>
     <g id="line2d_22">
      <g>
       <use xlink:href="#m1a67510211" x="90" y="302.826913" style="stroke: #000000; stroke-width: 0.8"/>
      </g>
     </g>
     <g id="text_12">
      <!-- 0.25 -->
      <g transform="translate(63 306.264413) scale(0.1 -0.1)">
       <use xlink:href="#SimHei-30"/>
       <use xlink:href="#SimHei-2e" transform="translate(50 0)"/>
       <use xlink:href="#SimHei-32" transform="translate(100 0)"/>
       <use xlink:href="#SimHei-35" transform="translate(150 0)"/>
      </g>
     </g>
    </g>
    <g id="ytick_3">
     <g id="line2d_23">
      <path d="M 90 260.173945 
L 648 260.173945 
" clip-path="url(#p8da3535ef5)" style="fill: none; stroke: #b0b0b0; stroke-width: 0.8; stroke-linecap: square"/>
     </g>
     <g id="line2d_24">
      <g>
       <use xlink:href="#m1a67510211" x="90" y="260.173945" style="stroke: #000000; stroke-width: 0.8"/>
      </g>
     </g>
     <g id="text_13">
      <!-- 0.30 -->
      <g transform="translate(63 263.611445) scale(0.1 -0.1)">
       <defs>
        <path id="SimHei-33" d="M 250 1225 
L 700 1300 
Q 800 975 1025 762 
Q 1250 550 1587 562 
Q 1925 575 2125 837 
Q 2325 1100 2300 1437 
Q 2275 1775 2037 1962 
Q 1800 2150 1275 2225 
L 1275 2550 
Q 1800 2600 2037 2825 
Q 2275 3050 2250 3412 
Q 2225 3775 1925 3937 
Q 1625 4100 1287 3975 
Q 950 3850 750 3275 
L 300 3350 
Q 450 3800 712 4100 
Q 975 4400 1425 4450 
Q 1875 4500 2212 4337 
Q 2550 4175 2687 3837 
Q 2825 3500 2725 3100 
Q 2625 2700 2150 2400 
Q 2500 2250 2687 1950 
Q 2875 1650 2812 1162 
Q 2750 675 2375 375 
Q 2000 75 1525 87 
Q 1050 100 700 387 
Q 350 675 250 1225 
z
" transform="scale(0.015625)"/>
       </defs>
       <use xlink:href="#SimHei-30"/>
       <use xlink:href="#SimHei-2e" transform="translate(50 0)"/>
       <use xlink:href="#SimHei-33" transform="translate(100 0)"/>
       <use xlink:href="#SimHei-30" transform="translate(150 0)"/>
      </g>
     </g>
    </g>
    <g id="ytick_4">
     <g id="line2d_25">
      <path d="M 90 217.520977 
L 648 217.520977 
" clip-path="url(#p8da3535ef5)" style="fill: none; stroke: #b0b0b0; stroke-width: 0.8; stroke-linecap: square"/>
     </g>
     <g id="line2d_26">
      <g>
       <use xlink:href="#m1a67510211" x="90" y="217.520977" style="stroke: #000000; stroke-width: 0.8"/>
      </g>
     </g>
     <g id="text_14">
      <!-- 0.35 -->
      <g transform="translate(63 220.958477) scale(0.1 -0.1)">
       <use xlink:href="#SimHei-30"/>
       <use xlink:href="#SimHei-2e" transform="translate(50 0)"/>
       <use xlink:href="#SimHei-33" transform="translate(100 0)"/>
       <use xlink:href="#SimHei-35" transform="translate(150 0)"/>
      </g>
     </g>
    </g>
    <g id="ytick_5">
     <g id="line2d_27">
      <path d="M 90 174.868009 
L 648 174.868009 
" clip-path="url(#p8da3535ef5)" style="fill: none; stroke: #b0b0b0; stroke-width: 0.8; stroke-linecap: square"/>
     </g>
     <g id="line2d_28">
      <g>
       <use xlink:href="#m1a67510211" x="90" y="174.868009" style="stroke: #000000; stroke-width: 0.8"/>
      </g>
     </g>
     <g id="text_15">
      <!-- 0.40 -->
      <g transform="translate(63 178.305509) scale(0.1 -0.1)">
       <defs>
        <path id="SimHei-34" d="M 2000 1100 
L 75 1100 
L 75 1525 
L 2100 4450 
L 2475 4450 
L 2475 1525 
L 3075 1525 
L 3075 1100 
L 2475 1100 
L 2475 150 
L 2000 150 
L 2000 1100 
z
M 2000 1525 
L 2000 3500 
L 600 1525 
L 2000 1525 
z
" transform="scale(0.015625)"/>
       </defs>
       <use xlink:href="#SimHei-30"/>
       <use xlink:href="#SimHei-2e" transform="translate(50 0)"/>
       <use xlink:href="#SimHei-34" transform="translate(100 0)"/>
       <use xlink:href="#SimHei-30" transform="translate(150 0)"/>
      </g>
     </g>
    </g>
    <g id="ytick_6">
     <g id="line2d_29">
      <path d="M 90 132.215041 
L 648 132.215041 
" clip-path="url(#p8da3535ef5)" style="fill: none; stroke: #b0b0b0; stroke-width: 0.8; stroke-linecap: square"/>
     </g>
     <g id="line2d_30">
      <g>
       <use xlink:href="#m1a67510211" x="90" y="132.215041" style="stroke: #000000; stroke-width: 0.8"/>
      </g>
     </g>
     <g id="text_16">
      <!-- 0.45 -->
      <g transform="translate(63 135.652541) scale(0.1 -0.1)">
       <use xlink:href="#SimHei-30"/>
       <use xlink:href="#SimHei-2e" transform="translate(50 0)"/>
       <use xlink:href="#SimHei-34" transform="translate(100 0)"/>
       <use xlink:href="#SimHei-35" transform="translate(150 0)"/>
      </g>
     </g>
    </g>
    <g id="ytick_7">
     <g id="line2d_31">
      <path d="M 90 89.562073 
L 648 89.562073 
" clip-path="url(#p8da3535ef5)" style="fill: none; stroke: #b0b0b0; stroke-width: 0.8; stroke-linecap: square"/>
     </g>
     <g id="line2d_32">
      <g>
       <use xlink:href="#m1a67510211" x="90" y="89.562073" style="stroke: #000000; stroke-width: 0.8"/>
      </g>
     </g>
     <g id="text_17">
      <!-- 0.50 -->
      <g transform="translate(63 92.999573) scale(0.1 -0.1)">
       <use xlink:href="#SimHei-30"/>
       <use xlink:href="#SimHei-2e" transform="translate(50 0)"/>
       <use xlink:href="#SimHei-35" transform="translate(100 0)"/>
       <use xlink:href="#SimHei-30" transform="translate(150 0)"/>
      </g>
     </g>
    </g>
    <g id="text_18">
     <!-- Loss -->
     <g transform="translate(57.75 228.16) rotate(-90) scale(0.1 -0.1)">
      <defs>
       <path id="SimHei-4c" d="M 2900 125 
L 300 125 
L 300 4400 
L 875 4400 
L 875 600 
L 2900 600 
L 2900 125 
z
" transform="scale(0.015625)"/>
       <path id="SimHei-73" d="M 2750 900 
Q 2750 500 2437 287 
Q 2125 75 1650 75 
Q 1050 75 725 312 
Q 400 550 400 1000 
L 900 1000 
Q 900 700 1112 600 
Q 1325 500 1625 500 
Q 1925 500 2075 612 
Q 2225 725 2225 900 
Q 2225 1025 2100 1150 
Q 1975 1275 1475 1350 
Q 900 1425 687 1637 
Q 475 1850 475 2200 
Q 475 2500 762 2737 
Q 1050 2975 1600 2975 
Q 2100 2975 2387 2750 
Q 2675 2525 2675 2150 
L 2175 2150 
Q 2175 2375 2012 2462 
Q 1850 2550 1600 2550 
Q 1275 2550 1137 2437 
Q 1000 2325 1000 2175 
Q 1000 2000 1125 1900 
Q 1250 1800 1650 1750 
Q 2300 1650 2525 1437 
Q 2750 1225 2750 900 
z
" transform="scale(0.015625)"/>
      </defs>
      <use xlink:href="#SimHei-4c"/>
      <use xlink:href="#SimHei-6f" transform="translate(50 0)"/>
      <use xlink:href="#SimHei-73" transform="translate(100 0)"/>
      <use xlink:href="#SimHei-73" transform="translate(150 0)"/>
     </g>
    </g>
   </g>
   <g id="line2d_33">
    <path d="M 115.363636 66.96 
L 115.6174 142.635186 
L 116.124926 165.382629 
L 116.632453 175.684277 
L 117.393742 190.423615 
L 118.662559 213.510177 
L 119.677612 222.807912 
L 121.961481 233.369115 
L 122.72277 236.436084 
L 122.976534 236.107617 
L 123.737823 237.481859 
L 123.991587 239.13495 
L 124.24535 239.984699 
L 124.499113 240.292376 
L 124.752876 239.835466 
L 125.00664 240.752592 
L 125.260403 240.616096 
L 125.514166 240.995529 
L 125.767929 241.590445 
L 126.021693 242.974789 
L 126.275456 241.986926 
L 126.529219 243.388648 
L 126.782982 243.110437 
L 127.544272 245.838435 
L 127.798035 245.5742 
L 128.051799 246.570738 
L 128.305562 246.520776 
L 128.559325 246.102829 
L 129.320615 248.278991 
L 129.574378 247.289197 
L 130.081905 248.895783 
L 130.335668 248.35711 
L 130.589431 249.095017 
L 130.843194 248.794969 
L 131.096958 249.850608 
L 131.350721 249.618947 
L 131.604484 250.867456 
L 131.858247 249.70001 
L 132.112011 250.03436 
L 132.365774 250.707842 
L 132.8733 250.674061 
L 133.380827 250.17427 
L 133.63459 251.318643 
L 133.888353 251.623592 
L 134.142117 252.536436 
L 134.39588 251.660469 
L 134.649643 252.849773 
L 135.157169 252.369467 
L 135.410933 251.788274 
L 135.664696 253.481743 
L 136.172222 253.571016 
L 136.425986 253.266579 
L 136.679749 252.645688 
L 136.933512 254.656066 
L 137.187275 253.635264 
L 137.441039 254.093339 
L 137.694802 254.79899 
L 137.948565 254.196348 
L 138.202328 254.599432 
L 138.456092 254.367307 
L 138.709855 255.886153 
L 138.963618 255.270458 
L 139.217381 255.653783 
L 139.724908 255.008662 
L 139.978671 255.724092 
L 140.232434 255.631433 
L 140.486198 256.368266 
L 140.739961 256.24264 
L 140.993724 255.819662 
L 141.247487 256.873663 
L 141.501251 256.61397 
L 141.755014 256.575434 
L 142.008777 256.833103 
L 142.516304 256.65392 
L 142.770067 257.371647 
L 143.02383 257.155472 
L 143.277593 257.166844 
L 143.531357 256.991881 
L 143.78512 257.336958 
L 144.038883 258.598235 
L 144.292646 257.991736 
L 144.54641 258.362543 
L 144.800173 257.743604 
L 145.307699 258.325246 
L 145.561463 257.370432 
L 145.815226 258.463068 
L 146.068989 258.422254 
L 146.322752 258.924133 
L 146.576516 258.243754 
L 146.830279 258.335209 
L 147.084042 258.668782 
L 147.337805 258.605962 
L 147.845332 259.157125 
L 148.099095 259.022304 
L 148.352858 259.289082 
L 148.606621 259.913584 
L 148.860385 259.187505 
L 149.114148 259.898521 
L 149.367911 258.652566 
L 149.621674 259.666398 
L 149.875438 259.890752 
L 150.129201 259.833553 
L 150.382964 260.340477 
L 150.636727 260.06897 
L 150.890491 260.194819 
L 151.144254 260.740795 
L 151.398017 260.629133 
L 151.65178 260.286333 
L 151.905544 260.63544 
L 152.159307 260.789673 
L 152.41307 260.042883 
L 152.920597 261.369044 
L 153.17436 260.728873 
L 153.428123 261.210966 
L 153.681886 261.088792 
L 153.93565 261.572036 
L 154.443176 260.69661 
L 154.696939 262.135196 
L 154.950703 261.871391 
L 155.204466 261.364936 
L 155.458229 262.200961 
L 155.711992 261.978602 
L 155.965756 261.393298 
L 156.473282 262.681263 
L 156.727045 261.766904 
L 156.980809 262.924314 
L 157.234572 263.137369 
L 157.488335 261.665828 
L 157.742098 262.94133 
L 158.249625 261.841566 
L 158.503388 261.990614 
L 158.757151 264.087641 
L 159.010915 263.25184 
L 159.264678 263.883962 
L 159.518441 263.186503 
L 159.772204 263.697466 
L 160.025968 263.828195 
L 160.279731 262.975779 
L 161.041021 264.172637 
L 161.294784 263.69518 
L 161.548547 264.211081 
L 161.80231 263.485279 
L 162.056073 264.286491 
L 162.309837 264.42988 
L 162.5636 265.126008 
L 163.071126 264.111916 
L 163.32489 264.344843 
L 163.578653 265.13244 
L 163.832416 264.152498 
L 164.086179 264.812685 
L 164.339943 264.616653 
L 164.593706 265.200047 
L 164.847469 264.306781 
L 165.101232 264.689649 
L 165.608759 265.884764 
L 165.862522 265.559994 
L 166.116285 265.503296 
L 166.370049 265.930773 
L 166.623812 266.041432 
L 167.131338 265.330547 
L 167.385102 265.50605 
L 167.638865 266.053368 
L 167.892628 266.23924 
L 168.146391 264.952807 
L 168.400155 265.903939 
L 168.653918 266.309674 
L 168.907681 265.82557 
L 169.161444 266.883572 
L 169.415208 266.114619 
L 169.668971 267.148916 
L 169.922734 266.83791 
L 170.176497 266.136745 
L 170.430261 267.336075 
L 170.684024 267.19665 
L 170.937787 267.253998 
L 171.19155 266.615303 
L 171.445314 267.297161 
L 171.699077 267.452849 
L 171.95284 268.154383 
L 172.206603 268.155904 
L 172.460367 267.881218 
L 172.71413 268.453583 
L 172.967893 267.640671 
L 173.221656 266.33251 
L 173.47542 267.038354 
L 173.729183 268.371394 
L 173.982946 266.84435 
L 174.236709 268.60018 
L 174.490473 268.227053 
L 174.744236 267.456949 
L 174.997999 268.500141 
L 175.251762 268.102719 
L 175.505525 268.792989 
L 175.759289 268.660234 
L 176.013052 268.993154 
L 176.266815 269.131776 
L 176.520578 268.367298 
L 176.774342 268.171132 
L 177.028105 268.674126 
L 177.535631 269.060578 
L 177.789395 269.034491 
L 178.043158 269.623687 
L 178.296921 269.331225 
L 178.550684 269.245483 
L 178.804448 270.06715 
L 179.058211 270.042006 
L 179.311974 269.583816 
L 179.565737 269.391384 
L 179.819501 269.018653 
L 180.073264 269.954736 
L 180.327027 269.848436 
L 180.58079 269.550944 
L 180.834554 270.610982 
L 181.088317 270.84973 
L 181.34208 270.094655 
L 181.595843 271.068066 
L 181.849607 270.103234 
L 182.10337 271.498649 
L 182.357133 270.400381 
L 182.610896 271.117184 
L 183.118423 271.200344 
L 183.372186 271.744094 
L 183.625949 271.484699 
L 184.133476 271.7821 
L 184.387239 271.844048 
L 184.641002 271.774707 
L 184.894766 272.271495 
L 185.148529 273.205219 
L 185.402292 271.289389 
L 185.656055 272.573584 
L 185.909819 271.469397 
L 186.163582 272.928555 
L 186.417345 272.242677 
L 186.671108 273.584411 
L 186.924872 272.676796 
L 187.178635 272.649195 
L 187.432398 272.787386 
L 187.686161 273.187424 
L 187.939925 272.977229 
L 188.193688 273.218389 
L 188.447451 273.881846 
L 188.701214 273.659405 
L 188.954977 273.618139 
L 189.208741 273.936389 
L 189.462504 273.367014 
L 189.716267 273.306589 
L 189.97003 273.972016 
L 190.223794 273.737564 
L 190.477557 274.324347 
L 190.73132 273.26147 
L 190.985083 274.241989 
L 191.49261 274.692742 
L 191.746373 274.086668 
L 192.000136 275.1492 
L 192.2539 274.295185 
L 192.761426 275.373627 
L 193.015189 274.051986 
L 193.268953 274.979239 
L 193.522716 274.230411 
L 193.776479 275.564271 
L 194.030242 274.441653 
L 194.284006 275.588307 
L 194.537769 275.1714 
L 194.791532 275.562738 
L 195.045295 275.635164 
L 195.299059 275.983157 
L 195.552822 275.744525 
L 195.806585 276.281266 
L 196.060348 276.104159 
L 196.314112 276.208668 
L 196.567875 276.924783 
L 196.821638 277.079901 
L 197.075401 276.733148 
L 197.329165 277.31657 
L 197.582928 276.750675 
L 197.836691 276.903579 
L 198.090454 276.528394 
L 198.344218 277.580119 
L 198.851744 276.553355 
L 199.105507 276.710275 
L 199.359271 278.29341 
L 199.613034 278.012653 
L 199.866797 278.192268 
L 200.374324 279.20058 
L 200.628087 278.265374 
L 200.88185 279.311544 
L 201.135613 278.264404 
L 201.389377 279.246539 
L 201.64314 278.820187 
L 201.896903 279.88357 
L 202.150666 279.087596 
L 202.404429 278.937145 
L 202.658193 280.317316 
L 202.911956 279.221283 
L 203.419482 280.5324 
L 203.673246 279.718107 
L 203.927009 279.746746 
L 204.180772 281.063128 
L 204.434535 280.766377 
L 204.688299 279.951688 
L 204.942062 281.434635 
L 205.195825 280.4794 
L 205.449588 280.765135 
L 205.703352 281.369549 
L 205.957115 279.866942 
L 206.210878 281.098614 
L 206.464641 281.296597 
L 206.718405 280.990004 
L 206.972168 281.790471 
L 207.225931 281.062203 
L 207.733458 281.607861 
L 207.987221 281.531162 
L 208.240984 282.512729 
L 208.494747 282.837251 
L 208.748511 282.007988 
L 209.256037 282.946159 
L 209.5098 282.744431 
L 209.763564 284.182943 
L 210.017327 283.296813 
L 210.27109 283.67429 
L 210.524853 283.33257 
L 210.778617 283.940503 
L 211.03238 283.425735 
L 211.286143 284.163787 
L 211.539906 284.079785 
L 211.79367 284.393105 
L 212.047433 284.398558 
L 212.301196 284.181009 
L 213.062486 285.636142 
L 213.316249 285.596861 
L 213.823776 285.802639 
L 214.077539 284.944137 
L 214.331302 285.626503 
L 214.585065 285.401255 
L 214.838829 286.027015 
L 215.092592 287.345089 
L 215.346355 286.323423 
L 215.600118 287.278336 
L 215.853881 286.331112 
L 216.107645 287.105143 
L 216.361408 288.430131 
L 216.615171 287.572101 
L 217.122698 288.205257 
L 217.376461 288.732881 
L 217.630224 288.395589 
L 217.883987 289.25164 
L 218.137751 288.848282 
L 218.391514 289.975032 
L 218.645277 289.898596 
L 218.89904 288.761538 
L 219.152804 289.661065 
L 219.406567 288.848204 
L 219.66033 290.783816 
L 219.914093 290.440198 
L 220.167857 290.60708 
L 220.42162 292.02279 
L 220.675383 291.054944 
L 220.929146 292.088862 
L 221.18291 291.882074 
L 221.436673 292.730602 
L 221.690436 292.218309 
L 221.944199 292.032644 
L 222.197963 293.35885 
L 222.451726 292.906149 
L 222.705489 293.445279 
L 222.959252 294.34132 
L 223.213016 293.461507 
L 223.466779 293.281194 
L 223.720542 294.152532 
L 224.228069 294.975021 
L 224.481832 294.555 
L 224.735595 294.971833 
L 224.989358 294.933388 
L 225.496885 295.502556 
L 225.750648 296.452629 
L 226.004411 296.325807 
L 226.258175 295.630043 
L 226.511938 296.616874 
L 226.765701 296.498484 
L 227.019464 296.967883 
L 227.273228 296.678607 
L 227.526991 296.687906 
L 227.780754 297.119764 
L 228.034517 297.303088 
L 228.288281 296.833873 
L 228.795807 297.575862 
L 229.04957 298.380496 
L 229.303333 298.060864 
L 229.557097 297.517314 
L 229.81086 299.475357 
L 230.064623 299.224198 
L 230.318386 298.455045 
L 230.825913 299.717717 
L 231.079676 299.344608 
L 231.333439 301.078663 
L 231.587203 299.785082 
L 231.840966 300.391974 
L 232.094729 299.528972 
L 232.348492 300.8387 
L 232.602256 300.280641 
L 232.856019 300.665575 
L 233.109782 301.557035 
L 233.363545 300.613313 
L 233.617309 301.403415 
L 233.871072 301.131245 
L 234.124835 301.297556 
L 234.378598 301.889569 
L 234.632362 301.990877 
L 234.886125 301.906414 
L 235.139888 303.38533 
L 235.393651 301.956373 
L 235.647415 303.507947 
L 235.901178 303.25456 
L 236.154941 303.690464 
L 236.408704 302.346775 
L 236.662468 303.947049 
L 236.916231 303.457996 
L 237.169994 302.447975 
L 237.423757 304.148565 
L 237.677521 304.631698 
L 237.931284 303.572765 
L 238.185047 305.042357 
L 238.43881 304.423543 
L 238.692574 304.567324 
L 238.946337 306.09964 
L 239.2001 303.864942 
L 239.453863 305.557313 
L 239.707627 305.405137 
L 239.96139 306.752188 
L 240.215153 305.20269 
L 240.72268 307.331722 
L 240.976443 306.961642 
L 241.230206 306.97627 
L 241.483969 306.622987 
L 241.737733 306.841921 
L 241.991496 307.569025 
L 242.245259 308.73824 
L 242.499022 307.545748 
L 242.752785 307.137271 
L 243.260312 308.378455 
L 244.021602 309.828595 
L 244.275365 309.013205 
L 244.529128 308.952286 
L 245.036655 310.515586 
L 245.290418 309.408005 
L 245.544181 309.030342 
L 245.797944 311.495717 
L 246.051708 310.361693 
L 246.305471 311.558331 
L 246.559234 309.020757 
L 246.812997 311.229184 
L 247.066761 310.255711 
L 247.82805 312.547567 
L 248.081814 311.708481 
L 248.58934 313.051284 
L 248.843103 311.252674 
L 249.35063 313.574879 
L 249.604393 312.804723 
L 249.858156 312.715069 
L 250.11192 313.730909 
L 250.365683 313.802124 
L 250.873209 313.613824 
L 251.380736 314.090723 
L 251.634499 314.642507 
L 252.142026 314.122685 
L 252.395789 314.626382 
L 252.903315 314.026741 
L 253.157079 315.44094 
L 253.410842 314.317836 
L 253.664605 315.687553 
L 253.918368 315.882107 
L 254.172132 316.773443 
L 254.425895 314.532938 
L 254.679658 316.793434 
L 254.933421 315.85517 
L 255.187185 315.531442 
L 255.694711 316.769856 
L 255.948474 316.939085 
L 256.202237 317.342857 
L 256.456001 316.938429 
L 256.709764 315.909007 
L 256.963527 318.384048 
L 257.21729 318.197442 
L 257.471054 317.048798 
L 257.724817 316.853318 
L 257.97858 318.144296 
L 258.232343 317.706299 
L 258.486107 317.544938 
L 258.73987 318.56284 
L 258.993633 319.10169 
L 259.247396 319.02011 
L 259.50116 319.303717 
L 259.754923 319.862232 
L 260.008686 319.022899 
L 260.262449 319.870518 
L 260.516213 319.92689 
L 260.769976 319.490727 
L 261.023739 320.384392 
L 261.277502 320.735823 
L 261.531266 320.480495 
L 261.785029 319.459379 
L 262.292555 320.173432 
L 262.546319 319.577418 
L 262.800082 320.620387 
L 263.053845 319.564133 
L 263.307608 321.420972 
L 263.561372 320.350658 
L 263.815135 321.480543 
L 264.068898 321.366951 
L 264.322661 320.67639 
L 264.830188 321.966793 
L 265.083951 321.325893 
L 265.591478 322.495578 
L 265.845241 320.619489 
L 266.352767 322.659585 
L 266.606531 322.977256 
L 266.860294 321.994851 
L 267.114057 323.249636 
L 267.621584 321.903562 
L 268.12911 322.941584 
L 268.382873 324.818668 
L 268.636637 323.181047 
L 268.8904 324.294687 
L 269.144163 324.212428 
L 269.905453 324.912912 
L 270.159216 324.24003 
L 270.412979 324.081028 
L 270.666742 326.242793 
L 270.920506 323.965959 
L 271.174269 323.543186 
L 271.428032 324.353269 
L 271.681795 324.307304 
L 271.935559 326.17734 
L 272.189322 326.867178 
L 272.443085 325.814743 
L 272.696848 326.507658 
L 272.950612 324.787104 
L 273.204375 327.456463 
L 273.458138 327.289735 
L 273.711901 325.48278 
L 273.965665 326.977115 
L 274.219428 325.793939 
L 274.473191 326.936256 
L 274.980718 327.649888 
L 275.234481 328.328827 
L 275.488244 328.055012 
L 275.742007 328.593379 
L 275.995771 328.188837 
L 276.249534 326.850045 
L 276.503297 328.308396 
L 276.75706 329.118047 
L 277.010824 328.95435 
L 277.264587 329.734962 
L 277.51835 329.71571 
L 277.772113 327.838595 
L 278.27964 329.422723 
L 278.533403 329.490574 
L 278.787166 328.5058 
L 279.04093 330.901275 
L 279.294693 330.664347 
L 279.548456 329.397923 
L 279.802219 329.454858 
L 280.055983 329.933431 
L 280.309746 328.654956 
L 280.563509 330.041996 
L 280.817272 329.854928 
L 281.071036 330.095562 
L 281.324799 331.89291 
L 281.578562 331.294181 
L 281.832325 332.408894 
L 282.086088 331.319654 
L 282.339852 330.848232 
L 282.593615 330.772784 
L 283.101141 332.387895 
L 283.608668 331.748495 
L 283.862431 332.386667 
L 284.116194 331.501689 
L 284.369958 331.923876 
L 284.877484 331.89055 
L 285.131247 332.837155 
L 285.385011 332.909941 
L 285.638774 333.674546 
L 285.892537 333.445181 
L 286.1463 331.655421 
L 286.400064 334.716701 
L 286.653827 335.514582 
L 286.90759 335.533454 
L 287.161353 331.152084 
L 287.415117 333.625665 
L 287.66888 330.7375 
L 287.922643 335.461079 
L 288.176406 335.464195 
L 288.43017 336.335789 
L 288.683933 334.213939 
L 288.937696 333.032556 
L 289.191459 334.74557 
L 289.445223 334.933221 
L 289.698986 335.418712 
L 290.206512 333.738848 
L 290.460276 335.167747 
L 290.967802 336.345947 
L 291.221565 336.295624 
L 291.475329 336.850989 
L 291.729092 335.525796 
L 291.982855 336.709935 
L 292.236618 335.805625 
L 292.490382 336.109544 
L 292.744145 336.81984 
L 292.997908 337.117712 
L 293.505435 334.436799 
L 293.759198 337.604333 
L 294.012961 336.323483 
L 294.266724 336.380768 
L 294.520488 337.828633 
L 294.774251 335.568398 
L 295.028014 335.818726 
L 295.281777 337.271275 
L 295.53554 337.464951 
L 295.789304 335.156694 
L 296.043067 338.693947 
L 296.29683 336.756965 
L 296.550593 338.265738 
L 296.804357 335.816061 
L 297.05812 339.222952 
L 297.311883 336.765549 
L 297.565646 339.514647 
L 297.81941 337.619875 
L 298.073173 337.777023 
L 298.326936 338.959873 
L 298.834463 338.925642 
L 299.088226 339.055942 
L 299.341989 340.073388 
L 299.595752 337.798607 
L 299.849516 337.778067 
L 300.103279 340.820455 
L 300.357042 339.517712 
L 300.610805 339.42899 
L 300.864569 339.675349 
L 301.118332 338.710552 
L 301.625858 341.069369 
L 301.879622 339.077329 
L 302.387148 341.152812 
L 302.640911 341.476159 
L 302.894675 340.062221 
L 303.402201 339.011037 
L 303.655964 339.430735 
L 303.909728 339.247542 
L 304.163491 339.743173 
L 304.417254 340.998524 
L 304.671017 340.953524 
L 304.924781 341.73442 
L 305.178544 341.572608 
L 305.432307 341.178266 
L 305.68607 339.947592 
L 305.939834 343.422316 
L 306.193597 341.620145 
L 306.44736 341.283718 
L 306.701123 342.27546 
L 306.954887 341.333205 
L 307.716176 342.655616 
L 307.96994 341.951021 
L 308.223703 342.120362 
L 308.477466 341.14569 
L 308.731229 339.72382 
L 308.984992 342.361475 
L 309.238756 342.926848 
L 309.492519 340.774598 
L 309.746282 344.266018 
L 310.000045 342.162638 
L 310.253809 341.492894 
L 310.507572 341.827761 
L 310.761335 343.074471 
L 311.015098 341.539277 
L 311.268862 343.281344 
L 311.522625 341.832962 
L 311.776388 342.912727 
L 312.030151 341.612142 
L 312.283915 341.922434 
L 312.537678 342.713009 
L 312.791441 344.18526 
L 313.045204 343.917039 
L 313.298968 342.317471 
L 313.552731 344.272671 
L 313.806494 343.224079 
L 314.314021 343.75404 
L 314.567784 344.454947 
L 314.821547 342.05848 
L 315.07531 343.168681 
L 315.329074 343.448695 
L 315.582837 343.903342 
L 315.8366 345.234278 
L 316.090363 345.419399 
L 316.344127 345.084419 
L 316.59789 344.084371 
L 316.851653 343.561356 
L 317.105416 345.344528 
L 317.612943 343.072088 
L 317.866706 345.661875 
L 318.120469 342.858271 
L 318.627996 344.170471 
L 318.881759 341.845103 
L 319.135522 343.777774 
L 319.389286 342.951251 
L 319.896812 345.819046 
L 320.150575 344.577257 
L 320.404339 346.67882 
L 320.658102 345.303027 
L 320.911865 342.288304 
L 321.165628 344.053948 
L 321.419392 345.034517 
L 321.673155 342.991716 
L 321.926918 345.083431 
L 322.180681 346.247535 
L 322.434444 345.194758 
L 322.688208 345.113308 
L 323.195734 343.861856 
L 323.703261 347.1599 
L 324.46455 345.267547 
L 324.718314 346.18621 
L 324.972077 345.31418 
L 325.22584 346.01975 
L 325.479603 346.236259 
L 325.733367 347.328815 
L 325.98713 345.486654 
L 326.240893 346.772546 
L 326.494656 347.210586 
L 326.74842 346.251739 
L 327.002183 344.73826 
L 327.255946 346.512401 
L 327.509709 346.84493 
L 327.763473 346.790984 
L 328.017236 344.999091 
L 328.270999 347.62234 
L 328.524762 347.52657 
L 328.778526 344.739409 
L 329.032289 346.906426 
L 329.286052 345.497523 
L 329.539815 345.446865 
L 329.793579 345.697157 
L 330.047342 346.338671 
L 330.301105 346.281598 
L 330.554868 346.568306 
L 331.062395 346.693063 
L 331.316158 347.465393 
L 331.569921 346.88494 
L 331.823685 345.628321 
L 332.077448 348.455053 
L 332.331211 346.205757 
L 332.584974 346.059301 
L 332.838738 346.381321 
L 333.092501 347.134139 
L 333.600027 347.254606 
L 333.853791 349.755814 
L 334.107554 344.977987 
L 334.61508 349.125299 
L 334.868844 347.082915 
L 335.122607 346.987224 
L 335.37637 346.574582 
L 335.630133 348.465283 
L 335.883896 347.604026 
L 336.13766 347.343535 
L 336.391423 348.261782 
L 336.645186 348.270897 
L 336.898949 348.092589 
L 337.152713 349.407852 
L 337.406476 347.730076 
L 337.660239 347.58624 
L 337.914002 349.109446 
L 338.167766 347.377405 
L 338.421529 347.868101 
L 338.675292 347.619503 
L 338.929055 348.136376 
L 339.182819 348.14153 
L 339.436582 348.261543 
L 339.690345 350.051508 
L 339.944108 349.016695 
L 340.197872 348.470396 
L 340.451635 349.522139 
L 340.705398 348.980817 
L 340.959161 348.734061 
L 341.212925 345.964618 
L 341.466688 349.35585 
L 341.720451 346.69652 
L 341.974214 348.98861 
L 342.481741 346.241916 
L 342.735504 348.287404 
L 342.989267 347.917195 
L 343.496794 351.172999 
L 344.258084 347.89723 
L 344.511847 348.607517 
L 344.76561 348.066363 
L 345.019373 350.558812 
L 345.273137 348.558771 
L 345.5269 348.525019 
L 345.780663 349.37968 
L 346.541953 349.591796 
L 346.795716 351.096933 
L 347.303243 348.130031 
L 347.557006 350.55767 
L 347.810769 348.668784 
L 348.064532 348.727856 
L 348.318296 349.513373 
L 348.572059 349.62826 
L 348.825822 349.991623 
L 349.079585 350.866114 
L 349.333348 349.886172 
L 349.587112 351.674727 
L 349.840875 349.002408 
L 350.094638 348.160677 
L 350.348401 349.305326 
L 350.602165 349.414445 
L 350.855928 349.820644 
L 351.109691 350.44854 
L 351.363454 350.694828 
L 351.617218 350.664927 
L 351.870981 350.034279 
L 352.124744 350.2498 
L 352.378507 351.115421 
L 352.632271 349.950331 
L 352.886034 350.369633 
L 353.39356 349.27519 
L 353.647324 348.116285 
L 353.901087 351.003097 
L 354.15485 351.346232 
L 354.408613 350.305223 
L 354.662377 350.928742 
L 354.91614 350.415238 
L 355.169903 351.365045 
L 355.423666 352.977395 
L 355.67743 349.061929 
L 355.931193 350.973991 
L 356.184956 348.822609 
L 356.438719 350.613967 
L 356.692483 351.287203 
L 356.946246 348.964682 
L 357.200009 350.730851 
L 357.453772 349.785191 
L 357.707536 351.311246 
L 357.961299 351.054903 
L 358.215062 350.089534 
L 358.468825 351.198482 
L 358.722589 350.064901 
L 359.230115 351.637923 
L 359.483878 351.20088 
L 359.737642 351.360965 
L 360.245168 349.968237 
L 360.498931 351.786341 
L 360.752695 352.357024 
L 361.006458 350.517584 
L 361.260221 353.376063 
L 361.513984 352.389381 
L 361.767748 352.804946 
L 362.021511 351.593621 
L 362.275274 352.242459 
L 362.529037 350.704697 
L 362.7828 352.249073 
L 363.036564 350.540147 
L 363.290327 350.884622 
L 363.54409 351.684537 
L 363.797853 352.933681 
L 364.30538 350.897375 
L 364.559143 351.658168 
L 365.06667 350.469701 
L 365.320433 351.584494 
L 365.574196 351.11602 
L 365.827959 352.462443 
L 366.081723 351.779476 
L 366.335486 351.577166 
L 366.589249 351.997981 
L 366.843012 352.144737 
L 367.096776 351.849919 
L 367.350539 349.538123 
L 367.604302 352.310033 
L 367.858065 351.289851 
L 368.365592 352.384185 
L 368.619355 351.833343 
L 368.873118 351.571753 
L 369.380645 352.793618 
L 369.634408 351.896997 
L 369.888171 353.158408 
L 370.141935 350.744955 
L 370.395698 353.078773 
L 370.649461 351.972581 
L 370.903224 352.672118 
L 371.156988 352.7031 
L 371.410751 353.839429 
L 371.664514 352.335614 
L 371.918277 354.013933 
L 372.172041 353.575504 
L 372.425804 352.773198 
L 372.679567 353.347153 
L 372.93333 353.144441 
L 373.187094 353.25377 
L 373.440857 354.192337 
L 373.69462 351.92628 
L 373.948383 351.625034 
L 374.45591 354.133794 
L 374.709673 353.598794 
L 374.963436 353.857332 
L 375.2172 353.149055 
L 375.470963 353.564531 
L 375.724726 352.331597 
L 375.978489 353.468954 
L 376.232252 352.900885 
L 376.486016 353.4747 
L 376.739779 353.502678 
L 376.993542 353.19124 
L 377.247305 351.992673 
L 377.754832 352.939864 
L 378.008595 352.809375 
L 378.262358 354.051475 
L 378.769885 352.231387 
L 379.023648 354.37718 
L 379.277411 351.881174 
L 379.531175 350.924579 
L 379.784938 355.349966 
L 380.038701 353.938454 
L 380.292464 353.171136 
L 380.546228 353.604054 
L 380.799991 353.749608 
L 381.053754 354.132615 
L 381.307517 352.618685 
L 381.561281 352.69823 
L 381.815044 352.633026 
L 382.068807 352.811951 
L 382.32257 353.442797 
L 382.576334 353.031081 
L 382.830097 354.31483 
L 383.08386 353.77008 
L 383.337623 352.918 
L 383.84515 354.104755 
L 384.098913 354.121574 
L 384.352676 352.61001 
L 384.860203 354.158755 
L 385.367729 352.639923 
L 385.621493 353.778441 
L 385.875256 353.093956 
L 386.129019 354.554768 
L 386.382782 354.753657 
L 386.636546 354.625818 
L 386.890309 354.318963 
L 387.144072 354.477042 
L 387.397835 353.308913 
L 387.651599 355.033556 
L 387.905362 353.768861 
L 388.412888 354.00186 
L 388.666652 354.48421 
L 388.920415 354.46842 
L 389.174178 355.16092 
L 389.935468 353.557245 
L 390.189231 354.29893 
L 390.442994 353.934785 
L 390.696757 353.177322 
L 390.950521 354.088375 
L 391.204284 353.965339 
L 391.458047 354.959508 
L 391.71181 354.71644 
L 391.965574 354.17989 
L 392.219337 356.016521 
L 392.4731 353.306783 
L 392.726863 353.010016 
L 392.980627 355.542116 
L 393.23439 354.834978 
L 393.488153 353.630765 
L 393.741916 355.738173 
L 393.99568 354.430117 
L 394.249443 354.603933 
L 394.503206 355.257182 
L 394.756969 354.614663 
L 395.010733 355.346944 
L 395.264496 355.36176 
L 395.518259 355.903417 
L 395.772022 356.816834 
L 396.025786 355.282686 
L 396.279549 355.44616 
L 396.533312 355.216089 
L 396.787075 354.47331 
L 397.040839 355.555182 
L 397.294602 354.570198 
L 397.802128 355.853873 
L 398.055892 355.324682 
L 398.309655 354.277144 
L 398.563418 356.554145 
L 398.817181 355.143324 
L 399.070945 354.847837 
L 399.324708 355.962702 
L 399.578471 354.93742 
L 399.832234 357.044469 
L 400.339761 353.982369 
L 400.593524 356.400817 
L 400.847287 354.195915 
L 401.354814 356.11548 
L 401.608577 355.858149 
L 401.86234 356.036008 
L 402.116104 355.388026 
L 402.369867 355.614721 
L 402.62363 355.199987 
L 402.877393 355.903088 
L 403.131156 355.521768 
L 403.38492 355.500054 
L 403.638683 354.535209 
L 403.892446 355.358793 
L 404.146209 355.201703 
L 404.399973 356.434593 
L 404.907499 355.197464 
L 405.161262 357.047496 
L 405.415026 355.492823 
L 405.668789 355.07123 
L 405.922552 355.85042 
L 406.176315 355.581382 
L 406.430079 355.84956 
L 406.683842 356.559729 
L 406.937605 356.87474 
L 407.191368 356.011754 
L 407.445132 355.59216 
L 407.698895 356.28763 
L 407.952658 356.365353 
L 408.206421 355.878266 
L 408.460185 356.559107 
L 408.713948 356.796226 
L 409.221474 356.624223 
L 409.475238 357.057641 
L 409.729001 355.110628 
L 409.982764 356.750515 
L 410.236527 356.70681 
L 410.490291 355.916434 
L 410.744054 356.485498 
L 410.997817 355.298172 
L 411.25158 355.349843 
L 411.505344 356.4268 
L 411.759107 356.945325 
L 412.01287 356.835536 
L 412.266633 356.054807 
L 412.520397 357.055124 
L 412.77416 356.258592 
L 413.027923 357.344518 
L 413.281686 355.365112 
L 413.53545 355.486018 
L 413.789213 357.373076 
L 414.042976 357.651275 
L 414.296739 356.90371 
L 414.550503 357.279628 
L 414.804266 355.521435 
L 415.058029 357.949771 
L 415.311792 357.536812 
L 415.565556 357.45831 
L 415.819319 357.161608 
L 416.073082 357.096603 
L 416.326845 356.633413 
L 416.580608 355.685356 
L 416.834372 356.265376 
L 417.088135 356.193854 
L 417.341898 356.263083 
L 417.595661 357.087847 
L 417.849425 356.593057 
L 418.103188 355.778741 
L 418.356951 356.667262 
L 418.610714 356.919435 
L 418.864478 358.713719 
L 419.118241 356.154915 
L 419.372004 356.29643 
L 419.625767 358.422609 
L 420.133294 357.172874 
L 420.387057 358.006489 
L 420.64082 356.555886 
L 420.894584 356.904932 
L 421.148347 358.781657 
L 421.655873 357.441736 
L 421.909637 358.191577 
L 422.1634 357.71266 
L 422.670926 355.982553 
L 422.92469 357.494977 
L 423.178453 356.786989 
L 423.432216 356.680882 
L 423.939743 357.679857 
L 424.193506 356.199465 
L 424.447269 357.635571 
L 424.701032 355.813282 
L 424.954796 359.139051 
L 425.208559 357.869843 
L 425.462322 357.791083 
L 425.716085 359.141386 
L 425.969849 357.045673 
L 426.223612 357.927939 
L 426.477375 358.307048 
L 426.731138 356.640815 
L 426.984902 358.616498 
L 427.238665 357.153569 
L 427.492428 359.16361 
L 427.746191 356.381463 
L 427.999955 358.622525 
L 428.253718 356.882129 
L 428.507481 358.727073 
L 428.761244 358.413275 
L 429.015008 358.560743 
L 429.522534 358.36347 
L 429.776297 358.249022 
L 430.03006 357.621877 
L 430.537587 359.077625 
L 430.79135 357.902124 
L 431.045113 358.997935 
L 431.298877 355.336798 
L 431.55264 357.593301 
L 431.806403 358.66857 
L 432.060166 358.413711 
L 432.31393 358.971798 
L 432.567693 359.002638 
L 432.821456 358.60094 
L 433.075219 360.103009 
L 433.328983 359.139962 
L 433.582746 359.634354 
L 434.090272 358.042739 
L 434.344036 359.217179 
L 434.597799 359.083726 
L 434.851562 357.233816 
L 435.105325 357.991089 
L 435.612852 355.957001 
L 435.866615 358.704313 
L 436.120378 358.169735 
L 436.627905 359.074161 
L 436.881668 358.751192 
L 437.135431 357.759334 
L 437.389195 357.851275 
L 437.642958 359.328048 
L 437.896721 359.970502 
L 438.150484 357.288273 
L 438.404248 358.699931 
L 438.658011 359.293961 
L 438.911774 359.288801 
L 439.165537 357.97116 
L 439.419301 358.449406 
L 439.673064 356.907316 
L 439.926827 358.263301 
L 440.434354 359.083325 
L 440.688117 359.278956 
L 440.94188 359.033649 
L 441.195643 357.108632 
L 441.70317 359.457695 
L 441.956933 358.757692 
L 442.210696 358.584766 
L 442.46446 359.504276 
L 442.718223 358.994646 
L 442.971986 359.010242 
L 443.225749 359.248004 
L 443.479512 359.274348 
L 443.733276 357.707041 
L 443.987039 359.664725 
L 444.494565 359.568312 
L 444.748329 358.450408 
L 445.002092 360.263233 
L 445.509618 358.437474 
L 445.763382 360.495386 
L 446.017145 359.713626 
L 446.270908 359.639302 
L 446.524671 358.789043 
L 446.778435 359.792833 
L 447.032198 359.316475 
L 447.285961 359.85352 
L 447.539724 359.338437 
L 447.793488 360.517731 
L 448.047251 359.290896 
L 448.301014 360.638461 
L 448.554777 358.563714 
L 448.808541 359.314078 
L 449.062304 357.935946 
L 449.316067 358.041877 
L 449.56983 360.296551 
L 449.823594 359.321929 
L 450.077357 360.109376 
L 450.33112 358.785495 
L 450.838647 360.4742 
L 451.09241 360.652281 
L 451.346173 359.532175 
L 451.599936 360.687096 
L 451.8537 360.658473 
L 452.107463 359.061303 
L 452.361226 359.226583 
L 452.614989 360.265157 
L 452.868753 359.580043 
L 453.122516 360.310906 
L 453.376279 359.371508 
L 453.630042 360.575063 
L 454.137569 359.385862 
L 454.391332 359.379881 
L 454.645095 360.79792 
L 454.898859 358.258036 
L 455.152622 360.233747 
L 455.406385 359.758988 
L 455.660148 360.05049 
L 455.913912 359.989114 
L 456.167675 359.191095 
L 456.928964 360.618822 
L 457.182728 360.763089 
L 457.436491 360.726326 
L 457.690254 358.757666 
L 457.944017 359.629944 
L 458.451544 359.418773 
L 458.705307 360.856785 
L 458.95907 360.067051 
L 459.212834 360.382073 
L 459.466597 359.630367 
L 459.72036 360.077261 
L 459.974123 359.080166 
L 460.227887 360.704394 
L 460.48165 359.895752 
L 460.735413 360.288176 
L 460.989176 360.179538 
L 461.24294 359.517902 
L 461.496703 360.387918 
L 461.750466 358.815453 
L 462.004229 360.092711 
L 462.257993 360.358612 
L 462.511756 359.926703 
L 462.765519 360.820065 
L 463.019282 361.162564 
L 463.273046 361.260755 
L 463.526809 360.150793 
L 464.034335 362.165507 
L 464.795625 358.834603 
L 465.049388 359.95714 
L 465.303152 361.665685 
L 465.810678 360.560859 
L 466.064441 359.348318 
L 466.318205 361.082256 
L 466.571968 360.699393 
L 466.825731 360.917622 
L 467.079494 359.565791 
L 467.333258 359.852672 
L 467.587021 358.40534 
L 467.840784 359.248346 
L 468.094547 360.866148 
L 468.348311 360.373676 
L 468.602074 360.344667 
L 468.855837 360.558509 
L 469.1096 361.132864 
L 469.363363 359.249324 
L 469.617127 359.527596 
L 469.87089 359.987272 
L 470.124653 361.14106 
L 470.378416 360.229501 
L 470.63218 361.283345 
L 470.885943 361.846998 
L 471.393469 358.938284 
L 471.647233 360.364022 
L 471.900996 359.583917 
L 472.154759 360.506387 
L 472.408522 360.84338 
L 472.662286 359.641789 
L 472.916049 360.836777 
L 473.169812 361.049179 
L 473.423575 361.003614 
L 473.677339 361.821331 
L 474.184865 360.070869 
L 474.438628 360.141302 
L 474.692392 360.394306 
L 474.946155 359.998171 
L 475.199918 360.926379 
L 475.707445 360.378182 
L 475.961208 360.980313 
L 476.214971 360.79023 
L 476.468734 361.282507 
L 476.722498 361.029884 
L 476.976261 360.049525 
L 477.230024 361.592007 
L 477.483787 361.254076 
L 477.737551 362.357321 
L 477.991314 360.627106 
L 478.245077 361.640481 
L 478.49884 360.618307 
L 478.752604 360.627477 
L 479.006367 361.46346 
L 479.26013 361.342363 
L 479.513893 361.041542 
L 480.02142 362.322194 
L 480.275183 361.667962 
L 480.528946 361.907805 
L 481.036473 358.750612 
L 481.290236 360.783225 
L 481.543999 361.614381 
L 481.797763 360.904307 
L 482.051526 360.741902 
L 482.305289 360.174105 
L 482.559052 361.636351 
L 482.812815 360.432627 
L 483.066579 361.753576 
L 483.320342 361.053112 
L 483.574105 361.709191 
L 483.827868 362.950173 
L 484.081632 362.236742 
L 484.335395 361.029538 
L 484.589158 361.672941 
L 484.842921 360.842297 
L 485.096685 361.793487 
L 485.350448 361.362723 
L 485.604211 361.282199 
L 485.857974 361.803864 
L 486.111738 360.806272 
L 486.365501 362.531076 
L 486.619264 363.076727 
L 486.873027 361.333561 
L 487.126791 361.131843 
L 487.380554 363.050677 
L 487.634317 360.876218 
L 487.88808 361.589766 
L 488.141844 361.038998 
L 488.395607 361.608957 
L 488.64937 361.399616 
L 488.903133 360.438953 
L 489.156897 361.098645 
L 489.41066 360.920215 
L 489.664423 361.565647 
L 489.918186 361.237303 
L 490.17195 361.091944 
L 490.425713 362.538718 
L 490.679476 362.638269 
L 490.933239 361.463163 
L 491.187003 362.938404 
L 491.440766 362.503139 
L 491.948292 360.598576 
L 492.202056 361.84899 
L 492.455819 362.304117 
L 492.709582 361.912627 
L 492.963345 360.887726 
L 493.217109 361.317606 
L 493.470872 362.873811 
L 493.724635 361.77024 
L 493.978398 362.524794 
L 494.232162 360.794756 
L 494.485925 363.627561 
L 494.739688 362.313841 
L 494.993451 362.766671 
L 495.247215 362.64287 
L 495.500978 363.190097 
L 496.008504 361.247256 
L 496.262267 363.113425 
L 496.516031 362.670209 
L 496.769794 362.611807 
L 497.023557 361.980151 
L 497.27732 362.40209 
L 497.531084 360.645818 
L 498.03861 361.651334 
L 498.292373 361.395514 
L 498.546137 361.721162 
L 498.7999 361.118585 
L 499.053663 362.37605 
L 499.56119 361.917856 
L 499.814953 362.556761 
L 500.068716 360.996004 
L 500.322479 362.28033 
L 500.576243 361.840992 
L 500.830006 362.642519 
L 501.083769 364.045643 
L 501.337532 362.764988 
L 501.591296 363.404666 
L 501.845059 362.627305 
L 502.098822 362.628456 
L 502.606349 361.61512 
L 502.860112 361.551668 
L 503.113875 360.524639 
L 503.367638 362.687184 
L 503.621402 363.433828 
L 504.128928 361.736848 
L 504.382691 362.441489 
L 504.636455 362.590912 
L 505.143981 361.967251 
L 505.651508 363.358113 
L 505.905271 363.375351 
L 506.159034 363.100326 
L 506.412797 361.856453 
L 506.920324 362.845991 
L 507.174087 361.32189 
L 507.42785 362.839368 
L 507.681614 362.634064 
L 507.935377 363.264139 
L 508.18914 363.350081 
L 508.442903 363.644006 
L 508.95043 362.373278 
L 509.204193 363.403453 
L 509.965483 362.837914 
L 510.219246 362.342125 
L 510.473009 363.085274 
L 510.726772 364.588705 
L 510.980536 361.862803 
L 511.234299 363.180412 
L 511.488062 363.418513 
L 511.741825 364.110868 
L 511.995589 362.166852 
L 512.249352 361.106048 
L 512.503115 362.952692 
L 512.756878 362.027899 
L 513.010642 363.152705 
L 513.264405 363.542354 
L 513.518168 362.277939 
L 513.771931 361.897076 
L 514.279458 363.475399 
L 514.533221 362.87989 
L 514.786984 362.707431 
L 515.040748 363.023593 
L 515.294511 363.568163 
L 515.548274 363.009091 
L 516.309564 363.582603 
L 516.563327 362.822185 
L 516.81709 363.274584 
L 517.070854 364.335156 
L 517.324617 362.7114 
L 517.57838 362.94121 
L 517.832143 363.634873 
L 518.593433 363.50032 
L 518.847196 364.350403 
L 519.10096 362.337546 
L 519.354723 362.842792 
L 519.608486 362.14407 
L 519.862249 363.484091 
L 520.116013 364.102073 
L 520.369776 363.029246 
L 520.623539 362.781939 
L 520.877302 363.830488 
L 521.131066 364.149119 
L 521.384829 362.889906 
L 521.638592 363.696632 
L 521.892355 362.778626 
L 522.146119 364.111155 
L 522.399882 363.393086 
L 522.653645 363.320786 
L 522.907408 364.064101 
L 523.161171 362.29311 
L 523.414935 363.232762 
L 523.668698 362.067515 
L 523.922461 363.712384 
L 524.176224 362.669427 
L 524.429988 363.76225 
L 524.683751 363.756954 
L 524.937514 362.265659 
L 525.191277 363.62018 
L 525.445041 363.497397 
L 525.698804 362.176176 
L 525.952567 363.566414 
L 526.20633 361.697052 
L 526.713857 363.983416 
L 526.96762 362.420007 
L 527.221383 364.425233 
L 527.72891 362.562954 
L 527.982673 363.254578 
L 528.236436 362.168836 
L 528.4902 363.547295 
L 528.743963 363.616332 
L 528.997726 364.01457 
L 529.251489 362.580536 
L 529.505253 363.683529 
L 530.012779 363.157018 
L 530.520306 363.480153 
L 530.774069 362.951175 
L 531.027832 364.253735 
L 531.281595 364.150225 
L 531.535359 364.847733 
L 532.296648 363.750492 
L 532.804175 364.045489 
L 533.057938 363.310733 
L 533.311701 363.35213 
L 533.565465 364.68941 
L 533.819228 364.167052 
L 534.072991 364.229832 
L 534.326754 363.240938 
L 534.580518 365.490237 
L 534.834281 364.578437 
L 535.088044 364.491998 
L 535.341807 364.103316 
L 535.595571 365.48092 
L 535.849334 363.593051 
L 536.103097 363.520567 
L 536.35686 364.357708 
L 536.610623 363.524611 
L 536.864387 363.896794 
L 537.11815 363.558366 
L 537.371913 364.004574 
L 537.625676 363.014126 
L 537.87944 364.465083 
L 538.133203 365.243897 
L 538.386966 362.117163 
L 538.640729 363.700578 
L 538.894493 363.647311 
L 539.148256 365.21614 
L 539.402019 363.979308 
L 539.655782 364.37293 
L 539.909546 363.723597 
L 540.163309 364.461178 
L 540.417072 364.306644 
L 540.670835 363.866243 
L 540.924599 364.07559 
L 541.178362 365.081039 
L 541.432125 365.087394 
L 541.685888 364.945588 
L 541.939652 364.343139 
L 542.193415 364.882236 
L 542.447178 364.0582 
L 542.954705 364.902157 
L 543.208468 363.262306 
L 543.462231 363.523113 
L 543.715994 364.778381 
L 543.969758 364.834248 
L 544.223521 363.105069 
L 544.731047 364.657316 
L 544.984811 363.440827 
L 545.238574 363.559486 
L 545.492337 363.049503 
L 545.7461 364.50105 
L 546.253627 363.300953 
L 546.50739 363.678475 
L 546.761153 365.279359 
L 547.014917 364.379105 
L 547.26868 364.932351 
L 547.522443 364.291338 
L 547.776206 362.960486 
L 548.283733 365.223198 
L 548.537496 364.08326 
L 548.791259 364.169778 
L 549.045023 364.919931 
L 549.298786 362.965421 
L 549.552549 364.85548 
L 549.806312 365.011528 
L 550.060075 364.673531 
L 550.313839 365.237572 
L 550.567602 365.102103 
L 550.821365 364.290411 
L 551.075128 364.075729 
L 551.582655 365.331215 
L 551.836418 364.416817 
L 552.090181 364.754756 
L 552.343945 364.582481 
L 552.597708 364.668138 
L 553.105234 363.999023 
L 553.358998 365.009176 
L 553.612761 364.658519 
L 553.866524 363.632367 
L 554.374051 365.442787 
L 554.627814 364.128904 
L 554.881577 365.395875 
L 555.13534 365.398369 
L 555.389104 365.537421 
L 555.642867 364.742563 
L 555.89663 365.268227 
L 556.150393 365.091425 
L 556.404157 365.256227 
L 556.65792 365.744249 
L 556.911683 364.74509 
L 557.165446 366.010667 
L 557.41921 364.961571 
L 557.672973 364.906253 
L 557.926736 365.567052 
L 558.434263 364.762788 
L 558.688026 365.042185 
L 558.941789 364.520983 
L 559.195552 365.195845 
L 559.449316 364.859205 
L 559.703079 365.739923 
L 559.956842 363.305548 
L 560.210605 364.452576 
L 560.464369 364.448593 
L 560.718132 365.000796 
L 561.225658 364.711242 
L 561.479422 364.085323 
L 561.733185 364.521721 
L 562.240711 365.894727 
L 562.494475 365.520305 
L 562.748238 366.019693 
L 563.002001 365.713833 
L 563.255764 364.458029 
L 563.509527 365.32252 
L 563.763291 364.37554 
L 564.017054 365.74596 
L 564.270817 365.179154 
L 564.52458 366.960686 
L 565.28587 364.591214 
L 565.539633 364.619998 
L 565.793397 366.155905 
L 566.04716 366.030475 
L 566.300923 365.33726 
L 566.554686 364.157782 
L 566.80845 364.474861 
L 567.062213 365.796874 
L 567.315976 365.749125 
L 567.569739 364.500842 
L 567.823503 366.112246 
L 568.077266 365.633139 
L 568.331029 364.57378 
L 568.584792 366.294777 
L 568.838556 364.946304 
L 569.092319 364.739791 
L 569.346082 365.45006 
L 569.599845 366.587217 
L 569.853609 365.394181 
L 570.107372 365.474127 
L 570.361135 365.364895 
L 570.614898 365.613328 
L 570.868662 365.309008 
L 571.122425 366.266904 
L 571.376188 364.704542 
L 571.629951 364.982046 
L 571.883715 365.550871 
L 572.137478 364.466497 
L 572.391241 365.06367 
L 572.645004 365.184194 
L 572.898768 364.346854 
L 573.152531 366.216575 
L 573.406294 365.106978 
L 573.660057 365.232959 
L 573.913821 365.826233 
L 574.167584 365.128958 
L 574.421347 364.763562 
L 574.67511 366.96295 
L 574.928874 365.606522 
L 575.182637 365.14881 
L 575.4364 365.804094 
L 575.943927 365.286546 
L 576.19769 366.404631 
L 576.705216 365.348066 
L 576.958979 366.972621 
L 577.212743 366.741904 
L 577.466506 364.521818 
L 577.720269 366.472419 
L 577.974032 364.793189 
L 578.481559 366.284563 
L 578.735322 366.160428 
L 578.989085 365.246762 
L 579.242849 366.43523 
L 579.496612 365.22021 
L 579.750375 364.724859 
L 580.004138 365.045549 
L 580.257902 365.662819 
L 580.511665 364.997452 
L 580.765428 365.812036 
L 581.019191 366.076117 
L 581.272955 367.020529 
L 581.526718 366.128159 
L 581.780481 366.226938 
L 582.034244 366.090764 
L 582.288008 365.459392 
L 582.541771 366.111872 
L 582.795534 365.279292 
L 583.049297 365.600812 
L 583.303061 366.65081 
L 583.556824 365.309541 
L 583.810587 366.017163 
L 584.06435 365.532501 
L 584.318114 365.630516 
L 584.571877 366.118305 
L 584.82564 365.762948 
L 585.079403 365.101575 
L 585.333167 365.320753 
L 585.840693 367.607485 
L 586.094456 366.956265 
L 586.601983 366.178078 
L 586.855746 366.357814 
L 587.109509 365.1057 
L 587.363273 367.636542 
L 587.870799 365.663937 
L 588.124562 366.628987 
L 588.378326 365.761477 
L 588.632089 366.554783 
L 589.139615 366.63608 
L 589.647142 365.760962 
L 589.900905 366.003013 
L 590.154668 366.967621 
L 590.408431 366.428764 
L 590.662195 366.331189 
L 590.915958 364.218636 
L 591.423484 366.72522 
L 591.931011 366.013871 
L 592.184774 366.729773 
L 592.438537 366.802927 
L 592.692301 366.627629 
L 593.199827 365.10879 
L 593.45359 366.367167 
L 593.707354 366.867401 
L 593.961117 365.891935 
L 594.21488 366.409916 
L 594.468643 365.539773 
L 594.722407 366.842689 
L 594.97617 366.122748 
L 595.229933 366.217473 
L 595.483696 366.712468 
L 595.73746 366.155775 
L 595.991223 367.406862 
L 596.498749 366.124786 
L 596.752513 365.144843 
L 597.006276 366.071243 
L 597.260039 366.354566 
L 597.513802 368.912628 
L 597.767566 366.132971 
L 598.021329 367.325775 
L 598.275092 366.977466 
L 598.528855 365.57948 
L 598.782619 367.774764 
L 599.036382 366.640404 
L 599.290145 366.375556 
L 599.797672 366.492287 
L 600.051435 367.23007 
L 600.305198 366.811243 
L 600.558961 365.85126 
L 600.812725 366.939305 
L 601.066488 366.674004 
L 601.320251 367.229175 
L 601.574014 367.226853 
L 601.827778 367.385277 
L 602.081541 366.461224 
L 602.335304 366.889958 
L 602.589067 366.835807 
L 602.842831 366.082533 
L 603.096594 367.513281 
L 603.350357 367.024166 
L 603.60412 367.315179 
L 603.857883 365.913081 
L 604.111647 367.674004 
L 604.619173 365.770876 
L 604.872936 367.309145 
L 605.1267 367.271542 
L 605.380463 366.681445 
L 605.634226 366.941559 
L 605.887989 368.119883 
L 606.395516 366.780114 
L 606.649279 367.998859 
L 606.903042 367.397671 
L 607.156806 366.016949 
L 607.410569 367.61627 
L 607.664332 366.844033 
L 607.918095 367.096461 
L 608.171859 367.106733 
L 608.425622 366.8409 
L 608.679385 367.437001 
L 609.440675 367.118369 
L 609.694438 367.486822 
L 609.948201 367.614069 
L 610.201965 367.544816 
L 610.455728 368.071306 
L 610.963254 365.20345 
L 611.217018 367.784199 
L 611.470781 367.083164 
L 611.724544 367.784521 
L 611.978307 367.251091 
L 612.232071 368.100201 
L 612.485834 366.600545 
L 612.739597 367.711143 
L 612.99336 366.340738 
L 613.247124 368.334012 
L 613.75465 367.311578 
L 614.008413 367.491873 
L 614.262177 367.162658 
L 614.51594 367.79723 
L 614.769703 367.547926 
L 615.023466 368.29992 
L 615.27723 366.518546 
L 615.530993 366.706811 
L 615.784756 368.020342 
L 616.038519 367.369887 
L 616.546046 367.29512 
L 616.799809 368.088037 
L 617.053572 368.0246 
L 617.307335 366.210463 
L 617.561099 367.007642 
L 617.814862 368.318708 
L 618.068625 367.41324 
L 618.322388 366.004426 
L 618.576152 366.229874 
L 618.829915 367.422971 
L 619.337441 367.074561 
L 619.591205 369.36 
L 619.844968 366.871858 
L 620.098731 366.943317 
L 620.352494 367.921356 
L 620.606258 366.821849 
L 620.860021 367.683738 
L 621.113784 366.727581 
L 621.367547 366.917061 
L 621.621311 368.142032 
L 621.875074 366.548456 
L 622.128837 367.44597 
L 622.3826 367.141636 
L 622.636364 367.453229 
L 622.636364 367.453229 
" clip-path="url(#p8da3535ef5)" style="fill: none; stroke: #1f77b4; stroke-width: 1.5; stroke-linecap: square"/>
   </g>
   <g id="patch_3">
    <path d="M 90 384.48 
L 90 51.84 
" style="fill: none; stroke: #000000; stroke-width: 0.8; stroke-linejoin: miter; stroke-linecap: square"/>
   </g>
   <g id="patch_4">
    <path d="M 648 384.48 
L 648 51.84 
" style="fill: none; stroke: #000000; stroke-width: 0.8; stroke-linejoin: miter; stroke-linecap: square"/>
   </g>
   <g id="patch_5">
    <path d="M 90 384.48 
L 648 384.48 
" style="fill: none; stroke: #000000; stroke-width: 0.8; stroke-linejoin: miter; stroke-linecap: square"/>
   </g>
   <g id="patch_6">
    <path d="M 90 51.84 
L 648 51.84 
" style="fill: none; stroke: #000000; stroke-width: 0.8; stroke-linejoin: miter; stroke-linecap: square"/>
   </g>
   <g id="text_19">
    <!-- Training Loss Curve -->
    <g transform="translate(312 45.84) scale(0.12 -0.12)">
     <defs>
      <path id="SimHei-54" d="M 2850 3925 
L 1850 3925 
L 1850 125 
L 1275 125 
L 1275 3925 
L 275 3925 
L 275 4400 
L 2850 4400 
L 2850 3925 
z
" transform="scale(0.015625)"/>
      <path id="SimHei-67" d="M 2975 2500 
Q 2800 2550 2637 2562 
Q 2475 2575 2300 2525 
Q 2375 2450 2425 2337 
Q 2475 2225 2475 2000 
Q 2475 1575 2187 1300 
Q 1900 1025 1475 1025 
Q 1375 1025 1212 1062 
Q 1050 1100 950 1150 
Q 875 1100 850 1050 
Q 825 1000 825 925 
Q 825 800 1000 737 
Q 1175 675 1625 675 
Q 2350 675 2612 475 
Q 2875 275 2875 -25 
Q 2875 -425 2487 -612 
Q 2100 -800 1575 -800 
Q 900 -800 575 -625 
Q 250 -450 250 -150 
Q 250 0 375 150 
Q 500 300 700 400 
Q 550 475 462 587 
Q 375 700 375 875 
Q 375 1025 487 1137 
Q 600 1250 750 1325 
Q 625 1450 550 1625 
Q 475 1800 475 2000 
Q 475 2425 762 2700 
Q 1050 2975 1475 2975 
Q 1700 2975 1862 2912 
Q 2025 2850 2150 2725 
Q 2350 2875 2550 2937 
Q 2750 3000 2975 2975 
L 2975 2500 
z
M 1975 2000 
Q 1975 2250 1850 2400 
Q 1725 2550 1475 2550 
Q 1225 2550 1100 2400 
Q 975 2250 975 2000 
Q 975 1750 1100 1600 
Q 1225 1450 1475 1450 
Q 1725 1450 1850 1600 
Q 1975 1750 1975 2000 
z
M 2400 -75 
Q 2400 25 2287 125 
Q 2175 225 1725 225 
Q 1625 225 1450 237 
Q 1275 250 1050 275 
Q 850 200 775 100 
Q 700 0 700 -100 
Q 700 -250 900 -350 
Q 1100 -450 1600 -450 
Q 2025 -450 2212 -337 
Q 2400 -225 2400 -75 
z
" transform="scale(0.015625)"/>
      <path id="SimHei-20" transform="scale(0.015625)"/>
      <path id="SimHei-43" d="M 2975 1825 
Q 2950 875 2575 475 
Q 2200 75 1675 75 
Q 1075 75 650 562 
Q 225 1050 225 2125 
Q 225 3300 637 3875 
Q 1050 4450 1700 4450 
Q 2250 4450 2612 4037 
Q 2975 3625 2950 2875 
L 2400 2875 
Q 2400 3425 2225 3700 
Q 2050 3975 1700 3975 
Q 1300 3975 1062 3562 
Q 825 3150 825 2175 
Q 825 1275 1062 912 
Q 1300 550 1675 550 
Q 1950 550 2175 812 
Q 2400 1075 2400 1825 
L 2975 1825 
z
" transform="scale(0.015625)"/>
      <path id="SimHei-75" d="M 2800 125 
L 2300 125 
L 2300 650 
Q 2100 375 1862 225 
Q 1625 75 1250 75 
Q 800 75 575 325 
Q 350 575 350 950 
L 350 2925 
L 850 2925 
L 850 1125 
Q 850 825 1000 650 
Q 1150 475 1400 475 
Q 1725 475 2012 812 
Q 2300 1150 2300 1650 
L 2300 2925 
L 2800 2925 
L 2800 125 
z
" transform="scale(0.015625)"/>
      <path id="SimHei-76" d="M 2875 2925 
L 1825 75 
L 1275 75 
L 225 2925 
L 750 2925 
L 1525 750 
L 1575 750 
L 2350 2925 
L 2875 2925 
z
" transform="scale(0.015625)"/>
     </defs>
     <use xlink:href="#SimHei-54"/>
     <use xlink:href="#SimHei-72" transform="translate(50 0)"/>
     <use xlink:href="#SimHei-61" transform="translate(100 0)"/>
     <use xlink:href="#SimHei-69" transform="translate(150 0)"/>
     <use xlink:href="#SimHei-6e" transform="translate(200 0)"/>
     <use xlink:href="#SimHei-69" transform="translate(250 0)"/>
     <use xlink:href="#SimHei-6e" transform="translate(300 0)"/>
     <use xlink:href="#SimHei-67" transform="translate(350 0)"/>
     <use xlink:href="#SimHei-20" transform="translate(400 0)"/>
     <use xlink:href="#SimHei-4c" transform="translate(450 0)"/>
     <use xlink:href="#SimHei-6f" transform="translate(500 0)"/>
     <use xlink:href="#SimHei-73" transform="translate(550 0)"/>
     <use xlink:href="#SimHei-73" transform="translate(600 0)"/>
     <use xlink:href="#SimHei-20" transform="translate(650 0)"/>
     <use xlink:href="#SimHei-43" transform="translate(700 0)"/>
     <use xlink:href="#SimHei-75" transform="translate(750 0)"/>
     <use xlink:href="#SimHei-72" transform="translate(800 0)"/>
     <use xlink:href="#SimHei-76" transform="translate(850 0)"/>
     <use xlink:href="#SimHei-65" transform="translate(900 0)"/>
    </g>
   </g>
   <g id="legend_1">
    <g id="patch_7">
     <path d="M 559 73.09 
L 641 73.09 
Q 643 73.09 643 71.09 
L 643 58.84 
Q 643 56.84 641 56.84 
L 559 56.84 
Q 557 56.84 557 58.84 
L 557 71.09 
Q 557 73.09 559 73.09 
z
" style="fill: #ffffff; opacity: 0.8; stroke: #cccccc; stroke-linejoin: miter"/>
    </g>
    <g id="line2d_34">
     <path d="M 561 64.34 
L 571 64.34 
L 581 64.34 
" style="fill: none; stroke: #1f77b4; stroke-width: 1.5; stroke-linecap: square"/>
    </g>
    <g id="text_20">
     <!-- Loss Curve -->
     <g transform="translate(589 67.84) scale(0.1 -0.1)">
      <use xlink:href="#SimHei-4c"/>
      <use xlink:href="#SimHei-6f" transform="translate(50 0)"/>
      <use xlink:href="#SimHei-73" transform="translate(100 0)"/>
      <use xlink:href="#SimHei-73" transform="translate(150 0)"/>
      <use xlink:href="#SimHei-20" transform="translate(200 0)"/>
      <use xlink:href="#SimHei-43" transform="translate(250 0)"/>
      <use xlink:href="#SimHei-75" transform="translate(300 0)"/>
      <use xlink:href="#SimHei-72" transform="translate(350 0)"/>
      <use xlink:href="#SimHei-76" transform="translate(400 0)"/>
      <use xlink:href="#SimHei-65" transform="translate(450 0)"/>
     </g>
    </g>
   </g>
  </g>
 </g>
 <defs>
  <clipPath id="p8da3535ef5">
   <rect x="90" y="51.84" width="558" height="332.64"/>
  </clipPath>
 </defs>
</svg>
