<svg xmlns="http://www.w3.org/2000/svg" width="470" height="1860" style="background-color:#181818;" >
  <style>
    .terminal-text {
      font-family: 'Consolas', 'Courier New', monospace;
      font-size: 14px;
      fill: white;
    }
  </style>
  <text x="20" y="30" class="terminal-text">初始状态 1:</text>
  <text x="20" y="50" class="terminal-text"> 1  2  4  8</text>
  <text x="20" y="70" class="terminal-text"> 5  7 11 10</text>
  <text x="20" y="90" class="terminal-text">13 15  0  3</text>
  <text x="20" y="110" class="terminal-text">14  6  9 12</text>
  <text x="20" y="130" class="terminal-text"></text>
  <text x="20" y="150" class="terminal-text">正在使用A*算法求解...</text>
  <text x="20" y="170" class="terminal-text">A*算法求解成功！</text>
  <text x="20" y="190" class="terminal-text">路径长度: 22</text>
  <text x="20" y="210" class="terminal-text">展开节点数: 70</text>
  <text x="20" y="230" class="terminal-text">运行时间: 0.006791591644287109秒</text>
  <text x="20" y="250" class="terminal-text">路径： [15, 6, 9, 15, 11, 10, 3, 11, 10, 3, 8, 4, 3,</text>
  <text x="20" y="270" class="terminal-text">7, 6, 9, 14, 13, 9, 10, 11, 12]</text>
  <text x="20" y="290" class="terminal-text"></text>
  <text x="20" y="310" class="terminal-text">初始状态 2:</text>
  <text x="20" y="330" class="terminal-text">14 10  6  0</text>
  <text x="20" y="350" class="terminal-text"> 4  9  1  8</text>
  <text x="20" y="370" class="terminal-text"> 2  3  5 11</text>
  <text x="20" y="390" class="terminal-text">12 13  7 15</text>
  <text x="20" y="410" class="terminal-text"></text>
  <text x="20" y="430" class="terminal-text">正在使用A*算法求解...</text>
  <text x="20" y="450" class="terminal-text">A*算法求解成功！</text>
  <text x="20" y="470" class="terminal-text">路径长度: 49</text>
  <text x="20" y="490" class="terminal-text">展开节点数: 115988</text>
  <text x="20" y="510" class="terminal-text">运行时间: 2.2948195934295654秒</text>
  <text x="20" y="530" class="terminal-text">路径： [6, 10, 9, 4, 14, 9, 4, 1, 10, 4, 1, 3, 2, 14,</text>
  <text x="20" y="550" class="terminal-text">9, 1, 3, 2, 5, 11, 8, 6, 4, 3, 2, 5, 13, 12, 14, 13,</text>
  <text x="20" y="570" class="terminal-text">12, 7, 11, 12, 7, 14, 13, 9, 5, 10, 6, 8, 12, 7, 10,</text>
  <text x="20" y="590" class="terminal-text">6, 7, 11, 15]</text>
  <text x="20" y="610" class="terminal-text"></text>
  <text x="20" y="630" class="terminal-text">初始状态 3:</text>
  <text x="20" y="650" class="terminal-text"> 5  1  3  4</text>
  <text x="20" y="670" class="terminal-text"> 2  7  8 12</text>
  <text x="20" y="690" class="terminal-text"> 9  6 11 15</text>
  <text x="20" y="710" class="terminal-text"> 0 13 10 14</text>
  <text x="20" y="730" class="terminal-text"></text>
  <text x="20" y="750" class="terminal-text">正在使用A*算法求解...</text>
  <text x="20" y="770" class="terminal-text">A*算法求解成功！</text>
  <text x="20" y="790" class="terminal-text">路径长度: 15</text>
  <text x="20" y="810" class="terminal-text">展开节点数: 15</text>
  <text x="20" y="830" class="terminal-text">运行时间: 0.0秒</text>
  <text x="20" y="850" class="terminal-text">路径： [13, 10, 14, 15, 12, 8, 7, 2, 5, 1, 2, 6, 10,</text>
  <text x="20" y="870" class="terminal-text"> 14, 15]</text>
  <text x="20" y="890" class="terminal-text"></text>
  <text x="20" y="910" class="terminal-text">初始状态 4:</text>
  <text x="20" y="930" class="terminal-text"> 6 10  3 15</text>
  <text x="20" y="950" class="terminal-text">14  8  7 11</text>
  <text x="20" y="970" class="terminal-text"> 5  1  0  2</text>
  <text x="20" y="990" class="terminal-text">13 12  9  4</text>
  <text x="20" y="1010" class="terminal-text"></text>
  <text x="20" y="1030" class="terminal-text">正在使用A*算法求解...</text>
  <text x="20" y="1050" class="terminal-text">A*算法求解成功！</text>
  <text x="20" y="1070" class="terminal-text">路径长度: 48</text>
  <text x="20" y="1090" class="terminal-text">展开节点数: 603023</text>
  <text x="20" y="1110" class="terminal-text">运行时间: 15.589877843856812秒</text>
  <text x="20" y="1130" class="terminal-text">路径： [9, 12, 13, 5, 1, 9, 7, 11, 2, 4, 12, 13, 9, 7,</text>
  <text x="20" y="1150" class="terminal-text">11, 2, 15, 3, 2, 15, 4, 11, 15, 8, 14, 1, 5, 9, 13,</text>
  <text x="20" y="1170" class="terminal-text">15, 7, 14, 10, 6, 1, 5, 9, 13, 14, 10, 6, 2, 3, 4,</text>
  <text x="20" y="1190" class="terminal-text">8, 7, 11, 12]</text>
  <text x="20" y="1210" class="terminal-text"></text>
  <text x="20" y="1230" class="terminal-text">初始状态 5:</text>
  <text x="20" y="1250" class="terminal-text">11  3  1  7</text>
  <text x="20" y="1270" class="terminal-text"> 4  6  8  2</text>
  <text x="20" y="1290" class="terminal-text">15  9 10 13</text>
  <text x="20" y="1310" class="terminal-text">14 12  5  0</text>
  <text x="20" y="1330" class="terminal-text"></text>
  <text x="20" y="1350" class="terminal-text">正在使用A*算法求解...</text>
  <text x="20" y="1370" class="terminal-text">A*算法求解成功！</text>
  <text x="20" y="1390" class="terminal-text">路径长度: 56</text>
  <text x="20" y="1410" class="terminal-text">展开节点数: 2603402</text>
  <text x="20" y="1430" class="terminal-text">运行时间: 140.49922394752502秒</text>
  <text x="20" y="1450" class="terminal-text">路径： [5, 12, 9, 10, 13, 5, 12, 13, 8, 2, 5, 8, 10,</text>
  <text x="20" y="1470" class="terminal-text">6, 3, 1, 2, 3, 4, 11, 1, 2, 3, 4, 2, 3, 4, 5, 7, 4,</text>
  <text x="20" y="1490" class="terminal-text">3, 2, 5, 10, 6, 15, 11, 5, 10, 6, 15, 11, 14, 9, 13,</text>
  <text x="20" y="1510" class="terminal-text">15, 11, 14, 9, 13, 14, 10, 6, 7, 8, 12]</text>
  <text x="20" y="1530" class="terminal-text"></text>
  <text x="20" y="1550" class="terminal-text">初始状态 6:</text>
  <text x="20" y="1570" class="terminal-text"> 0  5 15 14</text>
  <text x="20" y="1590" class="terminal-text"> 7  9  6 13</text>
  <text x="20" y="1610" class="terminal-text"> 1  2 12 10</text>
  <text x="20" y="1630" class="terminal-text"> 8 11  4  3</text>
  <text x="20" y="1650" class="terminal-text"></text>
  <text x="20" y="1670" class="terminal-text">正在使用A*算法求解...</text>
  <text x="20" y="1690" class="terminal-text">A*算法求解成功！</text>
  <text x="20" y="1710" class="terminal-text">路径长度: 62</text>
  <text x="20" y="1730" class="terminal-text">展开节点数: 5501235</text>
  <text x="20" y="1750" class="terminal-text">运行时间: 527.8269872665405秒</text>
  <text x="20" y="1770" class="terminal-text">路径： [7, 9, 2, 1, 9, 2, 5, 7, 2, 5, 1, 11, 8, 9, 5,</text>
  <text x="20" y="1790" class="terminal-text">1, 6, 12, 10, 3, 4, 8, 11, 10, 12, 13, 3, 4, 8, 12,</text>
  <text x="20" y="1810" class="terminal-text">13, 15, 14, 3, 4, 8, 12, 13, 15, 14, 7, 2, 1, 5, 10,</text>
  <text x="20" y="1830" class="terminal-text">11, 13, 15, 14, 7, 3, 4, 8, 12, 15, 14, 11, 10, 9,</text>
  <text x="20" y="1850" class="terminal-text">13, 14, 15]</text>
</svg>